<svg width="105" height="40" viewBox="0 0 105 40" fill="none" xmlns="http://www.w3.org/2000/svg">
<path d="M70.0469 20.0146H66.8037L66.7861 18.6523H69.7305C70.2168 18.6523 70.6416 18.5703 71.0049 18.4062C71.3682 18.2422 71.6494 18.0078 71.8486 17.7031C72.0537 17.3926 72.1562 17.0234 72.1562 16.5957C72.1562 16.127 72.0654 15.7461 71.8838 15.4531C71.708 15.1543 71.4355 14.9375 71.0664 14.8027C70.7031 14.6621 70.2402 14.5918 69.6777 14.5918H67.1816V26H65.4854V13.2031H69.6777C70.334 13.2031 70.9199 13.2705 71.4355 13.4053C71.9512 13.5342 72.3877 13.7393 72.7451 14.0205C73.1084 14.2959 73.3838 14.6475 73.5713 15.0752C73.7588 15.5029 73.8525 16.0156 73.8525 16.6133C73.8525 17.1406 73.7178 17.6182 73.4482 18.0459C73.1787 18.4678 72.8037 18.8135 72.3232 19.083C71.8486 19.3525 71.292 19.5254 70.6533 19.6016L70.0469 20.0146ZM69.9678 26H66.1357L67.0938 24.6201H69.9678C70.5068 24.6201 70.9639 24.5264 71.3389 24.3389C71.7197 24.1514 72.0098 23.8877 72.209 23.5479C72.4082 23.2021 72.5078 22.7949 72.5078 22.3262C72.5078 21.8516 72.4229 21.4414 72.2529 21.0957C72.083 20.75 71.8164 20.4834 71.4531 20.2959C71.0898 20.1084 70.6211 20.0146 70.0469 20.0146H67.6299L67.6475 18.6523H70.9521L71.3125 19.1445C71.9277 19.1973 72.4492 19.373 72.877 19.6719C73.3047 19.9648 73.6299 20.3398 73.8525 20.7969C74.0811 21.2539 74.1953 21.7578 74.1953 22.3086C74.1953 23.1055 74.0195 23.7793 73.668 24.3301C73.3223 24.875 72.833 25.291 72.2002 25.5781C71.5674 25.8594 70.8232 26 69.9678 26ZM82.0615 24.374V19.4785C82.0615 19.1035 81.9854 18.7783 81.833 18.5029C81.6865 18.2217 81.4639 18.0049 81.165 17.8525C80.8662 17.7002 80.4971 17.624 80.0576 17.624C79.6475 17.624 79.2871 17.6943 78.9766 17.835C78.6719 17.9756 78.4316 18.1602 78.2559 18.3887C78.0859 18.6172 78.001 18.8633 78.001 19.127H76.375C76.375 18.7871 76.4629 18.4502 76.6387 18.1162C76.8145 17.7822 77.0664 17.4805 77.3945 17.2109C77.7285 16.9355 78.127 16.7188 78.5898 16.5605C79.0586 16.3965 79.5801 16.3145 80.1543 16.3145C80.8457 16.3145 81.4551 16.4316 81.9824 16.666C82.5156 16.9004 82.9316 17.2549 83.2305 17.7295C83.5352 18.1982 83.6875 18.7871 83.6875 19.4961V23.9258C83.6875 24.2422 83.7139 24.5791 83.7666 24.9365C83.8252 25.2939 83.9102 25.6016 84.0215 25.8594V26H82.3252C82.2432 25.8125 82.1787 25.5635 82.1318 25.2529C82.085 24.9365 82.0615 24.6436 82.0615 24.374ZM82.3428 20.2344L82.3604 21.377H80.7168C80.2539 21.377 79.8408 21.415 79.4775 21.4912C79.1143 21.5615 78.8096 21.6699 78.5635 21.8164C78.3174 21.9629 78.1299 22.1475 78.001 22.3701C77.8721 22.5869 77.8076 22.8418 77.8076 23.1348C77.8076 23.4336 77.875 23.7061 78.0098 23.9521C78.1445 24.1982 78.3467 24.3945 78.6162 24.541C78.8916 24.6816 79.2285 24.752 79.627 24.752C80.125 24.752 80.5645 24.6465 80.9453 24.4355C81.3262 24.2246 81.6279 23.9668 81.8506 23.6621C82.0791 23.3574 82.2021 23.0615 82.2197 22.7744L82.9141 23.5566C82.873 23.8027 82.7617 24.0752 82.5801 24.374C82.3984 24.6729 82.1553 24.96 81.8506 25.2354C81.5518 25.5049 81.1943 25.7305 80.7783 25.9121C80.3682 26.0879 79.9053 26.1758 79.3896 26.1758C78.7451 26.1758 78.1797 26.0498 77.6934 25.7979C77.2129 25.5459 76.8379 25.209 76.5684 24.7871C76.3047 24.3594 76.1729 23.8818 76.1729 23.3545C76.1729 22.8447 76.2725 22.3965 76.4717 22.0098C76.6709 21.6172 76.958 21.292 77.333 21.0342C77.708 20.7705 78.1592 20.5713 78.6865 20.4365C79.2139 20.3018 79.8027 20.2344 80.4531 20.2344H82.3428ZM87.8711 18.5205V26H86.2451V16.4902H87.7832L87.8711 18.5205ZM87.4844 20.8848L86.8076 20.8584C86.8135 20.208 86.9102 19.6074 87.0977 19.0566C87.2852 18.5 87.5488 18.0166 87.8887 17.6064C88.2285 17.1963 88.6328 16.8799 89.1016 16.6572C89.5762 16.4287 90.1006 16.3145 90.6748 16.3145C91.1436 16.3145 91.5654 16.3789 91.9404 16.5078C92.3154 16.6309 92.6348 16.8301 92.8984 17.1055C93.168 17.3809 93.373 17.7383 93.5137 18.1777C93.6543 18.6113 93.7246 19.1416 93.7246 19.7686V26H92.0898V19.751C92.0898 19.2529 92.0166 18.8545 91.8701 18.5557C91.7236 18.251 91.5098 18.0312 91.2285 17.8965C90.9473 17.7559 90.6016 17.6855 90.1914 17.6855C89.7871 17.6855 89.418 17.7705 89.084 17.9404C88.7559 18.1104 88.4717 18.3447 88.2314 18.6436C87.9971 18.9424 87.8125 19.2852 87.6777 19.6719C87.5488 20.0527 87.4844 20.457 87.4844 20.8848ZM97.8291 12.5V26H96.1943V12.5H97.8291ZM103.639 16.4902L99.4902 20.9287L97.1699 23.3369L97.0381 21.6055L98.6992 19.6191L101.652 16.4902H103.639ZM102.153 26L98.7607 21.4648L99.6045 20.0146L104.069 26H102.153Z" fill="black" fill-opacity="0.5"/>
<rect width="40" height="40" rx="5" fill="black" fill-opacity="0.06"/>
<path d="M30.2101 19.0839C30.9939 19.0839 31.3211 18.0204 30.6844 17.5302L20.9978 10.0887C20.8595 9.98166 20.6924 9.92395 20.5209 9.92395C20.3494 9.92395 20.1824 9.98166 20.0441 10.0887L10.3574 17.5302C9.7208 18.0178 10.048 19.0839 10.8343 19.0839H12.4043V29.1024H10.5781C10.4665 29.1024 10.3752 29.1988 10.3752 29.3167V30.7097C10.3752 30.8275 10.4665 30.924 10.5781 30.924H30.4638C30.5754 30.924 30.6667 30.8275 30.6667 30.7097V29.3167C30.6667 29.1988 30.5754 29.1024 30.4638 29.1024H28.6375V19.0839H30.2101ZM20.5209 11.9772L27.3972 17.2597H13.6447L20.5209 11.9772ZM14.2306 19.0839H17.1982V29.1024H14.2306V19.0839ZM19.0244 19.0839H21.9921V29.1024H19.0244V19.0839ZM26.8113 29.1024H23.8183V19.0839H26.8113V29.1024Z" fill="black" fill-opacity="0.5"/>
</svg>
