<svg width="142" height="40" viewBox="0 0 142 40" fill="none" xmlns="http://www.w3.org/2000/svg">
<path d="M73.6152 24.6201V26H66.8389V24.6201H73.6152ZM67.1816 13.2031V26H65.4854V13.2031H67.1816ZM72.7188 18.7051V20.085H66.8389V18.7051H72.7188ZM73.5273 13.2031V14.5918H66.8389V13.2031H73.5273ZM76.5684 16.4902L78.6514 19.9531L80.7607 16.4902H82.668L79.5566 21.1836L82.7646 26H80.8838L78.6865 22.4316L76.4893 26H74.5996L77.7988 21.1836L74.6963 16.4902H76.5684ZM88.0293 24.8398C88.416 24.8398 88.7734 24.7607 89.1016 24.6025C89.4297 24.4443 89.6992 24.2275 89.9102 23.9521C90.1211 23.6709 90.2412 23.3516 90.2705 22.9941H91.8174C91.7881 23.5566 91.5977 24.0811 91.2461 24.5674C90.9004 25.0479 90.4463 25.4375 89.8838 25.7363C89.3213 26.0293 88.7031 26.1758 88.0293 26.1758C87.3145 26.1758 86.6904 26.0498 86.1572 25.7979C85.6299 25.5459 85.1904 25.2002 84.8389 24.7607C84.4932 24.3213 84.2324 23.8174 84.0566 23.249C83.8867 22.6748 83.8018 22.0684 83.8018 21.4297V21.0605C83.8018 20.4219 83.8867 19.8184 84.0566 19.25C84.2324 18.6758 84.4932 18.1689 84.8389 17.7295C85.1904 17.29 85.6299 16.9443 86.1572 16.6924C86.6904 16.4404 87.3145 16.3145 88.0293 16.3145C88.7734 16.3145 89.4238 16.4668 89.9805 16.7715C90.5371 17.0703 90.9736 17.4805 91.29 18.002C91.6123 18.5176 91.7881 19.1035 91.8174 19.7598H90.2705C90.2412 19.3672 90.1299 19.0127 89.9365 18.6963C89.749 18.3799 89.4912 18.1279 89.1631 17.9404C88.8408 17.7471 88.4629 17.6504 88.0293 17.6504C87.5312 17.6504 87.1123 17.75 86.7725 17.9492C86.4385 18.1426 86.1719 18.4062 85.9727 18.7402C85.7793 19.0684 85.6387 19.4346 85.5508 19.8389C85.4688 20.2373 85.4277 20.6445 85.4277 21.0605V21.4297C85.4277 21.8457 85.4688 22.2559 85.5508 22.6602C85.6328 23.0645 85.7705 23.4307 85.9639 23.7588C86.1631 24.0869 86.4297 24.3506 86.7637 24.5498C87.1035 24.7432 87.5254 24.8398 88.0293 24.8398ZM95.2715 12.5V26H93.6455V12.5H95.2715ZM94.8848 20.8848L94.208 20.8584C94.2139 20.208 94.3105 19.6074 94.498 19.0566C94.6855 18.5 94.9492 18.0166 95.2891 17.6064C95.6289 17.1963 96.0332 16.8799 96.502 16.6572C96.9766 16.4287 97.501 16.3145 98.0752 16.3145C98.5439 16.3145 98.9658 16.3789 99.3408 16.5078C99.7158 16.6309 100.035 16.8301 100.299 17.1055C100.568 17.3809 100.773 17.7383 100.914 18.1777C101.055 18.6113 101.125 19.1416 101.125 19.7686V26H99.4902V19.751C99.4902 19.2529 99.417 18.8545 99.2705 18.5557C99.124 18.251 98.9102 18.0312 98.6289 17.8965C98.3477 17.7559 98.002 17.6855 97.5918 17.6855C97.1875 17.6855 96.8184 17.7705 96.4844 17.9404C96.1562 18.1104 95.8721 18.3447 95.6318 18.6436C95.3975 18.9424 95.2129 19.2852 95.0781 19.6719C94.9492 20.0527 94.8848 20.457 94.8848 20.8848ZM109.167 24.374V19.4785C109.167 19.1035 109.091 18.7783 108.938 18.5029C108.792 18.2217 108.569 18.0049 108.271 17.8525C107.972 17.7002 107.603 17.624 107.163 17.624C106.753 17.624 106.393 17.6943 106.082 17.835C105.777 17.9756 105.537 18.1602 105.361 18.3887C105.191 18.6172 105.106 18.8633 105.106 19.127H103.48C103.48 18.7871 103.568 18.4502 103.744 18.1162C103.92 17.7822 104.172 17.4805 104.5 17.2109C104.834 16.9355 105.232 16.7188 105.695 16.5605C106.164 16.3965 106.686 16.3145 107.26 16.3145C107.951 16.3145 108.561 16.4316 109.088 16.666C109.621 16.9004 110.037 17.2549 110.336 17.7295C110.641 18.1982 110.793 18.7871 110.793 19.4961V23.9258C110.793 24.2422 110.819 24.5791 110.872 24.9365C110.931 25.2939 111.016 25.6016 111.127 25.8594V26H109.431C109.349 25.8125 109.284 25.5635 109.237 25.2529C109.19 24.9365 109.167 24.6436 109.167 24.374ZM109.448 20.2344L109.466 21.377H107.822C107.359 21.377 106.946 21.415 106.583 21.4912C106.22 21.5615 105.915 21.6699 105.669 21.8164C105.423 21.9629 105.235 22.1475 105.106 22.3701C104.978 22.5869 104.913 22.8418 104.913 23.1348C104.913 23.4336 104.98 23.7061 105.115 23.9521C105.25 24.1982 105.452 24.3945 105.722 24.541C105.997 24.6816 106.334 24.752 106.732 24.752C107.23 24.752 107.67 24.6465 108.051 24.4355C108.432 24.2246 108.733 23.9668 108.956 23.6621C109.185 23.3574 109.308 23.0615 109.325 22.7744L110.02 23.5566C109.979 23.8027 109.867 24.0752 109.686 24.374C109.504 24.6729 109.261 24.96 108.956 25.2354C108.657 25.5049 108.3 25.7305 107.884 25.9121C107.474 26.0879 107.011 26.1758 106.495 26.1758C105.851 26.1758 105.285 26.0498 104.799 25.7979C104.318 25.5459 103.943 25.209 103.674 24.7871C103.41 24.3594 103.278 23.8818 103.278 23.3545C103.278 22.8447 103.378 22.3965 103.577 22.0098C103.776 21.6172 104.063 21.292 104.438 21.0342C104.813 20.7705 105.265 20.5713 105.792 20.4365C106.319 20.3018 106.908 20.2344 107.559 20.2344H109.448ZM114.977 18.5205V26H113.351V16.4902H114.889L114.977 18.5205ZM114.59 20.8848L113.913 20.8584C113.919 20.208 114.016 19.6074 114.203 19.0566C114.391 18.5 114.654 18.0166 114.994 17.6064C115.334 17.1963 115.738 16.8799 116.207 16.6572C116.682 16.4287 117.206 16.3145 117.78 16.3145C118.249 16.3145 118.671 16.3789 119.046 16.5078C119.421 16.6309 119.74 16.8301 120.004 17.1055C120.273 17.3809 120.479 17.7383 120.619 18.1777C120.76 18.6113 120.83 19.1416 120.83 19.7686V26H119.195V19.751C119.195 19.2529 119.122 18.8545 118.976 18.5557C118.829 18.251 118.615 18.0312 118.334 17.8965C118.053 17.7559 117.707 17.6855 117.297 17.6855C116.893 17.6855 116.523 17.7705 116.189 17.9404C115.861 18.1104 115.577 18.3447 115.337 18.6436C115.103 18.9424 114.918 19.2852 114.783 19.6719C114.654 20.0527 114.59 20.457 114.59 20.8848ZM129.461 16.4902H130.938V25.7979C130.938 26.6357 130.768 27.3506 130.428 27.9424C130.088 28.5342 129.613 28.9824 129.004 29.2871C128.4 29.5977 127.703 29.7529 126.912 29.7529C126.584 29.7529 126.197 29.7002 125.752 29.5947C125.312 29.4951 124.879 29.3223 124.451 29.0762C124.029 28.8359 123.675 28.5107 123.388 28.1006L124.24 27.1338C124.639 27.6143 125.055 27.9482 125.488 28.1357C125.928 28.3232 126.361 28.417 126.789 28.417C127.305 28.417 127.75 28.3203 128.125 28.127C128.5 27.9336 128.79 27.6465 128.995 27.2656C129.206 26.8906 129.312 26.4277 129.312 25.877V18.582L129.461 16.4902ZM122.913 21.3506V21.166C122.913 20.4395 122.998 19.7803 123.168 19.1885C123.344 18.5908 123.593 18.0781 123.915 17.6504C124.243 17.2227 124.639 16.8945 125.102 16.666C125.564 16.4316 126.086 16.3145 126.666 16.3145C127.264 16.3145 127.785 16.4199 128.23 16.6309C128.682 16.8359 129.062 17.1377 129.373 17.5361C129.689 17.9287 129.938 18.4033 130.12 18.96C130.302 19.5166 130.428 20.1465 130.498 20.8496V21.6582C130.434 22.3555 130.308 22.9824 130.12 23.5391C129.938 24.0957 129.689 24.5703 129.373 24.9629C129.062 25.3555 128.682 25.6572 128.23 25.8682C127.779 26.0732 127.252 26.1758 126.648 26.1758C126.08 26.1758 125.564 26.0557 125.102 25.8154C124.645 25.5752 124.252 25.2383 123.924 24.8047C123.596 24.3711 123.344 23.8613 123.168 23.2754C122.998 22.6836 122.913 22.042 122.913 21.3506ZM124.539 21.166V21.3506C124.539 21.8252 124.586 22.2705 124.68 22.6865C124.779 23.1025 124.929 23.4688 125.128 23.7852C125.333 24.1016 125.594 24.3506 125.91 24.5322C126.227 24.708 126.604 24.7959 127.044 24.7959C127.583 24.7959 128.028 24.6816 128.38 24.4531C128.731 24.2246 129.01 23.9229 129.215 23.5479C129.426 23.1729 129.59 22.7656 129.707 22.3262V20.208C129.643 19.8857 129.543 19.5752 129.408 19.2764C129.279 18.9717 129.109 18.7021 128.898 18.4678C128.693 18.2275 128.438 18.0371 128.134 17.8965C127.829 17.7559 127.472 17.6855 127.062 17.6855C126.616 17.6855 126.232 17.7793 125.91 17.9668C125.594 18.1484 125.333 18.4004 125.128 18.7227C124.929 19.0391 124.779 19.4082 124.68 19.8301C124.586 20.2461 124.539 20.6914 124.539 21.166ZM137.354 26.1758C136.691 26.1758 136.091 26.0645 135.552 25.8418C135.019 25.6133 134.559 25.2939 134.172 24.8838C133.791 24.4736 133.498 23.9873 133.293 23.4248C133.088 22.8623 132.985 22.2471 132.985 21.5791V21.21C132.985 20.4365 133.1 19.748 133.328 19.1445C133.557 18.5352 133.867 18.0195 134.26 17.5977C134.652 17.1758 135.098 16.8564 135.596 16.6396C136.094 16.4229 136.609 16.3145 137.143 16.3145C137.822 16.3145 138.408 16.4316 138.9 16.666C139.398 16.9004 139.806 17.2285 140.122 17.6504C140.438 18.0664 140.673 18.5586 140.825 19.127C140.978 19.6895 141.054 20.3047 141.054 20.9727V21.7021H133.952V20.375H139.428V20.252C139.404 19.8301 139.316 19.4199 139.164 19.0215C139.018 18.623 138.783 18.2949 138.461 18.0371C138.139 17.7793 137.699 17.6504 137.143 17.6504C136.773 17.6504 136.434 17.7295 136.123 17.8877C135.812 18.04 135.546 18.2686 135.323 18.5732C135.101 18.8779 134.928 19.25 134.805 19.6895C134.682 20.1289 134.62 20.6357 134.62 21.21V21.5791C134.62 22.0303 134.682 22.4551 134.805 22.8535C134.934 23.2461 135.118 23.5918 135.358 23.8906C135.604 24.1895 135.9 24.4238 136.246 24.5938C136.598 24.7637 136.996 24.8486 137.441 24.8486C138.016 24.8486 138.502 24.7314 138.9 24.4971C139.299 24.2627 139.647 23.9492 139.946 23.5566L140.931 24.3389C140.726 24.6494 140.465 24.9453 140.148 25.2266C139.832 25.5078 139.442 25.7363 138.979 25.9121C138.522 26.0879 137.98 26.1758 137.354 26.1758Z" fill="black" fill-opacity="0.5"/>
<rect width="40" height="40" rx="5" fill="black" fill-opacity="0.06"/>
<path d="M27.1364 10H17.5909C16.8314 10 16.103 10.3319 15.566 10.9226C15.029 11.5134 14.7273 12.3146 14.7273 13.15V20.5C14.7273 21.3354 15.029 22.1366 15.566 22.7274C16.103 23.3181 16.8314 23.65 17.5909 23.65H27.1364C27.8958 23.65 28.6242 23.3181 29.1613 22.7274C29.6983 22.1366 30 21.3354 30 20.5V13.15C30 12.3146 29.6983 11.5134 29.1613 10.9226C28.6242 10.3319 27.8958 10 27.1364 10ZM28.0909 20.5C28.0909 20.7785 27.9903 21.0455 27.8113 21.2425C27.6323 21.4394 27.3895 21.55 27.1364 21.55H17.5909C17.3377 21.55 17.095 21.4394 16.9159 21.2425C16.7369 21.0455 16.6364 20.7785 16.6364 20.5V13.15C16.6364 12.8715 16.7369 12.6045 16.9159 12.4075C17.095 12.2106 17.3377 12.1 17.5909 12.1H27.1364C27.3895 12.1 27.6323 12.2106 27.8113 12.4075C27.9903 12.6045 28.0909 12.8715 28.0909 13.15V20.5ZM24.75 16.3C24.3966 16.3013 24.0563 16.4473 23.7955 16.7095C23.5902 16.5043 23.3352 16.3691 23.0614 16.3203C22.7876 16.2715 22.5068 16.3112 22.2531 16.4347C21.9994 16.5581 21.7838 16.76 21.6325 17.0156C21.4812 17.2713 21.4006 17.5699 21.4006 17.875C21.4006 18.1801 21.4812 18.4787 21.6325 18.7344C21.7838 18.99 21.9994 19.1919 22.2531 19.3153C22.5068 19.4388 22.7876 19.4785 23.0614 19.4297C23.3352 19.3809 23.5902 19.2457 23.7955 19.0405C23.9678 19.2128 24.1758 19.3363 24.4014 19.4002C24.627 19.4641 24.8633 19.4665 25.0899 19.4072C25.3165 19.3479 25.5266 19.2286 25.7018 19.0598C25.877 18.891 26.0122 18.6777 26.0955 18.4385C26.1789 18.1992 26.2079 17.9412 26.18 17.6868C26.1522 17.4324 26.0684 17.1893 25.9358 16.9786C25.8032 16.7679 25.626 16.596 25.4193 16.4778C25.2127 16.3595 24.9829 16.2985 24.75 16.3ZM23.3182 25.75C23.065 25.75 22.8222 25.8606 22.6432 26.0575C22.4642 26.2544 22.3636 26.5215 22.3636 26.8V27.85C22.3636 28.1285 22.2631 28.3955 22.0841 28.5925C21.905 28.7894 21.6623 28.9 21.4091 28.9H11.8636C11.6105 28.9 11.3677 28.7894 11.1887 28.5925C11.0097 28.3955 10.9091 28.1285 10.9091 27.85V23.65H11.8636C12.1168 23.65 12.3596 23.5394 12.5386 23.3425C12.7176 23.1455 12.8182 22.8785 12.8182 22.6C12.8182 22.3215 12.7176 22.0545 12.5386 21.8575C12.3596 21.6606 12.1168 21.55 11.8636 21.55H10.9091V20.5C10.9091 20.2215 11.0097 19.9545 11.1887 19.7575C11.3677 19.5606 11.6105 19.45 11.8636 19.45C12.1168 19.45 12.3596 19.3394 12.5386 19.1425C12.7176 18.9455 12.8182 18.6785 12.8182 18.4C12.8182 18.1215 12.7176 17.8545 12.5386 17.6575C12.3596 17.4606 12.1168 17.35 11.8636 17.35C11.1042 17.35 10.3758 17.6819 9.83874 18.2726C9.3017 18.8634 9 19.6646 9 20.5V27.85C9 28.6854 9.3017 29.4866 9.83874 30.0774C10.3758 30.6681 11.1042 31 11.8636 31H21.4091C22.1686 31 22.897 30.6681 23.434 30.0774C23.971 29.4866 24.2727 28.6854 24.2727 27.85V26.8C24.2727 26.5215 24.1722 26.2544 23.9931 26.0575C23.8141 25.8606 23.5713 25.75 23.3182 25.75ZM13.7727 26.8H14.7273C14.9804 26.8 15.2232 26.6894 15.4022 26.4925C15.5813 26.2955 15.6818 26.0285 15.6818 25.75C15.6818 25.4715 15.5813 25.2044 15.4022 25.0075C15.2232 24.8106 14.9804 24.7 14.7273 24.7H13.7727C13.5196 24.7 13.2768 24.8106 13.0978 25.0075C12.9187 25.2044 12.8182 25.4715 12.8182 25.75C12.8182 26.0285 12.9187 26.2955 13.0978 26.4925C13.2768 26.6894 13.5196 26.8 13.7727 26.8Z" fill="black" fill-opacity="0.5"/>
</svg>
