<svg width="170" height="65" viewBox="0 0 170 65" fill="none" xmlns="http://www.w3.org/2000/svg">
<g filter="url(#filter0_d_52_15)">
<rect x="10.5" y="6.5" width="149" height="44" stroke="black" shape-rendering="crispEdges"/>
</g>
<path d="M47.4854 21.2031H51.7217C52.6826 21.2031 53.4941 21.3496 54.1562 21.6426C54.8242 21.9355 55.3311 22.3691 55.6768 22.9434C56.0283 23.5117 56.2041 24.2119 56.2041 25.0439C56.2041 25.6299 56.084 26.166 55.8438 26.6523C55.6094 27.1328 55.2695 27.543 54.8242 27.8828C54.3848 28.2168 53.8574 28.4658 53.2422 28.6299L52.7676 28.8145H48.7861L48.7686 27.4346H51.7744C52.3838 27.4346 52.8906 27.3291 53.2949 27.1182C53.6992 26.9014 54.0039 26.6113 54.209 26.248C54.4141 25.8848 54.5166 25.4834 54.5166 25.0439C54.5166 24.5518 54.4199 24.1211 54.2266 23.752C54.0332 23.3828 53.7285 23.0986 53.3125 22.8994C52.9023 22.6943 52.3721 22.5918 51.7217 22.5918H49.1816V34H47.4854V21.2031ZM54.9648 34L51.8535 28.1992L53.6201 28.1904L56.7754 33.8945V34H54.9648ZM62.2773 34.1758C61.6152 34.1758 61.0146 34.0645 60.4756 33.8418C59.9424 33.6133 59.4824 33.2939 59.0957 32.8838C58.7148 32.4736 58.4219 31.9873 58.2168 31.4248C58.0117 30.8623 57.9092 30.2471 57.9092 29.5791V29.21C57.9092 28.4365 58.0234 27.748 58.252 27.1445C58.4805 26.5352 58.791 26.0195 59.1836 25.5977C59.5762 25.1758 60.0215 24.8564 60.5195 24.6396C61.0176 24.4229 61.5332 24.3145 62.0664 24.3145C62.7461 24.3145 63.332 24.4316 63.8242 24.666C64.3223 24.9004 64.7295 25.2285 65.0459 25.6504C65.3623 26.0664 65.5967 26.5586 65.749 27.127C65.9014 27.6895 65.9775 28.3047 65.9775 28.9727V29.7021H58.876V28.375H64.3516V28.252C64.3281 27.8301 64.2402 27.4199 64.0879 27.0215C63.9414 26.623 63.707 26.2949 63.3848 26.0371C63.0625 25.7793 62.623 25.6504 62.0664 25.6504C61.6973 25.6504 61.3574 25.7295 61.0469 25.8877C60.7363 26.04 60.4697 26.2686 60.2471 26.5732C60.0244 26.8779 59.8516 27.25 59.7285 27.6895C59.6055 28.1289 59.5439 28.6357 59.5439 29.21V29.5791C59.5439 30.0303 59.6055 30.4551 59.7285 30.8535C59.8574 31.2461 60.042 31.5918 60.2822 31.8906C60.5283 32.1895 60.8242 32.4238 61.1699 32.5938C61.5215 32.7637 61.9199 32.8486 62.3652 32.8486C62.9395 32.8486 63.4258 32.7314 63.8242 32.4971C64.2227 32.2627 64.5713 31.9492 64.8701 31.5566L65.8545 32.3389C65.6494 32.6494 65.3887 32.9453 65.0723 33.2266C64.7559 33.5078 64.3662 33.7363 63.9033 33.9121C63.4463 34.0879 62.9043 34.1758 62.2773 34.1758ZM73.4834 32.374V27.4785C73.4834 27.1035 73.4072 26.7783 73.2549 26.5029C73.1084 26.2217 72.8857 26.0049 72.5869 25.8525C72.2881 25.7002 71.9189 25.624 71.4795 25.624C71.0693 25.624 70.709 25.6943 70.3984 25.835C70.0938 25.9756 69.8535 26.1602 69.6777 26.3887C69.5078 26.6172 69.4229 26.8633 69.4229 27.127H67.7969C67.7969 26.7871 67.8848 26.4502 68.0605 26.1162C68.2363 25.7822 68.4883 25.4805 68.8164 25.2109C69.1504 24.9355 69.5488 24.7188 70.0117 24.5605C70.4805 24.3965 71.002 24.3145 71.5762 24.3145C72.2676 24.3145 72.877 24.4316 73.4043 24.666C73.9375 24.9004 74.3535 25.2549 74.6523 25.7295C74.957 26.1982 75.1094 26.7871 75.1094 27.4961V31.9258C75.1094 32.2422 75.1357 32.5791 75.1885 32.9365C75.2471 33.2939 75.332 33.6016 75.4434 33.8594V34H73.7471C73.665 33.8125 73.6006 33.5635 73.5537 33.2529C73.5068 32.9365 73.4834 32.6436 73.4834 32.374ZM73.7646 28.2344L73.7822 29.377H72.1387C71.6758 29.377 71.2627 29.415 70.8994 29.4912C70.5361 29.5615 70.2314 29.6699 69.9854 29.8164C69.7393 29.9629 69.5518 30.1475 69.4229 30.3701C69.2939 30.5869 69.2295 30.8418 69.2295 31.1348C69.2295 31.4336 69.2969 31.7061 69.4316 31.9521C69.5664 32.1982 69.7686 32.3945 70.0381 32.541C70.3135 32.6816 70.6504 32.752 71.0488 32.752C71.5469 32.752 71.9863 32.6465 72.3672 32.4355C72.748 32.2246 73.0498 31.9668 73.2725 31.6621C73.501 31.3574 73.624 31.0615 73.6416 30.7744L74.3359 31.5566C74.2949 31.8027 74.1836 32.0752 74.002 32.374C73.8203 32.6729 73.5771 32.96 73.2725 33.2354C72.9736 33.5049 72.6162 33.7305 72.2002 33.9121C71.79 34.0879 71.3271 34.1758 70.8115 34.1758C70.167 34.1758 69.6016 34.0498 69.1152 33.7979C68.6348 33.5459 68.2598 33.209 67.9902 32.7871C67.7266 32.3594 67.5947 31.8818 67.5947 31.3545C67.5947 30.8447 67.6943 30.3965 67.8936 30.0098C68.0928 29.6172 68.3799 29.292 68.7549 29.0342C69.1299 28.7705 69.5811 28.5713 70.1084 28.4365C70.6357 28.3018 71.2246 28.2344 71.875 28.2344H73.7646ZM83.6611 32.1543V20.5H85.2959V34H83.8018L83.6611 32.1543ZM77.2627 29.3506V29.166C77.2627 28.4395 77.3506 27.7803 77.5264 27.1885C77.708 26.5908 77.9629 26.0781 78.291 25.6504C78.625 25.2227 79.0205 24.8945 79.4775 24.666C79.9404 24.4316 80.4561 24.3145 81.0244 24.3145C81.6221 24.3145 82.1436 24.4199 82.5889 24.6309C83.04 24.8359 83.4209 25.1377 83.7314 25.5361C84.0479 25.9287 84.2969 26.4033 84.4785 26.96C84.6602 27.5166 84.7861 28.1465 84.8564 28.8496V29.6582C84.792 30.3555 84.666 30.9824 84.4785 31.5391C84.2969 32.0957 84.0479 32.5703 83.7314 32.9629C83.4209 33.3555 83.04 33.6572 82.5889 33.8682C82.1377 34.0732 81.6104 34.1758 81.0068 34.1758C80.4502 34.1758 79.9404 34.0557 79.4775 33.8154C79.0205 33.5752 78.625 33.2383 78.291 32.8047C77.9629 32.3711 77.708 31.8613 77.5264 31.2754C77.3506 30.6836 77.2627 30.042 77.2627 29.3506ZM78.8975 29.166V29.3506C78.8975 29.8252 78.9443 30.2705 79.0381 30.6865C79.1377 31.1025 79.29 31.4688 79.4951 31.7852C79.7002 32.1016 79.9609 32.3506 80.2773 32.5322C80.5938 32.708 80.9717 32.7959 81.4111 32.7959C81.9502 32.7959 82.3926 32.6816 82.7383 32.4531C83.0898 32.2246 83.3711 31.9229 83.582 31.5479C83.793 31.1729 83.957 30.7656 84.0742 30.3262V28.208C84.0039 27.8857 83.9014 27.5752 83.7666 27.2764C83.6377 26.9717 83.4678 26.7021 83.2568 26.4678C83.0518 26.2275 82.7969 26.0371 82.4922 25.8965C82.1934 25.7559 81.8389 25.6855 81.4287 25.6855C80.9834 25.6855 80.5996 25.7793 80.2773 25.9668C79.9609 26.1484 79.7002 26.4004 79.4951 26.7227C79.29 27.0391 79.1377 27.4082 79.0381 27.8301C78.9443 28.2461 78.8975 28.6914 78.8975 29.166ZM93.0742 21.2031H94.7178L98.9102 31.6357L103.094 21.2031H104.746L99.543 34H98.2598L93.0742 21.2031ZM92.5381 21.2031H93.9883L94.2256 29.0078V34H92.5381V21.2031ZM103.823 21.2031H105.273V34H103.586V29.0078L103.823 21.2031ZM107.576 29.3506V29.1484C107.576 28.4629 107.676 27.8271 107.875 27.2412C108.074 26.6494 108.361 26.1367 108.736 25.7031C109.111 25.2637 109.565 24.9238 110.099 24.6836C110.632 24.4375 111.229 24.3145 111.892 24.3145C112.56 24.3145 113.16 24.4375 113.693 24.6836C114.232 24.9238 114.689 25.2637 115.064 25.7031C115.445 26.1367 115.735 26.6494 115.935 27.2412C116.134 27.8271 116.233 28.4629 116.233 29.1484V29.3506C116.233 30.0361 116.134 30.6719 115.935 31.2578C115.735 31.8438 115.445 32.3564 115.064 32.7959C114.689 33.2295 114.235 33.5693 113.702 33.8154C113.175 34.0557 112.577 34.1758 111.909 34.1758C111.241 34.1758 110.641 34.0557 110.107 33.8154C109.574 33.5693 109.117 33.2295 108.736 32.7959C108.361 32.3564 108.074 31.8438 107.875 31.2578C107.676 30.6719 107.576 30.0361 107.576 29.3506ZM109.202 29.1484V29.3506C109.202 29.8252 109.258 30.2734 109.369 30.6953C109.48 31.1113 109.647 31.4805 109.87 31.8027C110.099 32.125 110.383 32.3799 110.723 32.5674C111.062 32.749 111.458 32.8398 111.909 32.8398C112.354 32.8398 112.744 32.749 113.078 32.5674C113.418 32.3799 113.699 32.125 113.922 31.8027C114.145 31.4805 114.312 31.1113 114.423 30.6953C114.54 30.2734 114.599 29.8252 114.599 29.3506V29.1484C114.599 28.6797 114.54 28.2373 114.423 27.8213C114.312 27.3994 114.142 27.0273 113.913 26.7051C113.69 26.377 113.409 26.1191 113.069 25.9316C112.735 25.7441 112.343 25.6504 111.892 25.6504C111.446 25.6504 111.054 25.7441 110.714 25.9316C110.38 26.1191 110.099 26.377 109.87 26.7051C109.647 27.0273 109.48 27.3994 109.369 27.8213C109.258 28.2373 109.202 28.6797 109.202 29.1484ZM119.898 25.9844V34H118.272V24.4902H119.854L119.898 25.9844ZM122.869 24.4375L122.86 25.9492C122.726 25.9199 122.597 25.9023 122.474 25.8965C122.356 25.8848 122.222 25.8789 122.069 25.8789C121.694 25.8789 121.363 25.9375 121.076 26.0547C120.789 26.1719 120.546 26.3359 120.347 26.5469C120.147 26.7578 119.989 27.0098 119.872 27.3027C119.761 27.5898 119.688 27.9062 119.652 28.252L119.195 28.5156C119.195 27.9414 119.251 27.4023 119.362 26.8984C119.479 26.3945 119.658 25.9492 119.898 25.5625C120.139 25.1699 120.443 24.8652 120.812 24.6484C121.188 24.4258 121.633 24.3145 122.148 24.3145C122.266 24.3145 122.4 24.3291 122.553 24.3584C122.705 24.3818 122.811 24.4082 122.869 24.4375ZM128.143 34.1758C127.48 34.1758 126.88 34.0645 126.341 33.8418C125.808 33.6133 125.348 33.2939 124.961 32.8838C124.58 32.4736 124.287 31.9873 124.082 31.4248C123.877 30.8623 123.774 30.2471 123.774 29.5791V29.21C123.774 28.4365 123.889 27.748 124.117 27.1445C124.346 26.5352 124.656 26.0195 125.049 25.5977C125.441 25.1758 125.887 24.8564 126.385 24.6396C126.883 24.4229 127.398 24.3145 127.932 24.3145C128.611 24.3145 129.197 24.4316 129.689 24.666C130.188 24.9004 130.595 25.2285 130.911 25.6504C131.228 26.0664 131.462 26.5586 131.614 27.127C131.767 27.6895 131.843 28.3047 131.843 28.9727V29.7021H124.741V28.375H130.217V28.252C130.193 27.8301 130.105 27.4199 129.953 27.0215C129.807 26.623 129.572 26.2949 129.25 26.0371C128.928 25.7793 128.488 25.6504 127.932 25.6504C127.562 25.6504 127.223 25.7295 126.912 25.8877C126.602 26.04 126.335 26.2686 126.112 26.5732C125.89 26.8779 125.717 27.25 125.594 27.6895C125.471 28.1289 125.409 28.6357 125.409 29.21V29.5791C125.409 30.0303 125.471 30.4551 125.594 30.8535C125.723 31.2461 125.907 31.5918 126.147 31.8906C126.394 32.1895 126.689 32.4238 127.035 32.5938C127.387 32.7637 127.785 32.8486 128.23 32.8486C128.805 32.8486 129.291 32.7314 129.689 32.4971C130.088 32.2627 130.437 31.9492 130.735 31.5566L131.72 32.3389C131.515 32.6494 131.254 32.9453 130.938 33.2266C130.621 33.5078 130.231 33.7363 129.769 33.9121C129.312 34.0879 128.77 34.1758 128.143 34.1758Z" fill="black"/>
<defs>
<filter id="filter0_d_52_15" x="0" y="0" width="170" height="65" filterUnits="userSpaceOnUse" color-interpolation-filters="sRGB">
<feFlood flood-opacity="0" result="BackgroundImageFix"/>
<feColorMatrix in="SourceAlpha" type="matrix" values="0 0 0 0 0 0 0 0 0 0 0 0 0 0 0 0 0 0 127 0" result="hardAlpha"/>
<feOffset dy="4"/>
<feGaussianBlur stdDeviation="5"/>
<feComposite in2="hardAlpha" operator="out"/>
<feColorMatrix type="matrix" values="0 0 0 0 0 0 0 0 0 0 0 0 0 0 0 0 0 0 0.13 0"/>
<feBlend mode="normal" in2="BackgroundImageFix" result="effect1_dropShadow_52_15"/>
<feBlend mode="normal" in="SourceGraphic" in2="effect1_dropShadow_52_15" result="shape"/>
</filter>
</defs>
</svg>
