<svg width="140" height="40" viewBox="0 0 140 40" fill="none" xmlns="http://www.w3.org/2000/svg">
<path d="M66.0215 13.2031H67.665L71.8574 23.6357L76.041 13.2031H77.6934L72.4902 26H71.207L66.0215 13.2031ZM65.4854 13.2031H66.9355L67.1729 21.0078V26H65.4854V13.2031ZM76.7705 13.2031H78.2207V26H76.5332V21.0078L76.7705 13.2031ZM83.626 25.0156L86.2715 16.4902H88.0117L84.1973 27.4678C84.1094 27.7021 83.9922 27.9541 83.8457 28.2236C83.7051 28.499 83.5234 28.7598 83.3008 29.0059C83.0781 29.252 82.8086 29.4512 82.4922 29.6035C82.1816 29.7617 81.8096 29.8408 81.376 29.8408C81.2471 29.8408 81.083 29.8232 80.8838 29.7881C80.6846 29.7529 80.5439 29.7236 80.4619 29.7002L80.4531 28.3818C80.5 28.3877 80.5732 28.3936 80.6729 28.3994C80.7783 28.4111 80.8516 28.417 80.8926 28.417C81.2617 28.417 81.5752 28.3672 81.833 28.2676C82.0908 28.1738 82.3076 28.0127 82.4834 27.7842C82.665 27.5615 82.8203 27.2539 82.9492 26.8613L83.626 25.0156ZM81.6836 16.4902L84.1533 23.873L84.5752 25.5869L83.4062 26.1846L79.9082 16.4902H81.6836ZM94.4453 20.9814H91.0264V19.6016H94.4453C95.1074 19.6016 95.6436 19.4961 96.0537 19.2852C96.4639 19.0742 96.7627 18.7812 96.9502 18.4062C97.1436 18.0312 97.2402 17.6035 97.2402 17.123C97.2402 16.6836 97.1436 16.2705 96.9502 15.8838C96.7627 15.4971 96.4639 15.1865 96.0537 14.9521C95.6436 14.7119 95.1074 14.5918 94.4453 14.5918H91.4219V26H89.7256V13.2031H94.4453C95.4121 13.2031 96.2295 13.3701 96.8975 13.7041C97.5654 14.0381 98.0723 14.501 98.418 15.0928C98.7637 15.6787 98.9365 16.3496 98.9365 17.1055C98.9365 17.9258 98.7637 18.626 98.418 19.2061C98.0723 19.7861 97.5654 20.2285 96.8975 20.5332C96.2295 20.832 95.4121 20.9814 94.4453 20.9814ZM102.461 17.9844V26H100.835V16.4902H102.417L102.461 17.9844ZM105.432 16.4375L105.423 17.9492C105.288 17.9199 105.159 17.9023 105.036 17.8965C104.919 17.8848 104.784 17.8789 104.632 17.8789C104.257 17.8789 103.926 17.9375 103.639 18.0547C103.352 18.1719 103.108 18.3359 102.909 18.5469C102.71 18.7578 102.552 19.0098 102.435 19.3027C102.323 19.5898 102.25 19.9062 102.215 20.252L101.758 20.5156C101.758 19.9414 101.813 19.4023 101.925 18.8984C102.042 18.3945 102.221 17.9492 102.461 17.5625C102.701 17.1699 103.006 16.8652 103.375 16.6484C103.75 16.4258 104.195 16.3145 104.711 16.3145C104.828 16.3145 104.963 16.3291 105.115 16.3584C105.268 16.3818 105.373 16.4082 105.432 16.4375ZM106.328 21.3506V21.1484C106.328 20.4629 106.428 19.8271 106.627 19.2412C106.826 18.6494 107.113 18.1367 107.488 17.7031C107.863 17.2637 108.317 16.9238 108.851 16.6836C109.384 16.4375 109.981 16.3145 110.644 16.3145C111.312 16.3145 111.912 16.4375 112.445 16.6836C112.984 16.9238 113.441 17.2637 113.816 17.7031C114.197 18.1367 114.487 18.6494 114.687 19.2412C114.886 19.8271 114.985 20.4629 114.985 21.1484V21.3506C114.985 22.0361 114.886 22.6719 114.687 23.2578C114.487 23.8438 114.197 24.3564 113.816 24.7959C113.441 25.2295 112.987 25.5693 112.454 25.8154C111.927 26.0557 111.329 26.1758 110.661 26.1758C109.993 26.1758 109.393 26.0557 108.859 25.8154C108.326 25.5693 107.869 25.2295 107.488 24.7959C107.113 24.3564 106.826 23.8438 106.627 23.2578C106.428 22.6719 106.328 22.0361 106.328 21.3506ZM107.954 21.1484V21.3506C107.954 21.8252 108.01 22.2734 108.121 22.6953C108.232 23.1113 108.399 23.4805 108.622 23.8027C108.851 24.125 109.135 24.3799 109.475 24.5674C109.814 24.749 110.21 24.8398 110.661 24.8398C111.106 24.8398 111.496 24.749 111.83 24.5674C112.17 24.3799 112.451 24.125 112.674 23.8027C112.896 23.4805 113.063 23.1113 113.175 22.6953C113.292 22.2734 113.351 21.8252 113.351 21.3506V21.1484C113.351 20.6797 113.292 20.2373 113.175 19.8213C113.063 19.3994 112.894 19.0273 112.665 18.7051C112.442 18.377 112.161 18.1191 111.821 17.9316C111.487 17.7441 111.095 17.6504 110.644 17.6504C110.198 17.6504 109.806 17.7441 109.466 17.9316C109.132 18.1191 108.851 18.377 108.622 18.7051C108.399 19.0273 108.232 19.3994 108.121 19.8213C108.01 20.2373 107.954 20.6797 107.954 21.1484ZM119.195 26H117.569V15.6641C117.569 14.9434 117.71 14.334 117.991 13.8359C118.272 13.3379 118.674 12.96 119.195 12.7021C119.717 12.4443 120.335 12.3154 121.05 12.3154C121.472 12.3154 121.885 12.3682 122.289 12.4736C122.693 12.5732 123.109 12.6992 123.537 12.8516L123.265 14.2227C122.995 14.1172 122.682 14.0176 122.324 13.9238C121.973 13.8242 121.586 13.7744 121.164 13.7744C120.467 13.7744 119.963 13.9326 119.652 14.249C119.348 14.5596 119.195 15.0312 119.195 15.6641V26ZM121.138 16.4902V17.7383H116.066V16.4902H121.138ZM124.337 16.4902V26H122.711V16.4902H124.337ZM128.775 12.5V26H127.141V12.5H128.775ZM135.332 26.1758C134.67 26.1758 134.069 26.0645 133.53 25.8418C132.997 25.6133 132.537 25.2939 132.15 24.8838C131.77 24.4736 131.477 23.9873 131.271 23.4248C131.066 22.8623 130.964 22.2471 130.964 21.5791V21.21C130.964 20.4365 131.078 19.748 131.307 19.1445C131.535 18.5352 131.846 18.0195 132.238 17.5977C132.631 17.1758 133.076 16.8564 133.574 16.6396C134.072 16.4229 134.588 16.3145 135.121 16.3145C135.801 16.3145 136.387 16.4316 136.879 16.666C137.377 16.9004 137.784 17.2285 138.101 17.6504C138.417 18.0664 138.651 18.5586 138.804 19.127C138.956 19.6895 139.032 20.3047 139.032 20.9727V21.7021H131.931V20.375H137.406V20.252C137.383 19.8301 137.295 19.4199 137.143 19.0215C136.996 18.623 136.762 18.2949 136.439 18.0371C136.117 17.7793 135.678 17.6504 135.121 17.6504C134.752 17.6504 134.412 17.7295 134.102 17.8877C133.791 18.04 133.524 18.2686 133.302 18.5732C133.079 18.8779 132.906 19.25 132.783 19.6895C132.66 20.1289 132.599 20.6357 132.599 21.21V21.5791C132.599 22.0303 132.66 22.4551 132.783 22.8535C132.912 23.2461 133.097 23.5918 133.337 23.8906C133.583 24.1895 133.879 24.4238 134.225 24.5938C134.576 24.7637 134.975 24.8486 135.42 24.8486C135.994 24.8486 136.48 24.7314 136.879 24.4971C137.277 24.2627 137.626 23.9492 137.925 23.5566L138.909 24.3389C138.704 24.6494 138.443 24.9453 138.127 25.2266C137.811 25.5078 137.421 25.7363 136.958 25.9121C136.501 26.0879 135.959 26.1758 135.332 26.1758Z" fill="black" fill-opacity="0.5"/>
<rect width="40" height="40" rx="5" fill="black" fill-opacity="0.06"/>
<path d="M20.5 10C14.7009 10 10 14.7009 10 20.5C10 26.2991 14.7009 31 20.5 31C26.2991 31 31 26.2991 31 20.5C31 14.7009 26.2991 10 20.5 10Z" stroke="black" stroke-opacity="0.5" stroke-width="1.5" stroke-linecap="round" stroke-linejoin="round"/>
<path d="M12.3845 27.1633C12.3845 27.1633 14.725 24.175 20.5 24.175C26.275 24.175 28.6165 27.1633 28.6165 27.1633H12.3845ZM20.5 20.5C21.3354 20.5 22.1366 20.1681 22.7274 19.5774C23.3181 18.9867 23.65 18.1854 23.65 17.35C23.65 16.5146 23.3181 15.7134 22.7274 15.1226C22.1366 14.5319 21.3354 14.2 20.5 14.2C19.6645 14.2 18.8633 14.5319 18.2726 15.1226C17.6818 15.7134 17.35 16.5146 17.35 17.35C17.35 18.1854 17.6818 18.9867 18.2726 19.5774C18.8633 20.1681 19.6645 20.5 20.5 20.5Z" stroke="black" stroke-opacity="0.5" stroke-width="1.5" stroke-linecap="round" stroke-linejoin="round"/>
</svg>
