<svg width="152" height="40" viewBox="0 0 152 40" fill="none" xmlns="http://www.w3.org/2000/svg">
<path d="M68.9482 26H66.2764L66.2939 24.6201H68.9482C69.8623 24.6201 70.624 24.4297 71.2334 24.0488C71.8428 23.6621 72.2998 23.123 72.6045 22.4316C72.915 21.7344 73.0703 20.9199 73.0703 19.9883V19.2061C73.0703 18.4736 72.9824 17.8232 72.8066 17.2549C72.6309 16.6807 72.373 16.1973 72.0332 15.8047C71.6934 15.4062 71.2773 15.1045 70.7852 14.8994C70.2988 14.6943 69.7393 14.5918 69.1064 14.5918H66.2236V13.2031H69.1064C69.9443 13.2031 70.709 13.3438 71.4004 13.625C72.0918 13.9004 72.6865 14.3018 73.1846 14.8291C73.6885 15.3506 74.0752 15.9834 74.3447 16.7275C74.6143 17.4658 74.749 18.2979 74.749 19.2236V19.9883C74.749 20.9141 74.6143 21.749 74.3447 22.4932C74.0752 23.2314 73.6855 23.8613 73.1758 24.3828C72.6719 24.9043 72.0625 25.3057 71.3477 25.5869C70.6387 25.8623 69.8389 26 68.9482 26ZM67.1816 13.2031V26H65.4854V13.2031H67.1816ZM82.6592 24.374V19.4785C82.6592 19.1035 82.583 18.7783 82.4307 18.5029C82.2842 18.2217 82.0615 18.0049 81.7627 17.8525C81.4639 17.7002 81.0947 17.624 80.6553 17.624C80.2451 17.624 79.8848 17.6943 79.5742 17.835C79.2695 17.9756 79.0293 18.1602 78.8535 18.3887C78.6836 18.6172 78.5986 18.8633 78.5986 19.127H76.9727C76.9727 18.7871 77.0605 18.4502 77.2363 18.1162C77.4121 17.7822 77.6641 17.4805 77.9922 17.2109C78.3262 16.9355 78.7246 16.7188 79.1875 16.5605C79.6562 16.3965 80.1777 16.3145 80.752 16.3145C81.4434 16.3145 82.0527 16.4316 82.5801 16.666C83.1133 16.9004 83.5293 17.2549 83.8281 17.7295C84.1328 18.1982 84.2852 18.7871 84.2852 19.4961V23.9258C84.2852 24.2422 84.3115 24.5791 84.3643 24.9365C84.4229 25.2939 84.5078 25.6016 84.6191 25.8594V26H82.9229C82.8408 25.8125 82.7764 25.5635 82.7295 25.2529C82.6826 24.9365 82.6592 24.6436 82.6592 24.374ZM82.9404 20.2344L82.958 21.377H81.3145C80.8516 21.377 80.4385 21.415 80.0752 21.4912C79.7119 21.5615 79.4072 21.6699 79.1611 21.8164C78.915 21.9629 78.7275 22.1475 78.5986 22.3701C78.4697 22.5869 78.4053 22.8418 78.4053 23.1348C78.4053 23.4336 78.4727 23.7061 78.6074 23.9521C78.7422 24.1982 78.9443 24.3945 79.2139 24.541C79.4893 24.6816 79.8262 24.752 80.2246 24.752C80.7227 24.752 81.1621 24.6465 81.543 24.4355C81.9238 24.2246 82.2256 23.9668 82.4482 23.6621C82.6768 23.3574 82.7998 23.0615 82.8174 22.7744L83.5117 23.5566C83.4707 23.8027 83.3594 24.0752 83.1777 24.374C82.9961 24.6729 82.7529 24.96 82.4482 25.2354C82.1494 25.5049 81.792 25.7305 81.376 25.9121C80.9658 26.0879 80.5029 26.1758 79.9873 26.1758C79.3428 26.1758 78.7773 26.0498 78.291 25.7979C77.8105 25.5459 77.4355 25.209 77.166 24.7871C76.9023 24.3594 76.7705 23.8818 76.7705 23.3545C76.7705 22.8447 76.8701 22.3965 77.0693 22.0098C77.2686 21.6172 77.5557 21.292 77.9307 21.0342C78.3057 20.7705 78.7568 20.5713 79.2842 20.4365C79.8115 20.3018 80.4004 20.2344 81.0508 20.2344H82.9404ZM92.3799 23.4775C92.3799 23.2432 92.3271 23.0264 92.2217 22.8271C92.1221 22.6221 91.9141 22.4375 91.5977 22.2734C91.2871 22.1035 90.8184 21.957 90.1914 21.834C89.6641 21.7227 89.1865 21.5908 88.7588 21.4385C88.3369 21.2861 87.9766 21.1016 87.6777 20.8848C87.3848 20.668 87.1592 20.4131 87.001 20.1201C86.8428 19.8271 86.7637 19.4844 86.7637 19.0918C86.7637 18.7168 86.8457 18.3623 87.0098 18.0283C87.1797 17.6943 87.417 17.3984 87.7217 17.1406C88.0322 16.8828 88.4043 16.6807 88.8379 16.5342C89.2715 16.3877 89.7549 16.3145 90.2881 16.3145C91.0498 16.3145 91.7002 16.4492 92.2393 16.7188C92.7783 16.9883 93.1914 17.3486 93.4785 17.7998C93.7656 18.2451 93.9092 18.7402 93.9092 19.2852H92.2832C92.2832 19.0215 92.2041 18.7666 92.0459 18.5205C91.8936 18.2686 91.668 18.0605 91.3691 17.8965C91.0762 17.7324 90.7158 17.6504 90.2881 17.6504C89.8369 17.6504 89.4707 17.7207 89.1895 17.8613C88.9141 17.9961 88.7119 18.1689 88.583 18.3799C88.46 18.5908 88.3984 18.8135 88.3984 19.0479C88.3984 19.2236 88.4277 19.3818 88.4863 19.5225C88.5508 19.6572 88.6621 19.7832 88.8203 19.9004C88.9785 20.0117 89.2012 20.1172 89.4883 20.2168C89.7754 20.3164 90.1416 20.416 90.5869 20.5156C91.3662 20.6914 92.0078 20.9023 92.5117 21.1484C93.0156 21.3945 93.3906 21.6963 93.6367 22.0537C93.8828 22.4111 94.0059 22.8447 94.0059 23.3545C94.0059 23.7705 93.918 24.1514 93.7422 24.4971C93.5723 24.8428 93.3232 25.1416 92.9951 25.3936C92.6729 25.6396 92.2861 25.833 91.835 25.9736C91.3896 26.1084 90.8887 26.1758 90.332 26.1758C89.4941 26.1758 88.7852 26.0264 88.2051 25.7275C87.625 25.4287 87.1855 25.042 86.8867 24.5674C86.5879 24.0928 86.4385 23.5918 86.4385 23.0645H88.0732C88.0967 23.5098 88.2256 23.8643 88.46 24.1279C88.6943 24.3857 88.9814 24.5703 89.3213 24.6816C89.6611 24.7871 89.998 24.8398 90.332 24.8398C90.7773 24.8398 91.1494 24.7812 91.4482 24.6641C91.7529 24.5469 91.9844 24.3857 92.1426 24.1807C92.3008 23.9756 92.3799 23.7412 92.3799 23.4775ZM97.7676 12.5V26H96.1416V12.5H97.7676ZM97.3809 20.8848L96.7041 20.8584C96.71 20.208 96.8066 19.6074 96.9941 19.0566C97.1816 18.5 97.4453 18.0166 97.7852 17.6064C98.125 17.1963 98.5293 16.8799 98.998 16.6572C99.4727 16.4287 99.9971 16.3145 100.571 16.3145C101.04 16.3145 101.462 16.3789 101.837 16.5078C102.212 16.6309 102.531 16.8301 102.795 17.1055C103.064 17.3809 103.27 17.7383 103.41 18.1777C103.551 18.6113 103.621 19.1416 103.621 19.7686V26H101.986V19.751C101.986 19.2529 101.913 18.8545 101.767 18.5557C101.62 18.251 101.406 18.0312 101.125 17.8965C100.844 17.7559 100.498 17.6855 100.088 17.6855C99.6836 17.6855 99.3145 17.7705 98.9805 17.9404C98.6523 18.1104 98.3682 18.3447 98.1279 18.6436C97.8936 18.9424 97.709 19.2852 97.5742 19.6719C97.4453 20.0527 97.3809 20.457 97.3809 20.8848ZM106.047 12.5H107.682V24.1543L107.541 26H106.047V12.5ZM114.106 21.166V21.3506C114.106 22.042 114.024 22.6836 113.86 23.2754C113.696 23.8613 113.456 24.3711 113.14 24.8047C112.823 25.2383 112.437 25.5752 111.979 25.8154C111.522 26.0557 110.998 26.1758 110.406 26.1758C109.803 26.1758 109.272 26.0732 108.815 25.8682C108.364 25.6572 107.983 25.3555 107.673 24.9629C107.362 24.5703 107.113 24.0957 106.926 23.5391C106.744 22.9824 106.618 22.3555 106.548 21.6582V20.8496C106.618 20.1465 106.744 19.5166 106.926 18.96C107.113 18.4033 107.362 17.9287 107.673 17.5361C107.983 17.1377 108.364 16.8359 108.815 16.6309C109.267 16.4199 109.791 16.3145 110.389 16.3145C110.986 16.3145 111.517 16.4316 111.979 16.666C112.442 16.8945 112.829 17.2227 113.14 17.6504C113.456 18.0781 113.696 18.5908 113.86 19.1885C114.024 19.7803 114.106 20.4395 114.106 21.166ZM112.472 21.3506V21.166C112.472 20.6914 112.428 20.2461 112.34 19.8301C112.252 19.4082 112.111 19.0391 111.918 18.7227C111.725 18.4004 111.47 18.1484 111.153 17.9668C110.837 17.7793 110.447 17.6855 109.984 17.6855C109.574 17.6855 109.217 17.7559 108.912 17.8965C108.613 18.0371 108.358 18.2275 108.147 18.4678C107.937 18.7021 107.764 18.9717 107.629 19.2764C107.5 19.5752 107.403 19.8857 107.339 20.208V22.3262C107.433 22.7363 107.585 23.1318 107.796 23.5127C108.013 23.8877 108.3 24.1953 108.657 24.4355C109.021 24.6758 109.469 24.7959 110.002 24.7959C110.441 24.7959 110.816 24.708 111.127 24.5322C111.443 24.3506 111.698 24.1016 111.892 23.7852C112.091 23.4688 112.237 23.1025 112.331 22.6865C112.425 22.2705 112.472 21.8252 112.472 21.3506ZM115.732 21.3506V21.1484C115.732 20.4629 115.832 19.8271 116.031 19.2412C116.23 18.6494 116.518 18.1367 116.893 17.7031C117.268 17.2637 117.722 16.9238 118.255 16.6836C118.788 16.4375 119.386 16.3145 120.048 16.3145C120.716 16.3145 121.316 16.4375 121.85 16.6836C122.389 16.9238 122.846 17.2637 123.221 17.7031C123.602 18.1367 123.892 18.6494 124.091 19.2412C124.29 19.8271 124.39 20.4629 124.39 21.1484V21.3506C124.39 22.0361 124.29 22.6719 124.091 23.2578C123.892 23.8438 123.602 24.3564 123.221 24.7959C122.846 25.2295 122.392 25.5693 121.858 25.8154C121.331 26.0557 120.733 26.1758 120.065 26.1758C119.397 26.1758 118.797 26.0557 118.264 25.8154C117.73 25.5693 117.273 25.2295 116.893 24.7959C116.518 24.3564 116.23 23.8438 116.031 23.2578C115.832 22.6719 115.732 22.0361 115.732 21.3506ZM117.358 21.1484V21.3506C117.358 21.8252 117.414 22.2734 117.525 22.6953C117.637 23.1113 117.804 23.4805 118.026 23.8027C118.255 24.125 118.539 24.3799 118.879 24.5674C119.219 24.749 119.614 24.8398 120.065 24.8398C120.511 24.8398 120.9 24.749 121.234 24.5674C121.574 24.3799 121.855 24.125 122.078 23.8027C122.301 23.4805 122.468 23.1113 122.579 22.6953C122.696 22.2734 122.755 21.8252 122.755 21.3506V21.1484C122.755 20.6797 122.696 20.2373 122.579 19.8213C122.468 19.3994 122.298 19.0273 122.069 18.7051C121.847 18.377 121.565 18.1191 121.226 17.9316C120.892 17.7441 120.499 17.6504 120.048 17.6504C119.603 17.6504 119.21 17.7441 118.87 17.9316C118.536 18.1191 118.255 18.377 118.026 18.7051C117.804 19.0273 117.637 19.3994 117.525 19.8213C117.414 20.2373 117.358 20.6797 117.358 21.1484ZM132.036 24.374V19.4785C132.036 19.1035 131.96 18.7783 131.808 18.5029C131.661 18.2217 131.438 18.0049 131.14 17.8525C130.841 17.7002 130.472 17.624 130.032 17.624C129.622 17.624 129.262 17.6943 128.951 17.835C128.646 17.9756 128.406 18.1602 128.23 18.3887C128.061 18.6172 127.976 18.8633 127.976 19.127H126.35C126.35 18.7871 126.438 18.4502 126.613 18.1162C126.789 17.7822 127.041 17.4805 127.369 17.2109C127.703 16.9355 128.102 16.7188 128.564 16.5605C129.033 16.3965 129.555 16.3145 130.129 16.3145C130.82 16.3145 131.43 16.4316 131.957 16.666C132.49 16.9004 132.906 17.2549 133.205 17.7295C133.51 18.1982 133.662 18.7871 133.662 19.4961V23.9258C133.662 24.2422 133.688 24.5791 133.741 24.9365C133.8 25.2939 133.885 25.6016 133.996 25.8594V26H132.3C132.218 25.8125 132.153 25.5635 132.106 25.2529C132.06 24.9365 132.036 24.6436 132.036 24.374ZM132.317 20.2344L132.335 21.377H130.691C130.229 21.377 129.815 21.415 129.452 21.4912C129.089 21.5615 128.784 21.6699 128.538 21.8164C128.292 21.9629 128.104 22.1475 127.976 22.3701C127.847 22.5869 127.782 22.8418 127.782 23.1348C127.782 23.4336 127.85 23.7061 127.984 23.9521C128.119 24.1982 128.321 24.3945 128.591 24.541C128.866 24.6816 129.203 24.752 129.602 24.752C130.1 24.752 130.539 24.6465 130.92 24.4355C131.301 24.2246 131.603 23.9668 131.825 23.6621C132.054 23.3574 132.177 23.0615 132.194 22.7744L132.889 23.5566C132.848 23.8027 132.736 24.0752 132.555 24.374C132.373 24.6729 132.13 24.96 131.825 25.2354C131.526 25.5049 131.169 25.7305 130.753 25.9121C130.343 26.0879 129.88 26.1758 129.364 26.1758C128.72 26.1758 128.154 26.0498 127.668 25.7979C127.188 25.5459 126.812 25.209 126.543 24.7871C126.279 24.3594 126.147 23.8818 126.147 23.3545C126.147 22.8447 126.247 22.3965 126.446 22.0098C126.646 21.6172 126.933 21.292 127.308 21.0342C127.683 20.7705 128.134 20.5713 128.661 20.4365C129.188 20.3018 129.777 20.2344 130.428 20.2344H132.317ZM137.846 17.9844V26H136.22V16.4902H137.802L137.846 17.9844ZM140.816 16.4375L140.808 17.9492C140.673 17.9199 140.544 17.9023 140.421 17.8965C140.304 17.8848 140.169 17.8789 140.017 17.8789C139.642 17.8789 139.311 17.9375 139.023 18.0547C138.736 18.1719 138.493 18.3359 138.294 18.5469C138.095 18.7578 137.937 19.0098 137.819 19.3027C137.708 19.5898 137.635 19.9062 137.6 20.252L137.143 20.5156C137.143 19.9414 137.198 19.4023 137.31 18.8984C137.427 18.3945 137.605 17.9492 137.846 17.5625C138.086 17.1699 138.391 16.8652 138.76 16.6484C139.135 16.4258 139.58 16.3145 140.096 16.3145C140.213 16.3145 140.348 16.3291 140.5 16.3584C140.652 16.3818 140.758 16.4082 140.816 16.4375ZM148.138 24.1543V12.5H149.772V26H148.278L148.138 24.1543ZM141.739 21.3506V21.166C141.739 20.4395 141.827 19.7803 142.003 19.1885C142.185 18.5908 142.439 18.0781 142.768 17.6504C143.102 17.2227 143.497 16.8945 143.954 16.666C144.417 16.4316 144.933 16.3145 145.501 16.3145C146.099 16.3145 146.62 16.4199 147.065 16.6309C147.517 16.8359 147.897 17.1377 148.208 17.5361C148.524 17.9287 148.773 18.4033 148.955 18.96C149.137 19.5166 149.263 20.1465 149.333 20.8496V21.6582C149.269 22.3555 149.143 22.9824 148.955 23.5391C148.773 24.0957 148.524 24.5703 148.208 24.9629C147.897 25.3555 147.517 25.6572 147.065 25.8682C146.614 26.0732 146.087 26.1758 145.483 26.1758C144.927 26.1758 144.417 26.0557 143.954 25.8154C143.497 25.5752 143.102 25.2383 142.768 24.8047C142.439 24.3711 142.185 23.8613 142.003 23.2754C141.827 22.6836 141.739 22.042 141.739 21.3506ZM143.374 21.166V21.3506C143.374 21.8252 143.421 22.2705 143.515 22.6865C143.614 23.1025 143.767 23.4688 143.972 23.7852C144.177 24.1016 144.438 24.3506 144.754 24.5322C145.07 24.708 145.448 24.7959 145.888 24.7959C146.427 24.7959 146.869 24.6816 147.215 24.4531C147.566 24.2246 147.848 23.9229 148.059 23.5479C148.27 23.1729 148.434 22.7656 148.551 22.3262V20.208C148.48 19.8857 148.378 19.5752 148.243 19.2764C148.114 18.9717 147.944 18.7021 147.733 18.4678C147.528 18.2275 147.273 18.0371 146.969 17.8965C146.67 17.7559 146.315 17.6855 145.905 17.6855C145.46 17.6855 145.076 17.7793 144.754 17.9668C144.438 18.1484 144.177 18.4004 143.972 18.7227C143.767 19.0391 143.614 19.4082 143.515 19.8301C143.421 20.2461 143.374 20.6914 143.374 21.166Z" fill="#009317"/>
<rect width="40" height="40" rx="5" fill="#009317" fill-opacity="0.15"/>
<path d="M13.5 21.375H18.75C18.9821 21.375 19.2046 21.2828 19.3687 21.1187C19.5328 20.9546 19.625 20.7321 19.625 20.5V13.5C19.625 13.2679 19.5328 13.0454 19.3687 12.8813C19.2046 12.7172 18.9821 12.625 18.75 12.625H13.5C13.2679 12.625 13.0454 12.7172 12.8813 12.8813C12.7172 13.0454 12.625 13.2679 12.625 13.5V20.5C12.625 20.7321 12.7172 20.9546 12.8813 21.1187C13.0454 21.2828 13.2679 21.375 13.5 21.375ZM12.625 27.5C12.625 27.7321 12.7172 27.9546 12.8813 28.1187C13.0454 28.2828 13.2679 28.375 13.5 28.375H18.75C18.9821 28.375 19.2046 28.2828 19.3687 28.1187C19.5328 27.9546 19.625 27.7321 19.625 27.5V24C19.625 23.7679 19.5328 23.5454 19.3687 23.3813C19.2046 23.2172 18.9821 23.125 18.75 23.125H13.5C13.2679 23.125 13.0454 23.2172 12.8813 23.3813C12.7172 23.5454 12.625 23.7679 12.625 24V27.5ZM21.375 27.5C21.375 27.7321 21.4672 27.9546 21.6313 28.1187C21.7954 28.2828 22.0179 28.375 22.25 28.375H27.5C27.7321 28.375 27.9546 28.2828 28.1187 28.1187C28.2828 27.9546 28.375 27.7321 28.375 27.5V21.375C28.375 21.1429 28.2828 20.9204 28.1187 20.7563C27.9546 20.5922 27.7321 20.5 27.5 20.5H22.25C22.0179 20.5 21.7954 20.5922 21.6313 20.7563C21.4672 20.9204 21.375 21.1429 21.375 21.375V27.5ZM22.25 18.75H27.5C27.7321 18.75 27.9546 18.6578 28.1187 18.4937C28.2828 18.3296 28.375 18.1071 28.375 17.875V13.5C28.375 13.2679 28.2828 13.0454 28.1187 12.8813C27.9546 12.7172 27.7321 12.625 27.5 12.625H22.25C22.0179 12.625 21.7954 12.7172 21.6313 12.8813C21.4672 13.0454 21.375 13.2679 21.375 13.5V17.875C21.375 18.1071 21.4672 18.3296 21.6313 18.4937C21.7954 18.6578 22.0179 18.75 22.25 18.75Z" fill="#009317"/>
</svg>
