<svg width="80" height="80" viewBox="0 0 80 80" fill="none" xmlns="http://www.w3.org/2000/svg">
<g filter="url(#filter0_d_47_111)">
<rect x="10" y="6" width="60" height="60" rx="5" fill="#FDF6EF"/>
</g>
<path d="M40.8749 35.75H43.4999V34H41.9999V33.125H40.4999V34.0438C40.0443 34.1517 39.6392 34.4533 39.3634 34.8901C39.0876 35.3269 38.9608 35.8676 39.0075 36.4073C39.0543 36.9471 39.2712 37.4473 39.6163 37.8109C39.9614 38.1745 40.41 38.3755 40.8749 38.375H41.6249C41.7244 38.375 41.8198 38.4211 41.8901 38.5031C41.9604 38.5852 41.9999 38.6965 41.9999 38.8125C41.9999 38.9285 41.9604 39.0398 41.8901 39.1219C41.8198 39.2039 41.7244 39.25 41.6249 39.25H38.9999V41H40.4999V41.875H41.9999V40.9563C42.4556 40.8483 42.8607 40.5467 43.1364 40.1099C43.4122 39.6731 43.5391 39.1324 43.4923 38.5927C43.4456 38.0529 43.2286 37.5527 42.8836 37.1891C42.5385 36.8255 42.0899 36.6245 41.6249 36.625H40.8749C40.7755 36.625 40.6801 36.5789 40.6098 36.4969C40.5394 36.4148 40.4999 36.3035 40.4999 36.1875C40.4999 36.0715 40.5394 35.9602 40.6098 35.8781C40.6801 35.7961 40.7755 35.75 40.8749 35.75Z" fill="#AE766A"/>
<path d="M50.25 34.875H48.735C48.7134 34.1837 48.5705 33.5049 48.3151 32.8806C48.0597 32.2563 47.6972 31.6998 47.25 31.2455V27.875C47.25 27.7125 47.2112 27.5532 47.138 27.415C47.0648 27.2768 46.96 27.165 46.8354 27.0924C46.7108 27.0197 46.5714 26.9889 46.4326 27.0035C46.2939 27.0181 46.1614 27.0775 46.05 27.175L43.2502 29.625H39.75C35.6175 29.625 32.6528 32.4609 32.289 36.625H32.25C32.0511 36.625 31.8603 36.5328 31.7197 36.3687C31.579 36.2046 31.5 35.9821 31.5 35.75V34H30V35.75C30.0006 36.446 30.2378 37.1133 30.6597 37.6054C31.0815 38.0975 31.6534 38.3743 32.25 38.375H32.3025C32.4113 39.5224 32.7309 40.6288 33.2396 41.619C33.7482 42.6091 34.434 43.4596 35.25 44.1124V47.125C35.25 47.3571 35.329 47.5796 35.4697 47.7437C35.6103 47.9078 35.8011 48 36 48H39C39.1989 48 39.3897 47.9078 39.5303 47.7437C39.671 47.5796 39.75 47.3571 39.75 47.125V45.375H42V47.125C42 47.3571 42.079 47.5796 42.2197 47.7437C42.3603 47.9078 42.5511 48 42.75 48H45.75C45.9489 48 46.1397 47.9078 46.2803 47.7437C46.421 47.5796 46.5 47.3571 46.5 47.125V44.1824C47.0418 43.8827 47.5155 43.4385 47.8828 42.8856C48.2501 42.3328 48.5006 41.6868 48.6143 41H50.25C50.4489 41 50.6397 40.9078 50.7803 40.7437C50.921 40.5796 51 40.3571 51 40.125V35.75C51 35.5179 50.921 35.2954 50.7803 35.1313C50.6397 34.9672 50.4489 34.875 50.25 34.875ZM49.5 39.25H47.343C47.1143 41.6589 46.725 42.2994 45 43.0256V46.25H43.5V43.625H38.25V46.25H36.75V43.0807C35.8469 42.5795 35.0851 41.7883 34.5537 40.7998C34.0224 39.8114 33.7436 38.6667 33.75 37.5C33.75 33.2694 36.7635 31.375 39.75 31.375H43.7498L45.75 29.625V32.054C47.5635 33.6815 47.1847 34.8418 47.2635 36.625H49.5V39.25Z" fill="#AE766A"/>
<defs>
<filter id="filter0_d_47_111" x="0" y="0" width="80" height="80" filterUnits="userSpaceOnUse" color-interpolation-filters="sRGB">
<feFlood flood-opacity="0" result="BackgroundImageFix"/>
<feColorMatrix in="SourceAlpha" type="matrix" values="0 0 0 0 0 0 0 0 0 0 0 0 0 0 0 0 0 0 127 0" result="hardAlpha"/>
<feOffset dy="4"/>
<feGaussianBlur stdDeviation="5"/>
<feComposite in2="hardAlpha" operator="out"/>
<feColorMatrix type="matrix" values="0 0 0 0 0 0 0 0 0 0 0 0 0 0 0 0 0 0 0.13 0"/>
<feBlend mode="normal" in2="BackgroundImageFix" result="effect1_dropShadow_47_111"/>
<feBlend mode="normal" in="SourceGraphic" in2="effect1_dropShadow_47_111" result="shape"/>
</filter>
</defs>
</svg>
