<svg width="321" height="163" viewBox="0 0 321 163" fill="none" xmlns="http://www.w3.org/2000/svg">
<g filter="url(#filter0_d_71_166)">
<rect x="10" y="6" width="301" height="143" fill="#76A1E1"/>
</g>
<path d="M267.791 16.5956C266.943 18.1706 267.599 19.7456 268.303 20.2881C269.008 20.8306 274.888 25 276.069 25.7656C277.941 27.0125 278.226 29.5938 278.226 29.5938M272.669 19.785C272.669 19.785 274.936 19.4175 275.391 19.4175C275.844 19.4761 276.286 19.5999 276.703 19.785V17.9125H275.627C275.303 17.9125 275.119 18.35 274.594 18.35C274.201 18.35 273.575 17.9125 273.575 17.4444C273.575 16.9762 273.492 16.5694 274.45 16.5694H276.69V14.3119H271.125V13.4062H269.834C269.555 13.4398 269.294 13.5655 269.094 13.7635C268.893 13.9615 268.764 14.2207 268.728 14.5C268.728 14.9813 269.038 15.7162 269.69 15.7162L272.669 19.785ZM267.336 21.3162C267.188 22.5369 267.45 23.3288 268.063 23.81C268.675 24.2913 271.681 26.3125 273.208 27.4106C273.842 27.8869 274.34 28.5222 274.651 29.2525L267.336 21.3162Z" stroke="#F3ED5B" stroke-width="0.4375" stroke-linecap="round" stroke-linejoin="round"/>
<path d="M273.654 20.5024C274.241 21.1188 274.702 21.8441 275.01 22.6374M270.066 25.2187C270.601 25.8532 271.021 26.5755 271.309 27.3537L270.066 25.2187ZM270.066 21.5699C270.6 22.2064 271.021 22.9301 271.309 23.7093L270.066 21.5699ZM273.369 23.8974C273.91 24.5301 274.335 25.2527 274.625 26.0324L273.369 23.8974Z" stroke="#F3ED5B" stroke-width="0.4375" stroke-linecap="round" stroke-linejoin="round"/>
<path d="M270.504 17.4794C270.617 18.2931 271.816 19.1681 272.691 19.785C273.658 20.4981 275.815 22.0381 277.066 22.9219C277.941 23.5606 277.823 25.2187 277.823 25.2187" stroke="#F3ED5B" stroke-width="0.4375" stroke-linecap="round" stroke-linejoin="round"/>
<path d="M277.95 28.4301C278.567 28.1894 280.549 27.9926 281.669 27.9926C282.018 28.0089 282.358 28.1021 282.667 28.2655C282.975 28.4289 283.244 28.6583 283.454 28.9376M274.918 21.4126L278.169 19.4613H281.586L283.454 20.5638L282.518 22.0601L274.918 21.4126Z" stroke="#F3ED5B" stroke-width="0.4375" stroke-linecap="round" stroke-linejoin="round"/>
<path d="M277.023 22.9219C277.858 21.9813 278.593 21.2288 280.011 21.2288C281.656 21.2288 283.712 22.4056 283.712 24.8031C283.739 25.4585 283.578 26.108 283.249 26.6752C282.919 27.2425 282.435 27.704 281.853 28.0056" stroke="#F3ED5B" stroke-width="0.4375" stroke-linecap="round" stroke-linejoin="round"/>
<path d="M279.324 21.2987C278.914 22.615 278.758 23.9973 278.864 25.3718M280.702 21.2987C281.371 22.9875 281.577 24.4925 280.947 26.9862L280.702 21.2987Z" stroke="#F3ED5B" stroke-width="0.4375" stroke-linecap="round" stroke-linejoin="round"/>
<path d="M272.967 14.3119V15.69L272.201 15.3925M283.209 22.9525C281.896 23.0313 278.169 23.0181 278.169 23.0181L283.209 22.9525ZM283.712 24.8031H278.825H283.712ZM283.454 26.3913H280.207H283.454ZM281.516 21.5394L281.739 21.0056L281.266 20.4369L281.516 21.5394Z" stroke="#F3ED5B" stroke-width="0.4375" stroke-linecap="round" stroke-linejoin="round"/>
<path d="M94.6729 75.4014H95.5752C96.0173 75.4014 96.3818 75.3285 96.6689 75.1826C96.9606 75.0322 97.1771 74.8294 97.3184 74.5742C97.4642 74.3145 97.5371 74.0228 97.5371 73.6992C97.5371 73.3164 97.4733 72.9951 97.3457 72.7354C97.2181 72.4756 97.0267 72.2796 96.7715 72.1475C96.5163 72.0153 96.1927 71.9492 95.8008 71.9492C95.4453 71.9492 95.1309 72.0199 94.8574 72.1611C94.5885 72.2979 94.3766 72.4938 94.2217 72.749C94.0713 73.0042 93.9961 73.305 93.9961 73.6514H92.7314C92.7314 73.1455 92.859 72.6852 93.1143 72.2705C93.3695 71.8558 93.7272 71.5254 94.1875 71.2793C94.6523 71.0332 95.1901 70.9102 95.8008 70.9102C96.4023 70.9102 96.9287 71.0173 97.3799 71.2314C97.8311 71.4411 98.182 71.7555 98.4326 72.1748C98.6833 72.5895 98.8086 73.1068 98.8086 73.7266C98.8086 73.9772 98.7493 74.2461 98.6309 74.5332C98.5169 74.8158 98.3369 75.0801 98.0908 75.3262C97.8493 75.5723 97.5348 75.7751 97.1475 75.9346C96.7601 76.0895 96.2952 76.167 95.7529 76.167H94.6729V75.4014ZM94.6729 76.4404V75.6816H95.7529C96.3864 75.6816 96.9105 75.7568 97.3252 75.9072C97.7399 76.0576 98.0658 76.2581 98.3027 76.5088C98.5443 76.7594 98.7129 77.0352 98.8086 77.3359C98.9089 77.6322 98.959 77.9284 98.959 78.2246C98.959 78.6895 98.8792 79.1019 98.7197 79.4619C98.5648 79.8219 98.3438 80.1273 98.0566 80.3779C97.7741 80.6286 97.4414 80.8177 97.0586 80.9453C96.6758 81.0729 96.2588 81.1367 95.8076 81.1367C95.3747 81.1367 94.9668 81.0752 94.584 80.9521C94.2057 80.8291 93.8708 80.6514 93.5791 80.4189C93.2874 80.182 93.0596 79.8926 92.8955 79.5508C92.7314 79.2044 92.6494 78.8102 92.6494 78.3682H93.9141C93.9141 78.7145 93.9893 79.0176 94.1396 79.2773C94.2946 79.5371 94.5133 79.7399 94.7959 79.8857C95.083 80.027 95.4202 80.0977 95.8076 80.0977C96.195 80.0977 96.5277 80.0316 96.8057 79.8994C97.0882 79.7627 97.3047 79.5576 97.4551 79.2842C97.61 79.0107 97.6875 78.6667 97.6875 78.252C97.6875 77.8372 97.6009 77.4977 97.4277 77.2334C97.2546 76.9645 97.0085 76.7663 96.6895 76.6387C96.375 76.5065 96.0036 76.4404 95.5752 76.4404H94.6729ZM107.429 77.6504V78.6895H100.237V77.9443L104.694 71.0469H105.727L104.619 73.043L101.673 77.6504H107.429ZM106.041 71.0469V81H104.776V71.0469H106.041ZM110.423 75.4014H111.325C111.767 75.4014 112.132 75.3285 112.419 75.1826C112.711 75.0322 112.927 74.8294 113.068 74.5742C113.214 74.3145 113.287 74.0228 113.287 73.6992C113.287 73.3164 113.223 72.9951 113.096 72.7354C112.968 72.4756 112.777 72.2796 112.521 72.1475C112.266 72.0153 111.943 71.9492 111.551 71.9492C111.195 71.9492 110.881 72.0199 110.607 72.1611C110.339 72.2979 110.127 72.4938 109.972 72.749C109.821 73.0042 109.746 73.305 109.746 73.6514H108.481C108.481 73.1455 108.609 72.6852 108.864 72.2705C109.119 71.8558 109.477 71.5254 109.938 71.2793C110.402 71.0332 110.94 70.9102 111.551 70.9102C112.152 70.9102 112.679 71.0173 113.13 71.2314C113.581 71.4411 113.932 71.7555 114.183 72.1748C114.433 72.5895 114.559 73.1068 114.559 73.7266C114.559 73.9772 114.499 74.2461 114.381 74.5332C114.267 74.8158 114.087 75.0801 113.841 75.3262C113.599 75.5723 113.285 75.7751 112.897 75.9346C112.51 76.0895 112.045 76.167 111.503 76.167H110.423V75.4014ZM110.423 76.4404V75.6816H111.503C112.136 75.6816 112.66 75.7568 113.075 75.9072C113.49 76.0576 113.816 76.2581 114.053 76.5088C114.294 76.7594 114.463 77.0352 114.559 77.3359C114.659 77.6322 114.709 77.9284 114.709 78.2246C114.709 78.6895 114.629 79.1019 114.47 79.4619C114.315 79.8219 114.094 80.1273 113.807 80.3779C113.524 80.6286 113.191 80.8177 112.809 80.9453C112.426 81.0729 112.009 81.1367 111.558 81.1367C111.125 81.1367 110.717 81.0752 110.334 80.9521C109.956 80.8291 109.621 80.6514 109.329 80.4189C109.037 80.182 108.81 79.8926 108.646 79.5508C108.481 79.2044 108.399 78.8102 108.399 78.3682H109.664C109.664 78.7145 109.739 79.0176 109.89 79.2773C110.045 79.5371 110.263 79.7399 110.546 79.8857C110.833 80.027 111.17 80.0977 111.558 80.0977C111.945 80.0977 112.278 80.0316 112.556 79.8994C112.838 79.7627 113.055 79.5576 113.205 79.2842C113.36 79.0107 113.438 78.6667 113.438 78.252C113.438 77.8372 113.351 77.4977 113.178 77.2334C113.005 76.9645 112.758 76.7663 112.439 76.6387C112.125 76.5065 111.754 76.4404 111.325 76.4404H110.423ZM118.298 75.4014H119.2C119.642 75.4014 120.007 75.3285 120.294 75.1826C120.586 75.0322 120.802 74.8294 120.943 74.5742C121.089 74.3145 121.162 74.0228 121.162 73.6992C121.162 73.3164 121.098 72.9951 120.971 72.7354C120.843 72.4756 120.652 72.2796 120.396 72.1475C120.141 72.0153 119.818 71.9492 119.426 71.9492C119.07 71.9492 118.756 72.0199 118.482 72.1611C118.214 72.2979 118.002 72.4938 117.847 72.749C117.696 73.0042 117.621 73.305 117.621 73.6514H116.356C116.356 73.1455 116.484 72.6852 116.739 72.2705C116.994 71.8558 117.352 71.5254 117.812 71.2793C118.277 71.0332 118.815 70.9102 119.426 70.9102C120.027 70.9102 120.554 71.0173 121.005 71.2314C121.456 71.4411 121.807 71.7555 122.058 72.1748C122.308 72.5895 122.434 73.1068 122.434 73.7266C122.434 73.9772 122.374 74.2461 122.256 74.5332C122.142 74.8158 121.962 75.0801 121.716 75.3262C121.474 75.5723 121.16 75.7751 120.772 75.9346C120.385 76.0895 119.92 76.167 119.378 76.167H118.298V75.4014ZM118.298 76.4404V75.6816H119.378C120.011 75.6816 120.535 75.7568 120.95 75.9072C121.365 76.0576 121.691 76.2581 121.928 76.5088C122.169 76.7594 122.338 77.0352 122.434 77.3359C122.534 77.6322 122.584 77.9284 122.584 78.2246C122.584 78.6895 122.504 79.1019 122.345 79.4619C122.19 79.8219 121.969 80.1273 121.682 80.3779C121.399 80.6286 121.066 80.8177 120.684 80.9453C120.301 81.0729 119.884 81.1367 119.433 81.1367C119 81.1367 118.592 81.0752 118.209 80.9521C117.831 80.8291 117.496 80.6514 117.204 80.4189C116.912 80.182 116.685 79.8926 116.521 79.5508C116.356 79.2044 116.274 78.8102 116.274 78.3682H117.539C117.539 78.7145 117.614 79.0176 117.765 79.2773C117.92 79.5371 118.138 79.7399 118.421 79.8857C118.708 80.027 119.045 80.0977 119.433 80.0977C119.82 80.0977 120.153 80.0316 120.431 79.8994C120.713 79.7627 120.93 79.5576 121.08 79.2842C121.235 79.0107 121.312 78.6667 121.312 78.252C121.312 77.8372 121.226 77.4977 121.053 77.2334C120.88 76.9645 120.633 76.7663 120.314 76.6387C120 76.5065 119.629 76.4404 119.2 76.4404H118.298ZM129.646 75.4014H130.548C130.99 75.4014 131.354 75.3285 131.642 75.1826C131.933 75.0322 132.15 74.8294 132.291 74.5742C132.437 74.3145 132.51 74.0228 132.51 73.6992C132.51 73.3164 132.446 72.9951 132.318 72.7354C132.191 72.4756 131.999 72.2796 131.744 72.1475C131.489 72.0153 131.165 71.9492 130.773 71.9492C130.418 71.9492 130.104 72.0199 129.83 72.1611C129.561 72.2979 129.349 72.4938 129.194 72.749C129.044 73.0042 128.969 73.305 128.969 73.6514H127.704C127.704 73.1455 127.832 72.6852 128.087 72.2705C128.342 71.8558 128.7 71.5254 129.16 71.2793C129.625 71.0332 130.163 70.9102 130.773 70.9102C131.375 70.9102 131.901 71.0173 132.353 71.2314C132.804 71.4411 133.155 71.7555 133.405 72.1748C133.656 72.5895 133.781 73.1068 133.781 73.7266C133.781 73.9772 133.722 74.2461 133.604 74.5332C133.49 74.8158 133.31 75.0801 133.063 75.3262C132.822 75.5723 132.507 75.7751 132.12 75.9346C131.733 76.0895 131.268 76.167 130.726 76.167H129.646V75.4014ZM129.646 76.4404V75.6816H130.726C131.359 75.6816 131.883 75.7568 132.298 75.9072C132.713 76.0576 133.038 76.2581 133.275 76.5088C133.517 76.7594 133.686 77.0352 133.781 77.3359C133.882 77.6322 133.932 77.9284 133.932 78.2246C133.932 78.6895 133.852 79.1019 133.692 79.4619C133.537 79.8219 133.316 80.1273 133.029 80.3779C132.747 80.6286 132.414 80.8177 132.031 80.9453C131.648 81.0729 131.231 81.1367 130.78 81.1367C130.347 81.1367 129.939 81.0752 129.557 80.9521C129.178 80.8291 128.843 80.6514 128.552 80.4189C128.26 80.182 128.032 79.8926 127.868 79.5508C127.704 79.2044 127.622 78.8102 127.622 78.3682H128.887C128.887 78.7145 128.962 79.0176 129.112 79.2773C129.267 79.5371 129.486 79.7399 129.769 79.8857C130.056 80.027 130.393 80.0977 130.78 80.0977C131.168 80.0977 131.5 80.0316 131.778 79.8994C132.061 79.7627 132.277 79.5576 132.428 79.2842C132.583 79.0107 132.66 78.6667 132.66 78.252C132.66 77.8372 132.574 77.4977 132.4 77.2334C132.227 76.9645 131.981 76.7663 131.662 76.6387C131.348 76.5065 130.976 76.4404 130.548 76.4404H129.646ZM142.401 77.6504V78.6895H135.21V77.9443L139.667 71.0469H140.699L139.592 73.043L136.646 77.6504H142.401ZM141.014 71.0469V81H139.749V71.0469H141.014ZM145.396 75.4014H146.298C146.74 75.4014 147.104 75.3285 147.392 75.1826C147.683 75.0322 147.9 74.8294 148.041 74.5742C148.187 74.3145 148.26 74.0228 148.26 73.6992C148.26 73.3164 148.196 72.9951 148.068 72.7354C147.941 72.4756 147.749 72.2796 147.494 72.1475C147.239 72.0153 146.915 71.9492 146.523 71.9492C146.168 71.9492 145.854 72.0199 145.58 72.1611C145.311 72.2979 145.099 72.4938 144.944 72.749C144.794 73.0042 144.719 73.305 144.719 73.6514H143.454C143.454 73.1455 143.582 72.6852 143.837 72.2705C144.092 71.8558 144.45 71.5254 144.91 71.2793C145.375 71.0332 145.913 70.9102 146.523 70.9102C147.125 70.9102 147.651 71.0173 148.103 71.2314C148.554 71.4411 148.905 71.7555 149.155 72.1748C149.406 72.5895 149.531 73.1068 149.531 73.7266C149.531 73.9772 149.472 74.2461 149.354 74.5332C149.24 74.8158 149.06 75.0801 148.813 75.3262C148.572 75.5723 148.257 75.7751 147.87 75.9346C147.483 76.0895 147.018 76.167 146.476 76.167H145.396V75.4014ZM145.396 76.4404V75.6816H146.476C147.109 75.6816 147.633 75.7568 148.048 75.9072C148.463 76.0576 148.788 76.2581 149.025 76.5088C149.267 76.7594 149.436 77.0352 149.531 77.3359C149.632 77.6322 149.682 77.9284 149.682 78.2246C149.682 78.6895 149.602 79.1019 149.442 79.4619C149.287 79.8219 149.066 80.1273 148.779 80.3779C148.497 80.6286 148.164 80.8177 147.781 80.9453C147.398 81.0729 146.981 81.1367 146.53 81.1367C146.097 81.1367 145.689 81.0752 145.307 80.9521C144.928 80.8291 144.593 80.6514 144.302 80.4189C144.01 80.182 143.782 79.8926 143.618 79.5508C143.454 79.2044 143.372 78.8102 143.372 78.3682H144.637C144.637 78.7145 144.712 79.0176 144.862 79.2773C145.017 79.5371 145.236 79.7399 145.519 79.8857C145.806 80.027 146.143 80.0977 146.53 80.0977C146.918 80.0977 147.25 80.0316 147.528 79.8994C147.811 79.7627 148.027 79.5576 148.178 79.2842C148.333 79.0107 148.41 78.6667 148.41 78.252C148.41 77.8372 148.324 77.4977 148.15 77.2334C147.977 76.9645 147.731 76.7663 147.412 76.6387C147.098 76.5065 146.726 76.4404 146.298 76.4404H145.396ZM157.7 78.3066C157.7 78.9128 157.559 79.4277 157.276 79.8516C156.998 80.2708 156.62 80.5898 156.142 80.8086C155.668 81.0273 155.132 81.1367 154.535 81.1367C153.938 81.1367 153.4 81.0273 152.922 80.8086C152.443 80.5898 152.065 80.2708 151.787 79.8516C151.509 79.4277 151.37 78.9128 151.37 78.3066C151.37 77.9102 151.445 77.5479 151.596 77.2197C151.751 76.887 151.967 76.5977 152.245 76.3516C152.528 76.1055 152.86 75.9163 153.243 75.7842C153.631 75.6475 154.057 75.5791 154.521 75.5791C155.132 75.5791 155.677 75.6976 156.155 75.9346C156.634 76.167 157.01 76.4883 157.283 76.8984C157.561 77.3086 157.7 77.778 157.7 78.3066ZM156.429 78.2793C156.429 77.9102 156.349 77.5843 156.189 77.3018C156.03 77.0146 155.807 76.7913 155.52 76.6318C155.232 76.4723 154.9 76.3926 154.521 76.3926C154.134 76.3926 153.799 76.4723 153.517 76.6318C153.239 76.7913 153.022 77.0146 152.867 77.3018C152.712 77.5843 152.635 77.9102 152.635 78.2793C152.635 78.6621 152.71 78.9902 152.86 79.2637C153.015 79.5326 153.234 79.7399 153.517 79.8857C153.804 80.027 154.143 80.0977 154.535 80.0977C154.927 80.0977 155.264 80.027 155.547 79.8857C155.829 79.7399 156.046 79.5326 156.196 79.2637C156.351 78.9902 156.429 78.6621 156.429 78.2793ZM157.468 73.6377C157.468 74.1208 157.34 74.556 157.085 74.9434C156.83 75.3307 156.481 75.6361 156.039 75.8594C155.597 76.0827 155.096 76.1943 154.535 76.1943C153.965 76.1943 153.457 76.0827 153.011 75.8594C152.569 75.6361 152.222 75.3307 151.972 74.9434C151.721 74.556 151.596 74.1208 151.596 73.6377C151.596 73.0589 151.721 72.5667 151.972 72.1611C152.227 71.7555 152.576 71.4456 153.018 71.2314C153.46 71.0173 153.963 70.9102 154.528 70.9102C155.098 70.9102 155.604 71.0173 156.046 71.2314C156.488 71.4456 156.834 71.7555 157.085 72.1611C157.34 72.5667 157.468 73.0589 157.468 73.6377ZM156.203 73.6582C156.203 73.3255 156.132 73.0316 155.991 72.7764C155.85 72.5212 155.654 72.3206 155.403 72.1748C155.153 72.0244 154.861 71.9492 154.528 71.9492C154.196 71.9492 153.904 72.0199 153.653 72.1611C153.407 72.2979 153.214 72.4938 153.072 72.749C152.936 73.0042 152.867 73.3073 152.867 73.6582C152.867 74 152.936 74.2985 153.072 74.5537C153.214 74.8089 153.41 75.0072 153.66 75.1484C153.911 75.2897 154.202 75.3604 154.535 75.3604C154.868 75.3604 155.157 75.2897 155.403 75.1484C155.654 75.0072 155.85 74.8089 155.991 74.5537C156.132 74.2985 156.203 74 156.203 73.6582ZM164.618 75.4014H165.521C165.963 75.4014 166.327 75.3285 166.614 75.1826C166.906 75.0322 167.122 74.8294 167.264 74.5742C167.41 74.3145 167.482 74.0228 167.482 73.6992C167.482 73.3164 167.419 72.9951 167.291 72.7354C167.163 72.4756 166.972 72.2796 166.717 72.1475C166.462 72.0153 166.138 71.9492 165.746 71.9492C165.391 71.9492 165.076 72.0199 164.803 72.1611C164.534 72.2979 164.322 72.4938 164.167 72.749C164.017 73.0042 163.941 73.305 163.941 73.6514H162.677C162.677 73.1455 162.804 72.6852 163.06 72.2705C163.315 71.8558 163.673 71.5254 164.133 71.2793C164.598 71.0332 165.135 70.9102 165.746 70.9102C166.348 70.9102 166.874 71.0173 167.325 71.2314C167.776 71.4411 168.127 71.7555 168.378 72.1748C168.629 72.5895 168.754 73.1068 168.754 73.7266C168.754 73.9772 168.695 74.2461 168.576 74.5332C168.462 74.8158 168.282 75.0801 168.036 75.3262C167.795 75.5723 167.48 75.7751 167.093 75.9346C166.705 76.0895 166.241 76.167 165.698 76.167H164.618V75.4014ZM164.618 76.4404V75.6816H165.698C166.332 75.6816 166.856 75.7568 167.271 75.9072C167.685 76.0576 168.011 76.2581 168.248 76.5088C168.49 76.7594 168.658 77.0352 168.754 77.3359C168.854 77.6322 168.904 77.9284 168.904 78.2246C168.904 78.6895 168.825 79.1019 168.665 79.4619C168.51 79.8219 168.289 80.1273 168.002 80.3779C167.719 80.6286 167.387 80.8177 167.004 80.9453C166.621 81.0729 166.204 81.1367 165.753 81.1367C165.32 81.1367 164.912 81.0752 164.529 80.9521C164.151 80.8291 163.816 80.6514 163.524 80.4189C163.233 80.182 163.005 79.8926 162.841 79.5508C162.677 79.2044 162.595 78.8102 162.595 78.3682H163.859C163.859 78.7145 163.935 79.0176 164.085 79.2773C164.24 79.5371 164.459 79.7399 164.741 79.8857C165.028 80.027 165.366 80.0977 165.753 80.0977C166.14 80.0977 166.473 80.0316 166.751 79.8994C167.034 79.7627 167.25 79.5576 167.4 79.2842C167.555 79.0107 167.633 78.6667 167.633 78.252C167.633 77.8372 167.546 77.4977 167.373 77.2334C167.2 76.9645 166.954 76.7663 166.635 76.6387C166.32 76.5065 165.949 76.4404 165.521 76.4404H164.618ZM177.374 77.6504V78.6895H170.183V77.9443L174.64 71.0469H175.672L174.564 73.043L171.618 77.6504H177.374ZM175.986 71.0469V81H174.722V71.0469H175.986ZM184.798 78.3066C184.798 78.9128 184.657 79.4277 184.374 79.8516C184.096 80.2708 183.718 80.5898 183.239 80.8086C182.765 81.0273 182.23 81.1367 181.633 81.1367C181.036 81.1367 180.498 81.0273 180.02 80.8086C179.541 80.5898 179.163 80.2708 178.885 79.8516C178.607 79.4277 178.468 78.9128 178.468 78.3066C178.468 77.9102 178.543 77.5479 178.693 77.2197C178.848 76.887 179.065 76.5977 179.343 76.3516C179.625 76.1055 179.958 75.9163 180.341 75.7842C180.728 75.6475 181.154 75.5791 181.619 75.5791C182.23 75.5791 182.774 75.6976 183.253 75.9346C183.731 76.167 184.107 76.4883 184.381 76.8984C184.659 77.3086 184.798 77.778 184.798 78.3066ZM183.526 78.2793C183.526 77.9102 183.447 77.5843 183.287 77.3018C183.128 77.0146 182.904 76.7913 182.617 76.6318C182.33 76.4723 181.997 76.3926 181.619 76.3926C181.232 76.3926 180.897 76.4723 180.614 76.6318C180.336 76.7913 180.12 77.0146 179.965 77.3018C179.81 77.5843 179.732 77.9102 179.732 78.2793C179.732 78.6621 179.808 78.9902 179.958 79.2637C180.113 79.5326 180.332 79.7399 180.614 79.8857C180.901 80.027 181.241 80.0977 181.633 80.0977C182.025 80.0977 182.362 80.027 182.645 79.8857C182.927 79.7399 183.144 79.5326 183.294 79.2637C183.449 78.9902 183.526 78.6621 183.526 78.2793ZM184.565 73.6377C184.565 74.1208 184.438 74.556 184.183 74.9434C183.927 75.3307 183.579 75.6361 183.137 75.8594C182.695 76.0827 182.193 76.1943 181.633 76.1943C181.063 76.1943 180.555 76.0827 180.108 75.8594C179.666 75.6361 179.32 75.3307 179.069 74.9434C178.819 74.556 178.693 74.1208 178.693 73.6377C178.693 73.0589 178.819 72.5667 179.069 72.1611C179.325 71.7555 179.673 71.4456 180.115 71.2314C180.557 71.0173 181.061 70.9102 181.626 70.9102C182.196 70.9102 182.701 71.0173 183.144 71.2314C183.586 71.4456 183.932 71.7555 184.183 72.1611C184.438 72.5667 184.565 73.0589 184.565 73.6377ZM183.301 73.6582C183.301 73.3255 183.23 73.0316 183.089 72.7764C182.948 72.5212 182.752 72.3206 182.501 72.1748C182.25 72.0244 181.959 71.9492 181.626 71.9492C181.293 71.9492 181.002 72.0199 180.751 72.1611C180.505 72.2979 180.311 72.4938 180.17 72.749C180.033 73.0042 179.965 73.3073 179.965 73.6582C179.965 74 180.033 74.2985 180.17 74.5537C180.311 74.8089 180.507 75.0072 180.758 75.1484C181.008 75.2897 181.3 75.3604 181.633 75.3604C181.965 75.3604 182.255 75.2897 182.501 75.1484C182.752 75.0072 182.948 74.8089 183.089 74.5537C183.23 74.2985 183.301 74 183.301 73.6582ZM187.655 79.9404H187.785C188.514 79.9404 189.107 79.8379 189.562 79.6328C190.018 79.4277 190.369 79.152 190.615 78.8057C190.861 78.4593 191.03 78.0697 191.121 77.6367C191.212 77.1992 191.258 76.7503 191.258 76.29V74.7656C191.258 74.3145 191.205 73.9134 191.101 73.5625C191 73.2116 190.859 72.9176 190.677 72.6807C190.499 72.4437 190.296 72.2637 190.068 72.1406C189.84 72.0176 189.599 71.9561 189.344 71.9561C189.052 71.9561 188.79 72.0153 188.558 72.1338C188.33 72.2477 188.136 72.4095 187.977 72.6191C187.822 72.8288 187.703 73.0749 187.621 73.3574C187.539 73.64 187.498 73.9476 187.498 74.2803C187.498 74.5765 187.535 74.8636 187.607 75.1416C187.68 75.4196 187.792 75.6702 187.942 75.8936C188.093 76.1169 188.28 76.2946 188.503 76.4268C188.731 76.5544 188.997 76.6182 189.303 76.6182C189.585 76.6182 189.85 76.5635 190.096 76.4541C190.346 76.3402 190.567 76.1875 190.759 75.9961C190.955 75.8001 191.11 75.5791 191.224 75.333C191.342 75.0869 191.41 74.8294 191.429 74.5605H192.03C192.03 74.9388 191.955 75.3125 191.805 75.6816C191.659 76.0462 191.454 76.3789 191.189 76.6797C190.925 76.9805 190.615 77.222 190.26 77.4043C189.904 77.582 189.517 77.6709 189.098 77.6709C188.605 77.6709 188.179 77.5752 187.819 77.3838C187.459 77.1924 187.163 76.9372 186.931 76.6182C186.703 76.2992 186.532 75.9437 186.418 75.5518C186.309 75.1553 186.254 74.7542 186.254 74.3486C186.254 73.8747 186.32 73.4303 186.452 73.0156C186.584 72.6009 186.78 72.2363 187.04 71.9219C187.3 71.6029 187.621 71.3545 188.004 71.1768C188.391 70.999 188.838 70.9102 189.344 70.9102C189.913 70.9102 190.399 71.0241 190.8 71.252C191.201 71.4798 191.527 71.7852 191.777 72.168C192.033 72.5508 192.219 72.9814 192.338 73.46C192.456 73.9385 192.516 74.4307 192.516 74.9365V75.3945C192.516 75.9095 192.481 76.4336 192.413 76.9668C192.349 77.4954 192.224 78.0013 192.037 78.4844C191.855 78.9674 191.588 79.4004 191.237 79.7832C190.886 80.1615 190.428 80.4622 189.863 80.6855C189.303 80.9043 188.61 81.0137 187.785 81.0137H187.655V79.9404ZM199.591 75.4014H200.493C200.935 75.4014 201.3 75.3285 201.587 75.1826C201.879 75.0322 202.095 74.8294 202.236 74.5742C202.382 74.3145 202.455 74.0228 202.455 73.6992C202.455 73.3164 202.391 72.9951 202.264 72.7354C202.136 72.4756 201.945 72.2796 201.689 72.1475C201.434 72.0153 201.111 71.9492 200.719 71.9492C200.363 71.9492 200.049 72.0199 199.775 72.1611C199.507 72.2979 199.295 72.4938 199.14 72.749C198.989 73.0042 198.914 73.305 198.914 73.6514H197.649C197.649 73.1455 197.777 72.6852 198.032 72.2705C198.287 71.8558 198.645 71.5254 199.105 71.2793C199.57 71.0332 200.108 70.9102 200.719 70.9102C201.32 70.9102 201.847 71.0173 202.298 71.2314C202.749 71.4411 203.1 71.7555 203.351 72.1748C203.601 72.5895 203.727 73.1068 203.727 73.7266C203.727 73.9772 203.667 74.2461 203.549 74.5332C203.435 74.8158 203.255 75.0801 203.009 75.3262C202.767 75.5723 202.453 75.7751 202.065 75.9346C201.678 76.0895 201.213 76.167 200.671 76.167H199.591V75.4014ZM199.591 76.4404V75.6816H200.671C201.304 75.6816 201.828 75.7568 202.243 75.9072C202.658 76.0576 202.984 76.2581 203.221 76.5088C203.462 76.7594 203.631 77.0352 203.727 77.3359C203.827 77.6322 203.877 77.9284 203.877 78.2246C203.877 78.6895 203.797 79.1019 203.638 79.4619C203.483 79.8219 203.262 80.1273 202.975 80.3779C202.692 80.6286 202.359 80.8177 201.977 80.9453C201.594 81.0729 201.177 81.1367 200.726 81.1367C200.293 81.1367 199.885 81.0752 199.502 80.9521C199.124 80.8291 198.789 80.6514 198.497 80.4189C198.205 80.182 197.978 79.8926 197.813 79.5508C197.649 79.2044 197.567 78.8102 197.567 78.3682H198.832C198.832 78.7145 198.907 79.0176 199.058 79.2773C199.213 79.5371 199.431 79.7399 199.714 79.8857C200.001 80.027 200.338 80.0977 200.726 80.0977C201.113 80.0977 201.446 80.0316 201.724 79.8994C202.006 79.7627 202.223 79.5576 202.373 79.2842C202.528 79.0107 202.605 78.6667 202.605 78.252C202.605 77.8372 202.519 77.4977 202.346 77.2334C202.173 76.9645 201.926 76.7663 201.607 76.6387C201.293 76.5065 200.922 76.4404 200.493 76.4404H199.591ZM212.347 77.6504V78.6895H205.155V77.9443L209.612 71.0469H210.645L209.537 73.043L206.591 77.6504H212.347ZM210.959 71.0469V81H209.694V71.0469H210.959ZM219.771 78.3066C219.771 78.9128 219.629 79.4277 219.347 79.8516C219.069 80.2708 218.69 80.5898 218.212 80.8086C217.738 81.0273 217.202 81.1367 216.605 81.1367C216.008 81.1367 215.471 81.0273 214.992 80.8086C214.514 80.5898 214.135 80.2708 213.857 79.8516C213.579 79.4277 213.44 78.9128 213.44 78.3066C213.44 77.9102 213.516 77.5479 213.666 77.2197C213.821 76.887 214.037 76.5977 214.315 76.3516C214.598 76.1055 214.931 75.9163 215.313 75.7842C215.701 75.6475 216.127 75.5791 216.592 75.5791C217.202 75.5791 217.747 75.6976 218.226 75.9346C218.704 76.167 219.08 76.4883 219.354 76.8984C219.632 77.3086 219.771 77.778 219.771 78.3066ZM218.499 78.2793C218.499 77.9102 218.419 77.5843 218.26 77.3018C218.1 77.0146 217.877 76.7913 217.59 76.6318C217.303 76.4723 216.97 76.3926 216.592 76.3926C216.204 76.3926 215.869 76.4723 215.587 76.6318C215.309 76.7913 215.092 77.0146 214.938 77.3018C214.783 77.5843 214.705 77.9102 214.705 78.2793C214.705 78.6621 214.78 78.9902 214.931 79.2637C215.086 79.5326 215.304 79.7399 215.587 79.8857C215.874 80.027 216.214 80.0977 216.605 80.0977C216.997 80.0977 217.335 80.027 217.617 79.8857C217.9 79.7399 218.116 79.5326 218.267 79.2637C218.422 78.9902 218.499 78.6621 218.499 78.2793ZM219.538 73.6377C219.538 74.1208 219.41 74.556 219.155 74.9434C218.9 75.3307 218.551 75.6361 218.109 75.8594C217.667 76.0827 217.166 76.1943 216.605 76.1943C216.036 76.1943 215.528 76.0827 215.081 75.8594C214.639 75.6361 214.293 75.3307 214.042 74.9434C213.791 74.556 213.666 74.1208 213.666 73.6377C213.666 73.0589 213.791 72.5667 214.042 72.1611C214.297 71.7555 214.646 71.4456 215.088 71.2314C215.53 71.0173 216.034 70.9102 216.599 70.9102C217.168 70.9102 217.674 71.0173 218.116 71.2314C218.558 71.4456 218.905 71.7555 219.155 72.1611C219.41 72.5667 219.538 73.0589 219.538 73.6377ZM218.273 73.6582C218.273 73.3255 218.203 73.0316 218.062 72.7764C217.92 72.5212 217.724 72.3206 217.474 72.1748C217.223 72.0244 216.931 71.9492 216.599 71.9492C216.266 71.9492 215.974 72.0199 215.724 72.1611C215.478 72.2979 215.284 72.4938 215.143 72.749C215.006 73.0042 214.938 73.3073 214.938 73.6582C214.938 74 215.006 74.2985 215.143 74.5537C215.284 74.8089 215.48 75.0072 215.73 75.1484C215.981 75.2897 216.273 75.3604 216.605 75.3604C216.938 75.3604 217.228 75.2897 217.474 75.1484C217.724 75.0072 217.92 74.8089 218.062 74.5537C218.203 74.2985 218.273 74 218.273 73.6582ZM222.628 79.9404H222.758C223.487 79.9404 224.079 79.8379 224.535 79.6328C224.991 79.4277 225.342 79.152 225.588 78.8057C225.834 78.4593 226.003 78.0697 226.094 77.6367C226.185 77.1992 226.23 76.7503 226.23 76.29V74.7656C226.23 74.3145 226.178 73.9134 226.073 73.5625C225.973 73.2116 225.832 72.9176 225.649 72.6807C225.472 72.4437 225.269 72.2637 225.041 72.1406C224.813 72.0176 224.572 71.9561 224.316 71.9561C224.025 71.9561 223.763 72.0153 223.53 72.1338C223.302 72.2477 223.109 72.4095 222.949 72.6191C222.794 72.8288 222.676 73.0749 222.594 73.3574C222.512 73.64 222.471 73.9476 222.471 74.2803C222.471 74.5765 222.507 74.8636 222.58 75.1416C222.653 75.4196 222.765 75.6702 222.915 75.8936C223.065 76.1169 223.252 76.2946 223.476 76.4268C223.703 76.5544 223.97 76.6182 224.275 76.6182C224.558 76.6182 224.822 76.5635 225.068 76.4541C225.319 76.3402 225.54 76.1875 225.731 75.9961C225.927 75.8001 226.082 75.5791 226.196 75.333C226.315 75.0869 226.383 74.8294 226.401 74.5605H227.003C227.003 74.9388 226.928 75.3125 226.777 75.6816C226.632 76.0462 226.426 76.3789 226.162 76.6797C225.898 76.9805 225.588 77.222 225.232 77.4043C224.877 77.582 224.49 77.6709 224.07 77.6709C223.578 77.6709 223.152 77.5752 222.792 77.3838C222.432 77.1924 222.136 76.9372 221.903 76.6182C221.675 76.2992 221.505 75.9437 221.391 75.5518C221.281 75.1553 221.227 74.7542 221.227 74.3486C221.227 73.8747 221.293 73.4303 221.425 73.0156C221.557 72.6009 221.753 72.2363 222.013 71.9219C222.272 71.6029 222.594 71.3545 222.977 71.1768C223.364 70.999 223.811 70.9102 224.316 70.9102C224.886 70.9102 225.371 71.0241 225.772 71.252C226.174 71.4798 226.499 71.7852 226.75 72.168C227.005 72.5508 227.192 72.9814 227.311 73.46C227.429 73.9385 227.488 74.4307 227.488 74.9365V75.3945C227.488 75.9095 227.454 76.4336 227.386 76.9668C227.322 77.4954 227.197 78.0013 227.01 78.4844C226.827 78.9674 226.561 79.4004 226.21 79.7832C225.859 80.1615 225.401 80.4622 224.836 80.6855C224.275 80.9043 223.583 81.0137 222.758 81.0137H222.628V79.9404Z" fill="white"/>
<path d="M32.1172 115.739H33.0547C33.0059 116.188 32.8773 116.59 32.6689 116.945C32.4606 117.3 32.166 117.582 31.7852 117.79C31.4043 117.995 30.929 118.098 30.3594 118.098C29.9427 118.098 29.5635 118.02 29.2217 117.863C28.8831 117.707 28.5918 117.486 28.3477 117.199C28.1035 116.91 27.9147 116.563 27.7812 116.159C27.651 115.752 27.5859 115.3 27.5859 114.802V114.094C27.5859 113.596 27.651 113.145 27.7812 112.741C27.9147 112.334 28.1051 111.986 28.3525 111.696C28.6032 111.407 28.9043 111.184 29.2559 111.027C29.6074 110.871 30.0029 110.793 30.4424 110.793C30.9795 110.793 31.4336 110.894 31.8047 111.096C32.1758 111.298 32.4639 111.577 32.6689 111.936C32.8773 112.29 33.0059 112.702 33.0547 113.171H32.1172C32.0716 112.839 31.987 112.554 31.8633 112.316C31.7396 112.076 31.5638 111.89 31.3359 111.76C31.1081 111.63 30.8102 111.564 30.4424 111.564C30.1266 111.564 29.8483 111.625 29.6074 111.745C29.3698 111.866 29.1696 112.036 29.0068 112.258C28.8473 112.479 28.7269 112.744 28.6455 113.054C28.5641 113.363 28.5234 113.706 28.5234 114.084V114.802C28.5234 115.15 28.5592 115.477 28.6309 115.783C28.7057 116.089 28.818 116.358 28.9678 116.589C29.1175 116.82 29.3079 117.002 29.5391 117.136C29.7702 117.266 30.0436 117.331 30.3594 117.331C30.7598 117.331 31.0788 117.268 31.3164 117.141C31.554 117.014 31.7331 116.831 31.8535 116.594C31.9772 116.356 32.0651 116.071 32.1172 115.739ZM37.3174 117.097V114.377C37.3174 114.169 37.2751 113.988 37.1904 113.835C37.109 113.679 36.9854 113.558 36.8193 113.474C36.6533 113.389 36.4482 113.347 36.2041 113.347C35.9762 113.347 35.776 113.386 35.6035 113.464C35.4342 113.542 35.3008 113.645 35.2031 113.771C35.1087 113.898 35.0615 114.035 35.0615 114.182H34.1582C34.1582 113.993 34.207 113.806 34.3047 113.62C34.4023 113.435 34.5423 113.267 34.7246 113.117C34.9102 112.964 35.1315 112.844 35.3887 112.756C35.6491 112.665 35.9388 112.619 36.2578 112.619C36.6419 112.619 36.9805 112.684 37.2734 112.814C37.5697 112.945 37.8008 113.142 37.9668 113.405C38.1361 113.666 38.2207 113.993 38.2207 114.387V116.848C38.2207 117.023 38.2354 117.211 38.2646 117.409C38.2972 117.608 38.3444 117.779 38.4062 117.922V118H37.4639C37.4183 117.896 37.3825 117.757 37.3564 117.585C37.3304 117.409 37.3174 117.246 37.3174 117.097ZM37.4736 114.797L37.4834 115.432H36.5703C36.3132 115.432 36.0837 115.453 35.8818 115.495C35.68 115.534 35.5107 115.594 35.374 115.676C35.2373 115.757 35.1331 115.86 35.0615 115.983C34.9899 116.104 34.9541 116.245 34.9541 116.408C34.9541 116.574 34.9915 116.726 35.0664 116.862C35.1413 116.999 35.2536 117.108 35.4033 117.189C35.5563 117.268 35.7435 117.307 35.9648 117.307C36.2415 117.307 36.4857 117.248 36.6973 117.131C36.9089 117.014 37.0765 116.87 37.2002 116.701C37.3271 116.532 37.3955 116.368 37.4053 116.208L37.791 116.643C37.7682 116.779 37.7064 116.931 37.6055 117.097C37.5046 117.263 37.3695 117.422 37.2002 117.575C37.0342 117.725 36.8356 117.85 36.6045 117.951C36.3766 118.049 36.1195 118.098 35.833 118.098C35.4749 118.098 35.1608 118.028 34.8906 117.888C34.6237 117.748 34.4154 117.561 34.2656 117.326C34.1191 117.089 34.0459 116.823 34.0459 116.53C34.0459 116.247 34.1012 115.998 34.2119 115.783C34.3226 115.565 34.4821 115.384 34.6904 115.241C34.8988 115.095 35.1494 114.984 35.4424 114.909C35.7354 114.834 36.0625 114.797 36.4238 114.797H37.4736ZM40.5449 113.547V118H39.6416V112.717H40.5205L40.5449 113.547ZM42.1953 112.688L42.1904 113.527C42.1156 113.511 42.0439 113.501 41.9756 113.498C41.9105 113.492 41.8356 113.488 41.751 113.488C41.5426 113.488 41.3587 113.521 41.1992 113.586C41.0397 113.651 40.9046 113.742 40.7939 113.859C40.6833 113.977 40.5954 114.117 40.5303 114.279C40.4684 114.439 40.4277 114.615 40.4082 114.807L40.1543 114.953C40.1543 114.634 40.1852 114.335 40.2471 114.055C40.3122 113.775 40.4115 113.527 40.5449 113.312C40.6784 113.094 40.8477 112.925 41.0527 112.805C41.2611 112.681 41.5085 112.619 41.7949 112.619C41.86 112.619 41.9349 112.627 42.0195 112.644C42.1042 112.657 42.1628 112.671 42.1953 112.688ZM46.2627 116.975V110.5H47.1709V118H46.3408L46.2627 116.975ZM42.708 115.417V115.314C42.708 114.911 42.7568 114.545 42.8545 114.216C42.9554 113.884 43.097 113.599 43.2793 113.361C43.4648 113.124 43.6846 112.941 43.9385 112.814C44.1956 112.684 44.4821 112.619 44.7979 112.619C45.1299 112.619 45.4196 112.678 45.667 112.795C45.9176 112.909 46.1292 113.076 46.3018 113.298C46.4775 113.516 46.6159 113.78 46.7168 114.089C46.8177 114.398 46.8877 114.748 46.9268 115.139V115.588C46.891 115.975 46.821 116.324 46.7168 116.633C46.6159 116.942 46.4775 117.206 46.3018 117.424C46.1292 117.642 45.9176 117.81 45.667 117.927C45.4163 118.041 45.1234 118.098 44.7881 118.098C44.4788 118.098 44.1956 118.031 43.9385 117.897C43.6846 117.764 43.4648 117.577 43.2793 117.336C43.097 117.095 42.9554 116.812 42.8545 116.486C42.7568 116.158 42.708 115.801 42.708 115.417ZM43.6162 115.314V115.417C43.6162 115.681 43.6423 115.928 43.6943 116.159C43.7497 116.39 43.8343 116.594 43.9482 116.77C44.0622 116.945 44.207 117.084 44.3828 117.185C44.5586 117.282 44.7686 117.331 45.0127 117.331C45.3122 117.331 45.5579 117.268 45.75 117.141C45.9453 117.014 46.1016 116.846 46.2188 116.638C46.3359 116.429 46.4271 116.203 46.4922 115.959V114.782C46.4531 114.603 46.3962 114.431 46.3213 114.265C46.2497 114.095 46.1553 113.946 46.0381 113.815C45.9242 113.682 45.7826 113.576 45.6133 113.498C45.4473 113.42 45.2503 113.381 45.0225 113.381C44.7751 113.381 44.5618 113.433 44.3828 113.537C44.207 113.638 44.0622 113.778 43.9482 113.957C43.8343 114.133 43.7497 114.338 43.6943 114.572C43.6423 114.803 43.6162 115.051 43.6162 115.314ZM55.8379 113.947V114.714H51.9902V113.947H55.8379ZM52.1367 110.891V118H51.1943V110.891H52.1367ZM56.6582 110.891V118H55.7207V110.891H56.6582ZM57.957 115.417V115.305C57.957 114.924 58.0124 114.571 58.123 114.245C58.2337 113.916 58.3932 113.632 58.6016 113.391C58.8099 113.146 59.0622 112.958 59.3584 112.824C59.6546 112.688 59.9867 112.619 60.3545 112.619C60.7256 112.619 61.0592 112.688 61.3555 112.824C61.6549 112.958 61.9089 113.146 62.1172 113.391C62.3288 113.632 62.4899 113.916 62.6006 114.245C62.7113 114.571 62.7666 114.924 62.7666 115.305V115.417C62.7666 115.798 62.7113 116.151 62.6006 116.477C62.4899 116.802 62.3288 117.087 62.1172 117.331C61.9089 117.572 61.6566 117.761 61.3604 117.897C61.0674 118.031 60.7354 118.098 60.3643 118.098C59.9932 118.098 59.6595 118.031 59.3633 117.897C59.0671 117.761 58.8132 117.572 58.6016 117.331C58.3932 117.087 58.2337 116.802 58.123 116.477C58.0124 116.151 57.957 115.798 57.957 115.417ZM58.8604 115.305V115.417C58.8604 115.681 58.8913 115.93 58.9531 116.164C59.015 116.395 59.1077 116.6 59.2314 116.779C59.3584 116.958 59.5163 117.1 59.7051 117.204C59.8939 117.305 60.1136 117.355 60.3643 117.355C60.6117 117.355 60.8281 117.305 61.0137 117.204C61.2025 117.1 61.3587 116.958 61.4824 116.779C61.6061 116.6 61.6989 116.395 61.7607 116.164C61.8258 115.93 61.8584 115.681 61.8584 115.417V115.305C61.8584 115.044 61.8258 114.799 61.7607 114.567C61.6989 114.333 61.6045 114.126 61.4775 113.947C61.3538 113.765 61.1976 113.622 61.0088 113.518C60.8232 113.413 60.6051 113.361 60.3545 113.361C60.1071 113.361 59.889 113.413 59.7002 113.518C59.5146 113.622 59.3584 113.765 59.2314 113.947C59.1077 114.126 59.015 114.333 58.9531 114.567C58.8913 114.799 58.8604 115.044 58.8604 115.305ZM64.8809 110.5V118H63.9727V110.5H64.8809ZM69.6611 116.975V110.5H70.5693V118H69.7393L69.6611 116.975ZM66.1064 115.417V115.314C66.1064 114.911 66.1553 114.545 66.2529 114.216C66.3538 113.884 66.4954 113.599 66.6777 113.361C66.8633 113.124 67.083 112.941 67.3369 112.814C67.5941 112.684 67.8805 112.619 68.1963 112.619C68.5283 112.619 68.818 112.678 69.0654 112.795C69.3161 112.909 69.5277 113.076 69.7002 113.298C69.876 113.516 70.0143 113.78 70.1152 114.089C70.2161 114.398 70.2861 114.748 70.3252 115.139V115.588C70.2894 115.975 70.2194 116.324 70.1152 116.633C70.0143 116.942 69.876 117.206 69.7002 117.424C69.5277 117.642 69.3161 117.81 69.0654 117.927C68.8148 118.041 68.5218 118.098 68.1865 118.098C67.8773 118.098 67.5941 118.031 67.3369 117.897C67.083 117.764 66.8633 117.577 66.6777 117.336C66.4954 117.095 66.3538 116.812 66.2529 116.486C66.1553 116.158 66.1064 115.801 66.1064 115.417ZM67.0146 115.314V115.417C67.0146 115.681 67.0407 115.928 67.0928 116.159C67.1481 116.39 67.2327 116.594 67.3467 116.77C67.4606 116.945 67.6055 117.084 67.7812 117.185C67.957 117.282 68.167 117.331 68.4111 117.331C68.7106 117.331 68.9564 117.268 69.1484 117.141C69.3438 117.014 69.5 116.846 69.6172 116.638C69.7344 116.429 69.8255 116.203 69.8906 115.959V114.782C69.8516 114.603 69.7946 114.431 69.7197 114.265C69.6481 114.095 69.5537 113.946 69.4365 113.815C69.3226 113.682 69.181 113.576 69.0117 113.498C68.8457 113.42 68.6488 113.381 68.4209 113.381C68.1735 113.381 67.9603 113.433 67.7812 113.537C67.6055 113.638 67.4606 113.778 67.3467 113.957C67.2327 114.133 67.1481 114.338 67.0928 114.572C67.0407 114.803 67.0146 115.051 67.0146 115.314ZM74.168 118.098C73.8001 118.098 73.4665 118.036 73.167 117.912C72.8708 117.785 72.6152 117.608 72.4004 117.38C72.1888 117.152 72.026 116.882 71.9121 116.569C71.7982 116.257 71.7412 115.915 71.7412 115.544V115.339C71.7412 114.909 71.8047 114.527 71.9316 114.191C72.0586 113.853 72.2311 113.566 72.4492 113.332C72.6673 113.098 72.9147 112.92 73.1914 112.8C73.4681 112.679 73.7546 112.619 74.0508 112.619C74.4284 112.619 74.7539 112.684 75.0273 112.814C75.304 112.945 75.5303 113.127 75.7061 113.361C75.8818 113.592 76.012 113.866 76.0967 114.182C76.1813 114.494 76.2236 114.836 76.2236 115.207V115.612H72.2783V114.875H75.3203V114.807C75.3073 114.572 75.2585 114.344 75.1738 114.123C75.0924 113.902 74.9622 113.719 74.7832 113.576C74.6042 113.433 74.36 113.361 74.0508 113.361C73.8457 113.361 73.6569 113.405 73.4844 113.493C73.3118 113.578 73.1637 113.705 73.04 113.874C72.9163 114.043 72.8203 114.25 72.752 114.494C72.6836 114.738 72.6494 115.02 72.6494 115.339V115.544C72.6494 115.795 72.6836 116.031 72.752 116.252C72.8236 116.47 72.9261 116.662 73.0596 116.828C73.1963 116.994 73.3607 117.124 73.5527 117.219C73.748 117.313 73.9694 117.36 74.2168 117.36C74.5358 117.36 74.806 117.295 75.0273 117.165C75.2487 117.035 75.4424 116.861 75.6084 116.643L76.1553 117.077C76.0413 117.25 75.8965 117.414 75.7207 117.57C75.5449 117.727 75.3285 117.854 75.0713 117.951C74.8174 118.049 74.5163 118.098 74.168 118.098ZM78.1816 113.547V118H77.2783V112.717H78.1572L78.1816 113.547ZM79.832 112.688L79.8271 113.527C79.7523 113.511 79.6807 113.501 79.6123 113.498C79.5472 113.492 79.4723 113.488 79.3877 113.488C79.1794 113.488 78.9954 113.521 78.8359 113.586C78.6764 113.651 78.5413 113.742 78.4307 113.859C78.32 113.977 78.2321 114.117 78.167 114.279C78.1051 114.439 78.0645 114.615 78.0449 114.807L77.791 114.953C77.791 114.634 77.8219 114.335 77.8838 114.055C77.9489 113.775 78.0482 113.527 78.1816 113.312C78.3151 113.094 78.4844 112.925 78.6895 112.805C78.8978 112.681 79.1452 112.619 79.4316 112.619C79.4967 112.619 79.5716 112.627 79.6562 112.644C79.7409 112.657 79.7995 112.671 79.832 112.688ZM88.7529 110.891V118H87.8057L84.2266 112.517V118H83.2842V110.891H84.2266L87.8203 116.389V110.891H88.7529ZM93.4014 117.097V114.377C93.4014 114.169 93.359 113.988 93.2744 113.835C93.193 113.679 93.0693 113.558 92.9033 113.474C92.7373 113.389 92.5322 113.347 92.2881 113.347C92.0602 113.347 91.86 113.386 91.6875 113.464C91.5182 113.542 91.3848 113.645 91.2871 113.771C91.1927 113.898 91.1455 114.035 91.1455 114.182H90.2422C90.2422 113.993 90.291 113.806 90.3887 113.62C90.4863 113.435 90.6263 113.267 90.8086 113.117C90.9941 112.964 91.2155 112.844 91.4727 112.756C91.7331 112.665 92.0228 112.619 92.3418 112.619C92.7259 112.619 93.0645 112.684 93.3574 112.814C93.6536 112.945 93.8848 113.142 94.0508 113.405C94.2201 113.666 94.3047 113.993 94.3047 114.387V116.848C94.3047 117.023 94.3193 117.211 94.3486 117.409C94.3812 117.608 94.4284 117.779 94.4902 117.922V118H93.5479C93.5023 117.896 93.4665 117.757 93.4404 117.585C93.4144 117.409 93.4014 117.246 93.4014 117.097ZM93.5576 114.797L93.5674 115.432H92.6543C92.3971 115.432 92.1676 115.453 91.9658 115.495C91.764 115.534 91.5947 115.594 91.458 115.676C91.3213 115.757 91.2171 115.86 91.1455 115.983C91.0739 116.104 91.0381 116.245 91.0381 116.408C91.0381 116.574 91.0755 116.726 91.1504 116.862C91.2253 116.999 91.3376 117.108 91.4873 117.189C91.6403 117.268 91.8275 117.307 92.0488 117.307C92.3255 117.307 92.5697 117.248 92.7812 117.131C92.9928 117.014 93.1605 116.87 93.2842 116.701C93.4111 116.532 93.4795 116.368 93.4893 116.208L93.875 116.643C93.8522 116.779 93.7904 116.931 93.6895 117.097C93.5885 117.263 93.4535 117.422 93.2842 117.575C93.1182 117.725 92.9196 117.85 92.6885 117.951C92.4606 118.049 92.2035 118.098 91.917 118.098C91.5589 118.098 91.2448 118.028 90.9746 117.888C90.7077 117.748 90.4993 117.561 90.3496 117.326C90.2031 117.089 90.1299 116.823 90.1299 116.53C90.1299 116.247 90.1852 115.998 90.2959 115.783C90.4066 115.565 90.5661 115.384 90.7744 115.241C90.9827 115.095 91.2334 114.984 91.5264 114.909C91.8193 114.834 92.1465 114.797 92.5078 114.797H93.5576ZM96.624 113.767V118H95.7158V112.717H96.5752L96.624 113.767ZM96.4385 115.158L96.0186 115.144C96.0218 114.782 96.069 114.449 96.1602 114.143C96.2513 113.833 96.3864 113.565 96.5654 113.337C96.7445 113.109 96.9674 112.933 97.2344 112.81C97.5013 112.683 97.8105 112.619 98.1621 112.619C98.4095 112.619 98.6374 112.655 98.8457 112.727C99.054 112.795 99.2347 112.904 99.3877 113.054C99.5407 113.203 99.6595 113.396 99.7441 113.63C99.8288 113.864 99.8711 114.147 99.8711 114.479V118H98.9678V114.523C98.9678 114.247 98.9206 114.025 98.8262 113.859C98.735 113.693 98.6048 113.573 98.4355 113.498C98.2663 113.42 98.0677 113.381 97.8398 113.381C97.5729 113.381 97.3499 113.428 97.1709 113.522C96.9919 113.617 96.8486 113.747 96.7412 113.913C96.6338 114.079 96.5557 114.27 96.5068 114.484C96.4613 114.696 96.4385 114.921 96.4385 115.158ZM99.8613 114.66L99.2559 114.846C99.2591 114.556 99.3063 114.278 99.3975 114.011C99.4919 113.744 99.627 113.506 99.8027 113.298C99.9818 113.09 100.201 112.925 100.462 112.805C100.722 112.681 101.02 112.619 101.355 112.619C101.639 112.619 101.889 112.657 102.107 112.731C102.329 112.806 102.514 112.922 102.664 113.078C102.817 113.231 102.933 113.428 103.011 113.669C103.089 113.91 103.128 114.196 103.128 114.528V118H102.22V114.519C102.22 114.222 102.173 113.993 102.078 113.83C101.987 113.664 101.857 113.549 101.688 113.483C101.521 113.415 101.323 113.381 101.092 113.381C100.893 113.381 100.717 113.415 100.564 113.483C100.411 113.552 100.283 113.646 100.179 113.767C100.075 113.884 99.9948 114.019 99.9395 114.172C99.8874 114.325 99.8613 114.488 99.8613 114.66ZM106.688 118.098C106.32 118.098 105.986 118.036 105.687 117.912C105.39 117.785 105.135 117.608 104.92 117.38C104.708 117.152 104.546 116.882 104.432 116.569C104.318 116.257 104.261 115.915 104.261 115.544V115.339C104.261 114.909 104.324 114.527 104.451 114.191C104.578 113.853 104.751 113.566 104.969 113.332C105.187 113.098 105.434 112.92 105.711 112.8C105.988 112.679 106.274 112.619 106.57 112.619C106.948 112.619 107.273 112.684 107.547 112.814C107.824 112.945 108.05 113.127 108.226 113.361C108.401 113.592 108.532 113.866 108.616 114.182C108.701 114.494 108.743 114.836 108.743 115.207V115.612H104.798V114.875H107.84V114.807C107.827 114.572 107.778 114.344 107.693 114.123C107.612 113.902 107.482 113.719 107.303 113.576C107.124 113.433 106.88 113.361 106.57 113.361C106.365 113.361 106.176 113.405 106.004 113.493C105.831 113.578 105.683 113.705 105.56 113.874C105.436 114.043 105.34 114.25 105.271 114.494C105.203 114.738 105.169 115.02 105.169 115.339V115.544C105.169 115.795 105.203 116.031 105.271 116.252C105.343 116.47 105.446 116.662 105.579 116.828C105.716 116.994 105.88 117.124 106.072 117.219C106.268 117.313 106.489 117.36 106.736 117.36C107.055 117.36 107.326 117.295 107.547 117.165C107.768 117.035 107.962 116.861 108.128 116.643L108.675 117.077C108.561 117.25 108.416 117.414 108.24 117.57C108.064 117.727 107.848 117.854 107.591 117.951C107.337 118.049 107.036 118.098 106.688 118.098Z" fill="#DED8D8"/>
<path d="M30.8086 127.925V122.891H31.7461V127.925C31.7461 128.394 31.6501 128.789 31.458 129.111C31.266 129.434 31.0007 129.679 30.6621 129.849C30.3268 130.015 29.9411 130.098 29.5049 130.098C29.0687 130.098 28.6813 130.023 28.3428 129.873C28.0042 129.723 27.7389 129.495 27.5469 129.189C27.3548 128.883 27.2588 128.498 27.2588 128.032H28.2012C28.2012 128.332 28.2565 128.577 28.3672 128.77C28.4779 128.962 28.6309 129.103 28.8262 129.194C29.0247 129.285 29.251 129.331 29.5049 129.331C29.7523 129.331 29.9736 129.279 30.1689 129.175C30.3675 129.067 30.5238 128.91 30.6377 128.701C30.7516 128.49 30.8086 128.231 30.8086 127.925ZM36.3213 129.097V126.377C36.3213 126.169 36.279 125.988 36.1943 125.835C36.113 125.679 35.9893 125.558 35.8232 125.474C35.6572 125.389 35.4521 125.347 35.208 125.347C34.9801 125.347 34.7799 125.386 34.6074 125.464C34.4382 125.542 34.3047 125.645 34.207 125.771C34.1126 125.898 34.0654 126.035 34.0654 126.182H33.1621C33.1621 125.993 33.2109 125.806 33.3086 125.62C33.4062 125.435 33.5462 125.267 33.7285 125.117C33.9141 124.964 34.1354 124.844 34.3926 124.756C34.653 124.665 34.9427 124.619 35.2617 124.619C35.6458 124.619 35.9844 124.684 36.2773 124.814C36.5736 124.945 36.8047 125.142 36.9707 125.405C37.14 125.666 37.2246 125.993 37.2246 126.387V128.848C37.2246 129.023 37.2393 129.211 37.2686 129.409C37.3011 129.608 37.3483 129.779 37.4102 129.922V130H36.4678C36.4222 129.896 36.3864 129.757 36.3604 129.585C36.3343 129.409 36.3213 129.246 36.3213 129.097ZM36.4775 126.797L36.4873 127.432H35.5742C35.3171 127.432 35.0876 127.453 34.8857 127.495C34.6839 127.534 34.5146 127.594 34.3779 127.676C34.2412 127.757 34.137 127.86 34.0654 127.983C33.9938 128.104 33.958 128.245 33.958 128.408C33.958 128.574 33.9954 128.726 34.0703 128.862C34.1452 128.999 34.2575 129.108 34.4072 129.189C34.5602 129.268 34.7474 129.307 34.9688 129.307C35.2454 129.307 35.4896 129.248 35.7012 129.131C35.9128 129.014 36.0804 128.87 36.2041 128.701C36.3311 128.532 36.3994 128.368 36.4092 128.208L36.7949 128.643C36.7721 128.779 36.7103 128.931 36.6094 129.097C36.5085 129.263 36.3734 129.422 36.2041 129.575C36.0381 129.725 35.8395 129.85 35.6084 129.951C35.3805 130.049 35.1234 130.098 34.8369 130.098C34.4788 130.098 34.1647 130.028 33.8945 129.888C33.6276 129.748 33.4193 129.561 33.2695 129.326C33.123 129.089 33.0498 128.823 33.0498 128.53C33.0498 128.247 33.1051 127.998 33.2158 127.783C33.3265 127.565 33.486 127.384 33.6943 127.241C33.9027 127.095 34.1533 126.984 34.4463 126.909C34.7393 126.834 35.0664 126.797 35.4277 126.797H36.4775ZM39.5439 125.767V130H38.6357V124.717H39.4951L39.5439 125.767ZM39.3584 127.158L38.9385 127.144C38.9417 126.782 38.9889 126.449 39.0801 126.143C39.1712 125.833 39.3063 125.565 39.4854 125.337C39.6644 125.109 39.8874 124.933 40.1543 124.81C40.4212 124.683 40.7305 124.619 41.082 124.619C41.3294 124.619 41.5573 124.655 41.7656 124.727C41.974 124.795 42.1546 124.904 42.3076 125.054C42.4606 125.203 42.5794 125.396 42.6641 125.63C42.7487 125.864 42.791 126.147 42.791 126.479V130H41.8877V126.523C41.8877 126.247 41.8405 126.025 41.7461 125.859C41.6549 125.693 41.5247 125.573 41.3555 125.498C41.1862 125.42 40.9876 125.381 40.7598 125.381C40.4928 125.381 40.2699 125.428 40.0908 125.522C39.9118 125.617 39.7686 125.747 39.6611 125.913C39.5537 126.079 39.4756 126.27 39.4268 126.484C39.3812 126.696 39.3584 126.921 39.3584 127.158ZM42.7812 126.66L42.1758 126.846C42.179 126.556 42.2262 126.278 42.3174 126.011C42.4118 125.744 42.5469 125.506 42.7227 125.298C42.9017 125.09 43.1214 124.925 43.3818 124.805C43.6423 124.681 43.9401 124.619 44.2754 124.619C44.5586 124.619 44.8092 124.657 45.0273 124.731C45.2487 124.806 45.4342 124.922 45.584 125.078C45.737 125.231 45.8525 125.428 45.9307 125.669C46.0088 125.91 46.0479 126.196 46.0479 126.528V130H45.1396V126.519C45.1396 126.222 45.0924 125.993 44.998 125.83C44.9069 125.664 44.7767 125.549 44.6074 125.483C44.4414 125.415 44.2428 125.381 44.0117 125.381C43.8132 125.381 43.6374 125.415 43.4844 125.483C43.3314 125.552 43.2028 125.646 43.0986 125.767C42.9945 125.884 42.9147 126.019 42.8594 126.172C42.8073 126.325 42.7812 126.488 42.7812 126.66ZM49.6074 130.098C49.2396 130.098 48.9059 130.036 48.6064 129.912C48.3102 129.785 48.0547 129.608 47.8398 129.38C47.6283 129.152 47.4655 128.882 47.3516 128.569C47.2376 128.257 47.1807 127.915 47.1807 127.544V127.339C47.1807 126.909 47.2441 126.527 47.3711 126.191C47.498 125.853 47.6706 125.566 47.8887 125.332C48.1068 125.098 48.3542 124.92 48.6309 124.8C48.9076 124.679 49.194 124.619 49.4902 124.619C49.8678 124.619 50.1934 124.684 50.4668 124.814C50.7435 124.945 50.9697 125.127 51.1455 125.361C51.3213 125.592 51.4515 125.866 51.5361 126.182C51.6208 126.494 51.6631 126.836 51.6631 127.207V127.612H47.7178V126.875H50.7598V126.807C50.7467 126.572 50.6979 126.344 50.6133 126.123C50.5319 125.902 50.4017 125.719 50.2227 125.576C50.0436 125.433 49.7995 125.361 49.4902 125.361C49.2852 125.361 49.0964 125.405 48.9238 125.493C48.7513 125.578 48.6032 125.705 48.4795 125.874C48.3558 126.043 48.2598 126.25 48.1914 126.494C48.123 126.738 48.0889 127.02 48.0889 127.339V127.544C48.0889 127.795 48.123 128.031 48.1914 128.252C48.263 128.47 48.3656 128.662 48.499 128.828C48.6357 128.994 48.8001 129.124 48.9922 129.219C49.1875 129.313 49.4089 129.36 49.6562 129.36C49.9753 129.36 50.2454 129.295 50.4668 129.165C50.6882 129.035 50.8818 128.861 51.0479 128.643L51.5947 129.077C51.4808 129.25 51.3359 129.414 51.1602 129.57C50.9844 129.727 50.7679 129.854 50.5107 129.951C50.2568 130.049 49.9557 130.098 49.6074 130.098ZM55.7939 128.599C55.7939 128.468 55.7646 128.348 55.7061 128.237C55.6507 128.123 55.5352 128.021 55.3594 127.93C55.1868 127.835 54.9264 127.754 54.5781 127.686C54.2852 127.624 54.0199 127.55 53.7822 127.466C53.5479 127.381 53.3477 127.279 53.1816 127.158C53.0189 127.038 52.8936 126.896 52.8057 126.733C52.7178 126.571 52.6738 126.38 52.6738 126.162C52.6738 125.954 52.7194 125.757 52.8105 125.571C52.9049 125.386 53.0368 125.221 53.2061 125.078C53.3786 124.935 53.5853 124.823 53.8262 124.741C54.0671 124.66 54.3356 124.619 54.6318 124.619C55.055 124.619 55.4163 124.694 55.7158 124.844C56.0153 124.993 56.2448 125.194 56.4043 125.444C56.5638 125.692 56.6436 125.967 56.6436 126.27H55.7402C55.7402 126.123 55.6963 125.981 55.6084 125.845C55.5238 125.705 55.3984 125.589 55.2324 125.498C55.0697 125.407 54.8695 125.361 54.6318 125.361C54.3812 125.361 54.1777 125.4 54.0215 125.479C53.8685 125.553 53.7562 125.649 53.6846 125.767C53.6162 125.884 53.582 126.007 53.582 126.138C53.582 126.235 53.5983 126.323 53.6309 126.401C53.6667 126.476 53.7285 126.546 53.8164 126.611C53.9043 126.673 54.028 126.732 54.1875 126.787C54.347 126.842 54.5505 126.898 54.7979 126.953C55.2308 127.051 55.5872 127.168 55.8672 127.305C56.1471 127.441 56.3555 127.609 56.4922 127.808C56.6289 128.006 56.6973 128.247 56.6973 128.53C56.6973 128.761 56.6484 128.973 56.5508 129.165C56.4564 129.357 56.318 129.523 56.1357 129.663C55.9567 129.8 55.7419 129.907 55.4912 129.985C55.2438 130.06 54.9655 130.098 54.6562 130.098C54.1908 130.098 53.7969 130.015 53.4746 129.849C53.1523 129.683 52.9082 129.468 52.7422 129.204C52.5762 128.94 52.4932 128.662 52.4932 128.369H53.4014C53.4144 128.617 53.486 128.813 53.6162 128.96C53.7464 129.103 53.9059 129.206 54.0947 129.268C54.2835 129.326 54.4707 129.355 54.6562 129.355C54.9036 129.355 55.1104 129.323 55.2764 129.258C55.4456 129.193 55.5742 129.103 55.6621 128.989C55.75 128.875 55.7939 128.745 55.7939 128.599ZM63.0352 126.675H61.2334L61.2236 125.918H62.8594C63.1296 125.918 63.3656 125.872 63.5674 125.781C63.7692 125.69 63.9255 125.56 64.0361 125.391C64.1501 125.218 64.207 125.013 64.207 124.775C64.207 124.515 64.1566 124.303 64.0557 124.141C63.958 123.975 63.8066 123.854 63.6016 123.779C63.3997 123.701 63.1426 123.662 62.8301 123.662H61.4434V130H60.501V122.891H62.8301C63.1947 122.891 63.5202 122.928 63.8066 123.003C64.0931 123.075 64.3356 123.188 64.5342 123.345C64.736 123.498 64.889 123.693 64.9932 123.931C65.0973 124.168 65.1494 124.453 65.1494 124.785C65.1494 125.078 65.0745 125.343 64.9248 125.581C64.7751 125.815 64.5667 126.007 64.2998 126.157C64.0361 126.307 63.7269 126.403 63.3721 126.445L63.0352 126.675ZM62.9912 130H60.8623L61.3945 129.233H62.9912C63.2907 129.233 63.5446 129.181 63.7529 129.077C63.9645 128.973 64.1257 128.826 64.2363 128.638C64.347 128.446 64.4023 128.219 64.4023 127.959C64.4023 127.695 64.3551 127.467 64.2607 127.275C64.1663 127.083 64.0182 126.935 63.8164 126.831C63.6146 126.727 63.3542 126.675 63.0352 126.675H61.6924L61.7021 125.918H63.5381L63.7383 126.191C64.0801 126.221 64.3698 126.318 64.6074 126.484C64.8451 126.647 65.0257 126.855 65.1494 127.109C65.2764 127.363 65.3398 127.643 65.3398 127.949C65.3398 128.392 65.2422 128.766 65.0469 129.072C64.8548 129.375 64.583 129.606 64.2314 129.766C63.8799 129.922 63.4665 130 62.9912 130ZM67.498 125.547V130H66.5947V124.717H67.4736L67.498 125.547ZM69.1484 124.688L69.1436 125.527C69.0687 125.511 68.9971 125.501 68.9287 125.498C68.8636 125.492 68.7887 125.488 68.7041 125.488C68.4958 125.488 68.3118 125.521 68.1523 125.586C67.9928 125.651 67.8577 125.742 67.7471 125.859C67.6364 125.977 67.5485 126.117 67.4834 126.279C67.4215 126.439 67.3809 126.615 67.3613 126.807L67.1074 126.953C67.1074 126.634 67.1383 126.335 67.2002 126.055C67.2653 125.775 67.3646 125.527 67.498 125.312C67.6315 125.094 67.8008 124.925 68.0059 124.805C68.2142 124.681 68.4616 124.619 68.748 124.619C68.8132 124.619 68.888 124.627 68.9727 124.644C69.0573 124.657 69.1159 124.671 69.1484 124.688ZM69.6465 127.417V127.305C69.6465 126.924 69.7018 126.571 69.8125 126.245C69.9232 125.916 70.0827 125.632 70.291 125.391C70.4993 125.146 70.7516 124.958 71.0479 124.824C71.3441 124.688 71.6761 124.619 72.0439 124.619C72.415 124.619 72.7487 124.688 73.0449 124.824C73.3444 124.958 73.5983 125.146 73.8066 125.391C74.0182 125.632 74.1794 125.916 74.29 126.245C74.4007 126.571 74.4561 126.924 74.4561 127.305V127.417C74.4561 127.798 74.4007 128.151 74.29 128.477C74.1794 128.802 74.0182 129.087 73.8066 129.331C73.5983 129.572 73.346 129.761 73.0498 129.897C72.7568 130.031 72.4248 130.098 72.0537 130.098C71.6826 130.098 71.349 130.031 71.0527 129.897C70.7565 129.761 70.5026 129.572 70.291 129.331C70.0827 129.087 69.9232 128.802 69.8125 128.477C69.7018 128.151 69.6465 127.798 69.6465 127.417ZM70.5498 127.305V127.417C70.5498 127.681 70.5807 127.93 70.6426 128.164C70.7044 128.395 70.7972 128.6 70.9209 128.779C71.0479 128.958 71.2057 129.1 71.3945 129.204C71.5833 129.305 71.8031 129.355 72.0537 129.355C72.3011 129.355 72.5176 129.305 72.7031 129.204C72.8919 129.1 73.0482 128.958 73.1719 128.779C73.2956 128.6 73.3883 128.395 73.4502 128.164C73.5153 127.93 73.5479 127.681 73.5479 127.417V127.305C73.5479 127.044 73.5153 126.799 73.4502 126.567C73.3883 126.333 73.2939 126.126 73.167 125.947C73.0433 125.765 72.887 125.622 72.6982 125.518C72.5127 125.413 72.2946 125.361 72.0439 125.361C71.7965 125.361 71.5785 125.413 71.3896 125.518C71.2041 125.622 71.0479 125.765 70.9209 125.947C70.7972 126.126 70.7044 126.333 70.6426 126.567C70.5807 126.799 70.5498 127.044 70.5498 127.305ZM76.9268 129.062L78.2842 124.717H78.8799L78.7627 125.581L77.3809 130H76.7998L76.9268 129.062ZM76.0137 124.717L77.1709 129.111L77.2539 130H76.6436L75.1104 124.717H76.0137ZM80.1787 129.077L81.2822 124.717H82.1807L80.6475 130H80.042L80.1787 129.077ZM79.0117 124.717L80.3398 128.989L80.4912 130H79.915L78.4941 125.571L78.377 124.717H79.0117ZM84.0117 125.845V130H83.1084V124.717H83.9629L84.0117 125.845ZM83.7969 127.158L83.4209 127.144C83.4242 126.782 83.4779 126.449 83.582 126.143C83.6862 125.833 83.8327 125.565 84.0215 125.337C84.2103 125.109 84.4349 124.933 84.6953 124.81C84.959 124.683 85.2503 124.619 85.5693 124.619C85.8298 124.619 86.0641 124.655 86.2725 124.727C86.4808 124.795 86.6582 124.906 86.8047 125.059C86.9544 125.212 87.0684 125.41 87.1465 125.654C87.2246 125.895 87.2637 126.19 87.2637 126.538V130H86.3555V126.528C86.3555 126.252 86.3148 126.03 86.2334 125.864C86.152 125.695 86.0332 125.573 85.877 125.498C85.7207 125.42 85.5286 125.381 85.3008 125.381C85.0762 125.381 84.8711 125.428 84.6855 125.522C84.5033 125.617 84.3454 125.747 84.2119 125.913C84.0817 126.079 83.9792 126.27 83.9043 126.484C83.8327 126.696 83.7969 126.921 83.7969 127.158Z" fill="white"/>
<path d="M24.8145 19.4688H27.9141C28.5625 19.4688 29.1191 19.5664 29.584 19.7617C30.0488 19.957 30.4062 20.2461 30.6562 20.6289C30.9062 21.0117 31.0312 21.4824 31.0312 22.041C31.0312 22.4824 30.9531 22.8652 30.7969 23.1895C30.6406 23.5137 30.4199 23.7852 30.1348 24.0039C29.8535 24.2227 29.5215 24.3945 29.1387 24.5195L28.6348 24.7773H25.8984L25.8867 23.5059H27.9316C28.2637 23.5059 28.5391 23.4473 28.7578 23.3301C28.9766 23.2129 29.1406 23.0508 29.25 22.8438C29.3633 22.6367 29.4199 22.4004 29.4199 22.1348C29.4199 21.8496 29.3652 21.6035 29.2559 21.3965C29.1465 21.1855 28.9805 21.0234 28.7578 20.9102C28.5352 20.7969 28.2539 20.7402 27.9141 20.7402H26.4258V28H24.8145V19.4688ZM29.6309 28L27.6562 24.1797L29.3613 24.1738L31.3594 27.918V28H29.6309ZM35.7129 24.1973H33.5332L33.5215 23.0605H35.3906C35.7109 23.0605 35.9785 23.0156 36.1934 22.9258C36.4082 22.8359 36.5703 22.7051 36.6797 22.5332C36.793 22.3613 36.8496 22.1523 36.8496 21.9062C36.8496 21.6328 36.7969 21.4102 36.6914 21.2383C36.5898 21.0664 36.4297 20.9414 36.2109 20.8633C35.9922 20.7812 35.7148 20.7402 35.3789 20.7402H34.0547V28H32.4434V19.4688H35.3789C35.8633 19.4688 36.2949 19.5156 36.6738 19.6094C37.0566 19.6992 37.3809 19.8398 37.6465 20.0312C37.9121 20.2227 38.1133 20.4629 38.25 20.752C38.3906 21.041 38.4609 21.3848 38.4609 21.7832C38.4609 22.1348 38.3789 22.459 38.2148 22.7559C38.0547 23.0488 37.8066 23.2871 37.4707 23.4707C37.1387 23.6543 36.7168 23.7598 36.2051 23.7871L35.7129 24.1973ZM35.6426 28H33.0586L33.7324 26.7344H35.6426C35.9629 26.7344 36.2266 26.6816 36.4336 26.5762C36.6445 26.4707 36.8008 26.3262 36.9023 26.1426C37.0078 25.9551 37.0605 25.7402 37.0605 25.498C37.0605 25.2324 37.0137 25.002 36.9199 24.8066C36.8301 24.6113 36.6855 24.4609 36.4863 24.3555C36.291 24.25 36.0332 24.1973 35.7129 24.1973H34.0371L34.0488 23.0605H36.1816L36.5508 23.5C37.043 23.5039 37.4434 23.6016 37.752 23.793C38.0645 23.9844 38.2949 24.2305 38.4434 24.5312C38.5918 24.832 38.666 25.1562 38.666 25.5039C38.666 26.0508 38.5469 26.5098 38.3086 26.8809C38.0742 27.252 37.7305 27.5312 37.2773 27.7188C36.8281 27.9062 36.2832 28 35.6426 28ZM45.0527 25.1934H46.6641C46.6211 25.7637 46.4629 26.2695 46.1895 26.7109C45.916 27.1484 45.5352 27.4922 45.0469 27.7422C44.5586 27.9922 43.9668 28.1172 43.2715 28.1172C42.7363 28.1172 42.2539 28.0234 41.8242 27.8359C41.3984 27.6445 41.0332 27.373 40.7285 27.0215C40.4277 26.666 40.1973 26.2402 40.0371 25.7441C39.877 25.2441 39.7969 24.6836 39.7969 24.0625V23.4121C39.7969 22.791 39.8789 22.2305 40.043 21.7305C40.207 21.2305 40.4414 20.8047 40.7461 20.4531C41.0547 20.0977 41.4238 19.8242 41.8535 19.6328C42.2871 19.4414 42.7715 19.3457 43.3066 19.3457C44.002 19.3457 44.5898 19.4746 45.0703 19.7324C45.5508 19.9863 45.9238 20.3359 46.1895 20.7812C46.4551 21.2266 46.6152 21.7383 46.6699 22.3164H45.0586C45.0273 21.957 44.9492 21.6523 44.8242 21.4023C44.7031 21.1523 44.5195 20.9629 44.2734 20.834C44.0312 20.7012 43.709 20.6348 43.3066 20.6348C42.9941 20.6348 42.7188 20.6934 42.4805 20.8105C42.2461 20.9277 42.0508 21.1035 41.8945 21.3379C41.7383 21.5684 41.6211 21.8574 41.543 22.2051C41.4648 22.5488 41.4258 22.9473 41.4258 23.4004V24.0625C41.4258 24.4961 41.4609 24.8848 41.5312 25.2285C41.6016 25.5723 41.7109 25.8633 41.8594 26.1016C42.0078 26.3398 42.1992 26.5215 42.4336 26.6465C42.668 26.7715 42.9473 26.834 43.2715 26.834C43.666 26.834 43.9863 26.7715 44.2324 26.6465C44.4824 26.5215 44.6719 26.3379 44.8008 26.0957C44.9336 25.8535 45.0176 25.5527 45.0527 25.1934ZM50.9004 19.4688H54C54.6484 19.4688 55.2051 19.5664 55.6699 19.7617C56.1348 19.957 56.4922 20.2461 56.7422 20.6289C56.9922 21.0117 57.1172 21.4824 57.1172 22.041C57.1172 22.4824 57.0391 22.8652 56.8828 23.1895C56.7266 23.5137 56.5059 23.7852 56.2207 24.0039C55.9395 24.2227 55.6074 24.3945 55.2246 24.5195L54.7207 24.7773H51.9844L51.9727 23.5059H54.0176C54.3496 23.5059 54.625 23.4473 54.8438 23.3301C55.0625 23.2129 55.2266 23.0508 55.3359 22.8438C55.4492 22.6367 55.5059 22.4004 55.5059 22.1348C55.5059 21.8496 55.4512 21.6035 55.3418 21.3965C55.2324 21.1855 55.0664 21.0234 54.8438 20.9102C54.6211 20.7969 54.3398 20.7402 54 20.7402H52.5117V28H50.9004V19.4688ZM55.7168 28L53.7422 24.1797L55.4473 24.1738L57.4453 27.918V28H55.7168ZM58.1367 24.8945V24.7715C58.1367 24.3066 58.2031 23.8789 58.3359 23.4883C58.4688 23.0938 58.6621 22.752 58.916 22.4629C59.1699 22.1738 59.4805 21.9492 59.8477 21.7891C60.2148 21.625 60.6328 21.543 61.1016 21.543C61.5781 21.543 62 21.625 62.3672 21.7891C62.7383 21.9492 63.0508 22.1738 63.3047 22.4629C63.5586 22.752 63.752 23.0938 63.8848 23.4883C64.0176 23.8789 64.084 24.3066 64.084 24.7715V24.8945C64.084 25.3555 64.0176 25.7832 63.8848 26.1777C63.752 26.5684 63.5586 26.9102 63.3047 27.2031C63.0508 27.4922 62.7402 27.7168 62.373 27.877C62.0059 28.0371 61.5859 28.1172 61.1133 28.1172C60.6445 28.1172 60.2246 28.0371 59.8535 27.877C59.4824 27.7168 59.1699 27.4922 58.916 27.2031C58.6621 26.9102 58.4688 26.5684 58.3359 26.1777C58.2031 25.7832 58.1367 25.3555 58.1367 24.8945ZM59.6836 24.7715V24.8945C59.6836 25.1719 59.7109 25.4316 59.7656 25.6738C59.8203 25.916 59.9043 26.1289 60.0176 26.3125C60.1309 26.4961 60.2773 26.6406 60.457 26.7461C60.6406 26.8477 60.8594 26.8984 61.1133 26.8984C61.3633 26.8984 61.5781 26.8477 61.7578 26.7461C61.9375 26.6406 62.084 26.4961 62.1973 26.3125C62.3145 26.1289 62.4004 25.916 62.4551 25.6738C62.5098 25.4316 62.5371 25.1719 62.5371 24.8945V24.7715C62.5371 24.498 62.5098 24.2422 62.4551 24.0039C62.4004 23.7617 62.3145 23.5488 62.1973 23.3652C62.084 23.1777 61.9355 23.0312 61.752 22.9258C61.5723 22.8164 61.3555 22.7617 61.1016 22.7617C60.8516 22.7617 60.6367 22.8164 60.457 22.9258C60.2773 23.0312 60.1309 23.1777 60.0176 23.3652C59.9043 23.5488 59.8203 23.7617 59.7656 24.0039C59.7109 24.2422 59.6836 24.498 59.6836 24.7715ZM66.9727 27.2969L68.6719 21.6602H70.3301L67.7871 28.9609C67.7285 29.1172 67.6523 29.2871 67.5586 29.4707C67.4688 29.6543 67.3477 29.8281 67.1953 29.9922C67.043 30.1602 66.8516 30.2969 66.6211 30.4023C66.3945 30.5078 66.1191 30.5605 65.7949 30.5605C65.6543 30.5605 65.5293 30.5508 65.4199 30.5312C65.3105 30.5117 65.1953 30.4863 65.0742 30.4551V29.2949C65.1133 29.2988 65.1582 29.3008 65.209 29.3008C65.2637 29.3047 65.3105 29.3066 65.3496 29.3066C65.5762 29.3066 65.7637 29.2793 65.9121 29.2246C66.0605 29.1738 66.1797 29.0898 66.2695 28.9727C66.3633 28.8594 66.4414 28.7109 66.5039 28.5273L66.9727 27.2969ZM66.1348 21.6602L67.5703 26.3301L67.8223 27.9648L66.7559 28.1582L64.4648 21.6602H66.1348ZM74.4785 26.6523V23.7285C74.4785 23.5137 74.4414 23.3281 74.3672 23.1719C74.293 23.0156 74.1797 22.8945 74.0273 22.8086C73.875 22.7227 73.6816 22.6797 73.4473 22.6797C73.2402 22.6797 73.0586 22.7148 72.9023 22.7852C72.75 22.8555 72.6328 22.9551 72.5508 23.084C72.4688 23.209 72.4277 23.3535 72.4277 23.5176H70.875C70.875 23.2559 70.9375 23.0078 71.0625 22.7734C71.1875 22.5352 71.3652 22.3242 71.5957 22.1406C71.8301 21.9531 72.1094 21.8066 72.4336 21.7012C72.7617 21.5957 73.1289 21.543 73.5352 21.543C74.0156 21.543 74.4434 21.625 74.8184 21.7891C75.1973 21.9492 75.4941 22.1914 75.709 22.5156C75.9277 22.8398 76.0371 23.248 76.0371 23.7402V26.5059C76.0371 26.8223 76.0566 27.0938 76.0957 27.3203C76.1387 27.543 76.2012 27.7363 76.2832 27.9004V28H74.707C74.6328 27.8398 74.5762 27.6367 74.5371 27.3906C74.498 27.1406 74.4785 26.8945 74.4785 26.6523ZM74.6953 24.1387L74.707 25.0586H73.7285C73.4863 25.0586 73.2734 25.084 73.0898 25.1348C72.9062 25.1816 72.7559 25.252 72.6387 25.3457C72.5215 25.4355 72.4336 25.5449 72.375 25.6738C72.3164 25.7988 72.2871 25.9414 72.2871 26.1016C72.2871 26.2578 72.3223 26.3984 72.3926 26.5234C72.4668 26.6484 72.5723 26.748 72.709 26.8223C72.8496 26.8926 73.0137 26.9277 73.2012 26.9277C73.4746 26.9277 73.7129 26.873 73.916 26.7637C74.1191 26.6504 74.2773 26.5137 74.3906 26.3535C74.5039 26.1934 74.5645 26.041 74.5723 25.8965L75.0176 26.5645C74.9629 26.7246 74.8809 26.8945 74.7715 27.0742C74.6621 27.2539 74.5215 27.4219 74.3496 27.5781C74.1777 27.7344 73.9707 27.8633 73.7285 27.9648C73.4863 28.0664 73.2051 28.1172 72.8848 28.1172C72.4746 28.1172 72.1074 28.0352 71.7832 27.8711C71.459 27.707 71.2031 27.4824 71.0156 27.1973C70.8281 26.9121 70.7344 26.5879 70.7344 26.2246C70.7344 25.8887 70.7969 25.5918 70.9219 25.334C71.0469 25.0762 71.2324 24.8594 71.4785 24.6836C71.7246 24.5039 72.0293 24.3691 72.3926 24.2793C72.7598 24.1855 73.1797 24.1387 73.6523 24.1387H74.6953ZM79.0723 19V28H77.5195V19H79.0723ZM86.9238 24.1973H84.7441L84.7324 23.0605H86.6016C86.9219 23.0605 87.1895 23.0156 87.4043 22.9258C87.6191 22.8359 87.7812 22.7051 87.8906 22.5332C88.0039 22.3613 88.0605 22.1523 88.0605 21.9062C88.0605 21.6328 88.0078 21.4102 87.9023 21.2383C87.8008 21.0664 87.6406 20.9414 87.4219 20.8633C87.2031 20.7812 86.9258 20.7402 86.5898 20.7402H85.2656V28H83.6543V19.4688H86.5898C87.0742 19.4688 87.5059 19.5156 87.8848 19.6094C88.2676 19.6992 88.5918 19.8398 88.8574 20.0312C89.123 20.2227 89.3242 20.4629 89.4609 20.752C89.6016 21.041 89.6719 21.3848 89.6719 21.7832C89.6719 22.1348 89.5898 22.459 89.4258 22.7559C89.2656 23.0488 89.0176 23.2871 88.6816 23.4707C88.3496 23.6543 87.9277 23.7598 87.416 23.7871L86.9238 24.1973ZM86.8535 28H84.2695L84.9434 26.7344H86.8535C87.1738 26.7344 87.4375 26.6816 87.6445 26.5762C87.8555 26.4707 88.0117 26.3262 88.1133 26.1426C88.2188 25.9551 88.2715 25.7402 88.2715 25.498C88.2715 25.2324 88.2246 25.002 88.1309 24.8066C88.041 24.6113 87.8965 24.4609 87.6973 24.3555C87.502 24.25 87.2441 24.1973 86.9238 24.1973H85.248L85.2598 23.0605H87.3926L87.7617 23.5C88.2539 23.5039 88.6543 23.6016 88.9629 23.793C89.2754 23.9844 89.5059 24.2305 89.6543 24.5312C89.8027 24.832 89.877 25.1562 89.877 25.5039C89.877 26.0508 89.7578 26.5098 89.5195 26.8809C89.2852 27.252 88.9414 27.5312 88.4883 27.7188C88.0391 27.9062 87.4941 28 86.8535 28ZM94.6465 26.6523V23.7285C94.6465 23.5137 94.6094 23.3281 94.5352 23.1719C94.4609 23.0156 94.3477 22.8945 94.1953 22.8086C94.043 22.7227 93.8496 22.6797 93.6152 22.6797C93.4082 22.6797 93.2266 22.7148 93.0703 22.7852C92.918 22.8555 92.8008 22.9551 92.7188 23.084C92.6367 23.209 92.5957 23.3535 92.5957 23.5176H91.043C91.043 23.2559 91.1055 23.0078 91.2305 22.7734C91.3555 22.5352 91.5332 22.3242 91.7637 22.1406C91.998 21.9531 92.2773 21.8066 92.6016 21.7012C92.9297 21.5957 93.2969 21.543 93.7031 21.543C94.1836 21.543 94.6113 21.625 94.9863 21.7891C95.3652 21.9492 95.6621 22.1914 95.877 22.5156C96.0957 22.8398 96.2051 23.248 96.2051 23.7402V26.5059C96.2051 26.8223 96.2246 27.0938 96.2637 27.3203C96.3066 27.543 96.3691 27.7363 96.4512 27.9004V28H94.875C94.8008 27.8398 94.7441 27.6367 94.7051 27.3906C94.666 27.1406 94.6465 26.8945 94.6465 26.6523ZM94.8633 24.1387L94.875 25.0586H93.8965C93.6543 25.0586 93.4414 25.084 93.2578 25.1348C93.0742 25.1816 92.9238 25.252 92.8066 25.3457C92.6895 25.4355 92.6016 25.5449 92.543 25.6738C92.4844 25.7988 92.4551 25.9414 92.4551 26.1016C92.4551 26.2578 92.4902 26.3984 92.5605 26.5234C92.6348 26.6484 92.7402 26.748 92.877 26.8223C93.0176 26.8926 93.1816 26.9277 93.3691 26.9277C93.6426 26.9277 93.8809 26.873 94.084 26.7637C94.2871 26.6504 94.4453 26.5137 94.5586 26.3535C94.6719 26.1934 94.7324 26.041 94.7402 25.8965L95.1855 26.5645C95.1309 26.7246 95.0488 26.8945 94.9395 27.0742C94.8301 27.2539 94.6895 27.4219 94.5176 27.5781C94.3457 27.7344 94.1387 27.8633 93.8965 27.9648C93.6543 28.0664 93.373 28.1172 93.0527 28.1172C92.6426 28.1172 92.2754 28.0352 91.9512 27.8711C91.627 27.707 91.3711 27.4824 91.1836 27.1973C90.9961 26.9121 90.9023 26.5879 90.9023 26.2246C90.9023 25.8887 90.9648 25.5918 91.0898 25.334C91.2148 25.0762 91.4004 24.8594 91.6465 24.6836C91.8926 24.5039 92.1973 24.3691 92.5605 24.2793C92.9277 24.1855 93.3477 24.1387 93.8203 24.1387H94.8633ZM99.1172 23.0137V28H97.5703V21.6602H99.0234L99.1172 23.0137ZM98.8711 24.6016H98.4141C98.418 24.1406 98.4805 23.7227 98.6016 23.3477C98.7227 22.9727 98.8926 22.6504 99.1113 22.3809C99.334 22.1113 99.5977 21.9043 99.9023 21.7598C100.207 21.6152 100.547 21.543 100.922 21.543C101.227 21.543 101.502 21.5859 101.748 21.6719C101.994 21.7578 102.205 21.8945 102.381 22.082C102.561 22.2695 102.697 22.5156 102.791 22.8203C102.889 23.1211 102.938 23.4922 102.938 23.9336V28H101.379V23.9219C101.379 23.6328 101.336 23.4043 101.25 23.2363C101.168 23.0684 101.047 22.9492 100.887 22.8789C100.73 22.8086 100.537 22.7734 100.307 22.7734C100.068 22.7734 99.8594 22.8223 99.6797 22.9199C99.5039 23.0137 99.3555 23.1445 99.2344 23.3125C99.1172 23.4805 99.0273 23.6738 98.9648 23.8926C98.9023 24.1113 98.8711 24.3477 98.8711 24.6016ZM105.85 18.9941V28H104.303V18.9941H105.85ZM109.822 21.6602L107.062 24.7598L105.568 26.2773L105.076 25.0762L106.23 23.623L107.953 21.6602H109.822ZM108.24 28L106.277 25.0469L107.309 24.0449L110.033 28H108.24Z" fill="white"/>
<path d="M247.617 100.579C247.617 138.687 147.337 149 200.585 149C253.834 149 297 118.108 297 80C297 41.8923 253.834 11 200.585 11C147.337 11 247.617 62.4713 247.617 100.579Z" fill="url(#paint0_linear_71_166)"/>
<path d="M283.658 87.4511C285.131 85.8403 286.05 83.7118 286.108 81.3571C286.166 79.0023 285.352 76.8313 283.957 75.1471C283.917 75.1006 283.861 75.0713 283.8 75.0654C283.739 75.0595 283.678 75.0775 283.63 75.1156L282.347 76.1391C282.246 76.2216 282.23 76.3707 282.313 76.4723C283.406 77.7769 284.044 79.4689 283.999 81.3053C283.954 83.1416 283.234 84.8002 282.08 86.0496C281.993 86.1471 282.001 86.2968 282.099 86.3841L283.329 87.4694C283.424 87.5538 283.571 87.5456 283.658 87.4511ZM287.677 90.9903C289.905 88.4456 291.29 85.1359 291.38 81.4866C291.47 77.8373 290.248 74.4635 288.148 71.8096C288.109 71.761 288.052 71.7298 287.99 71.7228C287.929 71.7158 287.866 71.7335 287.818 71.7721L286.535 72.7956C286.434 72.8752 286.418 73.0243 286.498 73.1229C288.3 75.4032 289.348 78.3039 289.271 81.4348C289.194 84.5657 288.005 87.4113 286.093 89.5975C286.009 89.695 286.017 89.8418 286.114 89.9262L287.345 91.0115C287.443 91.0959 287.592 91.0879 287.677 90.9903ZM291.664 94.5082C294.668 91.0243 296.531 86.516 296.653 81.5575C296.774 76.6313 295.157 72.0667 292.363 68.4492C292.344 68.4243 292.32 68.4035 292.293 68.388C292.266 68.3725 292.236 68.3625 292.204 68.3588C292.173 68.355 292.142 68.3575 292.112 68.3661C292.082 68.3746 292.054 68.3892 292.029 68.4087L290.747 69.4322C290.648 69.5119 290.63 69.658 290.707 69.7566C293.209 73.0035 294.653 77.092 294.544 81.5057C294.435 85.9516 292.768 89.99 290.077 93.1182C289.993 93.2158 290.004 93.3626 290.101 93.4471L291.332 94.5323C291.429 94.6197 291.579 94.6087 291.664 94.5082ZM279.243 79.2835C278.746 79.2713 278.264 79.4571 277.904 79.8C277.544 80.1429 277.335 80.6148 277.322 81.1119C277.31 81.6091 277.496 82.0907 277.839 82.4508C278.182 82.811 278.654 83.0202 279.151 83.0324C279.648 83.0446 280.13 82.8589 280.49 82.516C280.85 82.1731 281.059 81.7012 281.071 81.204C281.083 80.7069 280.898 80.2253 280.555 79.8651C280.212 79.505 279.74 79.2958 279.243 79.2835Z" fill="white"/>
<path d="M252.342 117.233V118H248.577V117.233H252.342ZM248.768 110.891V118H247.825V110.891H248.768ZM251.844 113.947V114.714H248.577V113.947H251.844ZM252.293 110.891V111.662H248.577V110.891H252.293ZM253.982 112.717L255.14 114.641L256.312 112.717H257.371L255.643 115.324L257.425 118H256.38L255.159 116.018L253.938 118H252.889L254.666 115.324L252.942 112.717H253.982ZM259.236 113.732V120.031H258.328V112.717H259.158L259.236 113.732ZM262.796 115.314V115.417C262.796 115.801 262.75 116.158 262.659 116.486C262.568 116.812 262.435 117.095 262.259 117.336C262.086 117.577 261.873 117.764 261.619 117.897C261.365 118.031 261.074 118.098 260.745 118.098C260.41 118.098 260.114 118.042 259.856 117.932C259.599 117.821 259.381 117.66 259.202 117.448C259.023 117.237 258.88 116.983 258.772 116.687C258.668 116.39 258.597 116.057 258.558 115.686V115.139C258.597 114.748 258.67 114.398 258.777 114.089C258.885 113.78 259.026 113.516 259.202 113.298C259.381 113.076 259.598 112.909 259.852 112.795C260.105 112.678 260.398 112.619 260.73 112.619C261.062 112.619 261.357 112.684 261.614 112.814C261.871 112.941 262.088 113.124 262.264 113.361C262.439 113.599 262.571 113.884 262.659 114.216C262.75 114.545 262.796 114.911 262.796 115.314ZM261.888 115.417V115.314C261.888 115.051 261.86 114.803 261.805 114.572C261.749 114.338 261.663 114.133 261.546 113.957C261.432 113.778 261.285 113.638 261.106 113.537C260.927 113.433 260.714 113.381 260.467 113.381C260.239 113.381 260.04 113.42 259.871 113.498C259.705 113.576 259.563 113.682 259.446 113.815C259.329 113.946 259.233 114.095 259.158 114.265C259.087 114.431 259.033 114.603 258.997 114.782V116.047C259.062 116.275 259.153 116.49 259.271 116.691C259.388 116.89 259.544 117.051 259.739 117.175C259.935 117.295 260.18 117.355 260.477 117.355C260.721 117.355 260.931 117.305 261.106 117.204C261.285 117.1 261.432 116.958 261.546 116.779C261.663 116.6 261.749 116.395 261.805 116.164C261.86 115.93 261.888 115.681 261.888 115.417ZM264.93 112.717V118H264.021V112.717H264.93ZM263.953 111.315C263.953 111.169 263.997 111.045 264.085 110.944C264.176 110.843 264.31 110.793 264.485 110.793C264.658 110.793 264.79 110.843 264.881 110.944C264.975 111.045 265.022 111.169 265.022 111.315C265.022 111.455 264.975 111.576 264.881 111.677C264.79 111.774 264.658 111.823 264.485 111.823C264.31 111.823 264.176 111.774 264.085 111.677C263.997 111.576 263.953 111.455 263.953 111.315ZM267.283 113.547V118H266.38V112.717H267.259L267.283 113.547ZM268.934 112.688L268.929 113.527C268.854 113.511 268.782 113.501 268.714 113.498C268.649 113.492 268.574 113.488 268.489 113.488C268.281 113.488 268.097 113.521 267.938 113.586C267.778 113.651 267.643 113.742 267.532 113.859C267.422 113.977 267.334 114.117 267.269 114.279C267.207 114.439 267.166 114.615 267.146 114.807L266.893 114.953C266.893 114.634 266.924 114.335 266.985 114.055C267.05 113.775 267.15 113.527 267.283 113.312C267.417 113.094 267.586 112.925 267.791 112.805C267.999 112.681 268.247 112.619 268.533 112.619C268.598 112.619 268.673 112.627 268.758 112.644C268.842 112.657 268.901 112.671 268.934 112.688ZM271.341 117.453L272.811 112.717H273.777L271.658 118.815C271.609 118.946 271.544 119.086 271.463 119.235C271.385 119.388 271.284 119.533 271.16 119.67C271.036 119.807 270.887 119.917 270.711 120.002C270.538 120.09 270.332 120.134 270.091 120.134C270.019 120.134 269.928 120.124 269.817 120.104C269.707 120.085 269.629 120.069 269.583 120.056L269.578 119.323C269.604 119.326 269.645 119.33 269.7 119.333C269.759 119.34 269.799 119.343 269.822 119.343C270.027 119.343 270.201 119.315 270.345 119.26C270.488 119.208 270.608 119.118 270.706 118.991C270.807 118.868 270.893 118.697 270.965 118.479L271.341 117.453ZM270.262 112.717L271.634 116.818L271.868 117.771L271.219 118.103L269.275 112.717H270.262ZM279.134 118H277.649L277.659 117.233H279.134C279.642 117.233 280.065 117.128 280.403 116.916C280.742 116.701 280.996 116.402 281.165 116.018C281.338 115.63 281.424 115.178 281.424 114.66V114.226C281.424 113.819 281.375 113.457 281.277 113.142C281.18 112.823 281.036 112.554 280.848 112.336C280.659 112.115 280.428 111.947 280.154 111.833C279.884 111.719 279.573 111.662 279.222 111.662H277.62V110.891H279.222C279.687 110.891 280.112 110.969 280.496 111.125C280.88 111.278 281.211 111.501 281.487 111.794C281.767 112.084 281.982 112.435 282.132 112.849C282.282 113.259 282.356 113.721 282.356 114.235V114.66C282.356 115.174 282.282 115.638 282.132 116.052C281.982 116.462 281.766 116.812 281.482 117.102C281.202 117.391 280.864 117.614 280.467 117.771C280.073 117.924 279.629 118 279.134 118ZM278.152 110.891V118H277.21V110.891H278.152ZM286.751 117.097V114.377C286.751 114.169 286.709 113.988 286.624 113.835C286.543 113.679 286.419 113.558 286.253 113.474C286.087 113.389 285.882 113.347 285.638 113.347C285.41 113.347 285.21 113.386 285.037 113.464C284.868 113.542 284.734 113.645 284.637 113.771C284.542 113.898 284.495 114.035 284.495 114.182H283.592C283.592 113.993 283.641 113.806 283.738 113.62C283.836 113.435 283.976 113.267 284.158 113.117C284.344 112.964 284.565 112.844 284.822 112.756C285.083 112.665 285.372 112.619 285.691 112.619C286.076 112.619 286.414 112.684 286.707 112.814C287.003 112.945 287.234 113.142 287.4 113.405C287.57 113.666 287.654 113.993 287.654 114.387V116.848C287.654 117.023 287.669 117.211 287.698 117.409C287.731 117.608 287.778 117.779 287.84 117.922V118H286.897C286.852 117.896 286.816 117.757 286.79 117.585C286.764 117.409 286.751 117.246 286.751 117.097ZM286.907 114.797L286.917 115.432H286.004C285.747 115.432 285.517 115.453 285.315 115.495C285.114 115.534 284.944 115.594 284.808 115.676C284.671 115.757 284.567 115.86 284.495 115.983C284.424 116.104 284.388 116.245 284.388 116.408C284.388 116.574 284.425 116.726 284.5 116.862C284.575 116.999 284.687 117.108 284.837 117.189C284.99 117.268 285.177 117.307 285.398 117.307C285.675 117.307 285.919 117.248 286.131 117.131C286.342 117.014 286.51 116.87 286.634 116.701C286.761 116.532 286.829 116.368 286.839 116.208L287.225 116.643C287.202 116.779 287.14 116.931 287.039 117.097C286.938 117.263 286.803 117.422 286.634 117.575C286.468 117.725 286.269 117.85 286.038 117.951C285.81 118.049 285.553 118.098 285.267 118.098C284.909 118.098 284.594 118.028 284.324 117.888C284.057 117.748 283.849 117.561 283.699 117.326C283.553 117.089 283.479 116.823 283.479 116.53C283.479 116.247 283.535 115.998 283.646 115.783C283.756 115.565 283.916 115.384 284.124 115.241C284.332 115.095 284.583 114.984 284.876 114.909C285.169 114.834 285.496 114.797 285.857 114.797H286.907ZM291.287 112.717V113.41H288.431V112.717H291.287ZM289.397 111.433H290.301V116.691C290.301 116.87 290.328 117.006 290.384 117.097C290.439 117.188 290.511 117.248 290.599 117.277C290.687 117.307 290.781 117.321 290.882 117.321C290.957 117.321 291.035 117.315 291.116 117.302C291.201 117.285 291.264 117.272 291.307 117.263L291.312 118C291.24 118.023 291.146 118.044 291.028 118.063C290.914 118.086 290.776 118.098 290.613 118.098C290.392 118.098 290.188 118.054 290.003 117.966C289.817 117.878 289.669 117.731 289.559 117.526C289.451 117.318 289.397 117.038 289.397 116.687V111.433ZM294.539 118.098C294.171 118.098 293.838 118.036 293.538 117.912C293.242 117.785 292.986 117.608 292.771 117.38C292.56 117.152 292.397 116.882 292.283 116.569C292.169 116.257 292.112 115.915 292.112 115.544V115.339C292.112 114.909 292.176 114.527 292.303 114.191C292.43 113.853 292.602 113.566 292.82 113.332C293.038 113.098 293.286 112.92 293.562 112.8C293.839 112.679 294.126 112.619 294.422 112.619C294.799 112.619 295.125 112.684 295.398 112.814C295.675 112.945 295.901 113.127 296.077 113.361C296.253 113.592 296.383 113.866 296.468 114.182C296.552 114.494 296.595 114.836 296.595 115.207V115.612H292.649V114.875H295.691V114.807C295.678 114.572 295.63 114.344 295.545 114.123C295.464 113.902 295.333 113.719 295.154 113.576C294.975 113.433 294.731 113.361 294.422 113.361C294.217 113.361 294.028 113.405 293.855 113.493C293.683 113.578 293.535 113.705 293.411 113.874C293.287 114.043 293.191 114.25 293.123 114.494C293.055 114.738 293.021 115.02 293.021 115.339V115.544C293.021 115.795 293.055 116.031 293.123 116.252C293.195 116.47 293.297 116.662 293.431 116.828C293.567 116.994 293.732 117.124 293.924 117.219C294.119 117.313 294.34 117.36 294.588 117.36C294.907 117.36 295.177 117.295 295.398 117.165C295.62 117.035 295.813 116.861 295.979 116.643L296.526 117.077C296.412 117.25 296.268 117.414 296.092 117.57C295.916 117.727 295.7 117.854 295.442 117.951C295.188 118.049 294.887 118.098 294.539 118.098Z" fill="#DED8D8"/>
<path d="M264.054 125.879V126.963C264.054 127.546 264.002 128.037 263.897 128.438C263.793 128.838 263.644 129.16 263.448 129.404C263.253 129.648 263.017 129.826 262.74 129.937C262.467 130.044 262.158 130.098 261.812 130.098C261.539 130.098 261.287 130.063 261.056 129.995C260.825 129.927 260.616 129.818 260.431 129.668C260.248 129.515 260.092 129.316 259.962 129.072C259.832 128.828 259.732 128.532 259.664 128.184C259.596 127.835 259.562 127.428 259.562 126.963V125.879C259.562 125.296 259.614 124.808 259.718 124.414C259.825 124.02 259.977 123.704 260.172 123.467C260.367 123.226 260.602 123.053 260.875 122.949C261.152 122.845 261.461 122.793 261.803 122.793C262.079 122.793 262.333 122.827 262.564 122.896C262.799 122.961 263.007 123.066 263.189 123.213C263.372 123.356 263.526 123.548 263.653 123.789C263.784 124.027 263.883 124.318 263.951 124.663C264.02 125.008 264.054 125.413 264.054 125.879ZM263.146 127.109V125.728C263.146 125.409 263.126 125.129 263.087 124.888C263.051 124.644 262.997 124.435 262.926 124.263C262.854 124.09 262.763 123.95 262.652 123.843C262.545 123.735 262.42 123.657 262.276 123.608C262.136 123.556 261.979 123.53 261.803 123.53C261.588 123.53 261.397 123.571 261.231 123.652C261.065 123.73 260.925 123.856 260.812 124.028C260.701 124.201 260.616 124.427 260.558 124.707C260.499 124.987 260.47 125.327 260.47 125.728V127.109C260.47 127.428 260.488 127.71 260.523 127.954C260.562 128.198 260.619 128.41 260.694 128.589C260.769 128.765 260.86 128.91 260.968 129.023C261.075 129.137 261.199 129.222 261.339 129.277C261.482 129.329 261.64 129.355 261.812 129.355C262.034 129.355 262.228 129.313 262.394 129.229C262.56 129.144 262.698 129.012 262.809 128.833C262.923 128.651 263.007 128.418 263.062 128.135C263.118 127.848 263.146 127.507 263.146 127.109ZM266.534 126.001H267.179C267.494 126.001 267.755 125.949 267.96 125.845C268.168 125.737 268.323 125.592 268.424 125.41C268.528 125.225 268.58 125.016 268.58 124.785C268.58 124.512 268.535 124.282 268.443 124.097C268.352 123.911 268.215 123.771 268.033 123.677C267.851 123.582 267.62 123.535 267.34 123.535C267.086 123.535 266.861 123.586 266.666 123.687C266.474 123.784 266.323 123.924 266.212 124.106C266.104 124.289 266.051 124.504 266.051 124.751H265.147C265.147 124.39 265.239 124.061 265.421 123.765C265.603 123.468 265.859 123.232 266.188 123.057C266.52 122.881 266.904 122.793 267.34 122.793C267.77 122.793 268.146 122.869 268.468 123.022C268.79 123.172 269.041 123.397 269.22 123.696C269.399 123.993 269.488 124.362 269.488 124.805C269.488 124.984 269.446 125.176 269.361 125.381C269.28 125.583 269.151 125.771 268.976 125.947C268.803 126.123 268.578 126.268 268.302 126.382C268.025 126.493 267.693 126.548 267.306 126.548H266.534V126.001ZM266.534 126.743V126.201H267.306C267.758 126.201 268.132 126.255 268.429 126.362C268.725 126.47 268.958 126.613 269.127 126.792C269.299 126.971 269.42 127.168 269.488 127.383C269.56 127.594 269.596 127.806 269.596 128.018C269.596 128.35 269.539 128.644 269.425 128.901C269.314 129.159 269.156 129.377 268.951 129.556C268.749 129.735 268.512 129.87 268.238 129.961C267.965 130.052 267.667 130.098 267.345 130.098C267.035 130.098 266.744 130.054 266.471 129.966C266.201 129.878 265.961 129.751 265.753 129.585C265.545 129.416 265.382 129.209 265.265 128.965C265.147 128.717 265.089 128.436 265.089 128.12H265.992C265.992 128.368 266.046 128.584 266.153 128.77C266.264 128.955 266.42 129.1 266.622 129.204C266.827 129.305 267.068 129.355 267.345 129.355C267.621 129.355 267.859 129.308 268.058 129.214C268.259 129.116 268.414 128.97 268.521 128.774C268.632 128.579 268.688 128.333 268.688 128.037C268.688 127.741 268.626 127.498 268.502 127.31C268.378 127.118 268.202 126.976 267.975 126.885C267.75 126.79 267.485 126.743 267.179 126.743H266.534ZM274.083 122.891L271.119 130.61H270.343L273.312 122.891H274.083ZM279.63 129.258V130H274.977V129.351L277.306 126.758C277.592 126.439 277.813 126.169 277.97 125.947C278.129 125.723 278.24 125.522 278.302 125.347C278.367 125.168 278.399 124.985 278.399 124.8C278.399 124.565 278.351 124.354 278.253 124.165C278.159 123.973 278.019 123.82 277.833 123.706C277.647 123.592 277.423 123.535 277.159 123.535C276.843 123.535 276.58 123.597 276.368 123.721C276.16 123.841 276.004 124.01 275.899 124.229C275.795 124.447 275.743 124.697 275.743 124.98H274.84C274.84 124.58 274.928 124.214 275.104 123.882C275.279 123.55 275.54 123.286 275.885 123.091C276.23 122.892 276.655 122.793 277.159 122.793C277.608 122.793 277.993 122.873 278.312 123.032C278.631 123.188 278.875 123.41 279.044 123.696C279.216 123.979 279.303 124.312 279.303 124.692C279.303 124.901 279.267 125.112 279.195 125.327C279.127 125.539 279.031 125.75 278.907 125.962C278.787 126.174 278.645 126.382 278.482 126.587C278.323 126.792 278.152 126.994 277.97 127.192L276.065 129.258H279.63ZM285.255 129.258V130H280.602V129.351L282.931 126.758C283.217 126.439 283.438 126.169 283.595 125.947C283.754 125.723 283.865 125.522 283.927 125.347C283.992 125.168 284.024 124.985 284.024 124.8C284.024 124.565 283.976 124.354 283.878 124.165C283.784 123.973 283.644 123.82 283.458 123.706C283.272 123.592 283.048 123.535 282.784 123.535C282.468 123.535 282.205 123.597 281.993 123.721C281.785 123.841 281.629 124.01 281.524 124.229C281.42 124.447 281.368 124.697 281.368 124.98H280.465C280.465 124.58 280.553 124.214 280.729 123.882C280.904 123.55 281.165 123.286 281.51 123.091C281.855 122.892 282.28 122.793 282.784 122.793C283.233 122.793 283.618 122.873 283.937 123.032C284.256 123.188 284.5 123.41 284.669 123.696C284.841 123.979 284.928 124.312 284.928 124.692C284.928 124.901 284.892 125.112 284.82 125.327C284.752 125.539 284.656 125.75 284.532 125.962C284.412 126.174 284.27 126.382 284.107 126.587C283.948 126.792 283.777 126.994 283.595 127.192L281.69 129.258H285.255Z" fill="white"/>
<defs>
<filter id="filter0_d_71_166" x="0" y="0" width="321" height="163" filterUnits="userSpaceOnUse" color-interpolation-filters="sRGB">
<feFlood flood-opacity="0" result="BackgroundImageFix"/>
<feColorMatrix in="SourceAlpha" type="matrix" values="0 0 0 0 0 0 0 0 0 0 0 0 0 0 0 0 0 0 127 0" result="hardAlpha"/>
<feOffset dy="4"/>
<feGaussianBlur stdDeviation="5"/>
<feComposite in2="hardAlpha" operator="out"/>
<feColorMatrix type="matrix" values="0 0 0 0 0 0 0 0 0 0 0 0 0 0 0 0 0 0 0.13 0"/>
<feBlend mode="normal" in2="BackgroundImageFix" result="effect1_dropShadow_71_166"/>
<feBlend mode="normal" in="SourceGraphic" in2="effect1_dropShadow_71_166" result="shape"/>
</filter>
<linearGradient id="paint0_linear_71_166" x1="241" y1="11" x2="241" y2="149" gradientUnits="userSpaceOnUse">
<stop stop-color="#76A1E1"/>
<stop offset="1" stop-color="#C4C4C4" stop-opacity="0"/>
</linearGradient>
</defs>
</svg>
