<svg width="80" height="80" viewBox="0 0 80 80" fill="none" xmlns="http://www.w3.org/2000/svg">
<g filter="url(#filter0_d_47_108)">
<rect x="10" y="6" width="60" height="60" rx="5" fill="#E9F6FE"/>
<path d="M38.5 26C32.7016 26 28 30.7016 28 36.5C28 42.2984 32.7016 47 38.5 47C44.2984 47 49 42.2984 49 36.5C49 30.7016 44.2984 26 38.5 26ZM39.0227 41.5906L39.0273 42.3336C39.0273 42.4367 38.943 42.5234 38.8398 42.5234H38.1742C38.0711 42.5234 37.9867 42.4391 37.9867 42.3359V41.6C35.9055 41.4453 34.9258 40.2594 34.8203 38.9703C34.8109 38.8602 34.8977 38.7664 35.0078 38.7664H36.0906C36.182 38.7664 36.2617 38.832 36.2758 38.9211C36.3953 39.6641 36.9742 40.2195 38.0125 40.3578V37.0133L37.4336 36.8656C36.2078 36.5727 35.0406 35.8086 35.0406 34.2242C35.0406 32.5156 36.3391 31.5969 37.9984 31.4352V30.6617C37.9984 30.5586 38.0828 30.4742 38.1859 30.4742H38.8445C38.9477 30.4742 39.032 30.5586 39.032 30.6617V31.4281C40.6375 31.5898 41.8422 32.5273 41.9828 33.9875C41.9945 34.0977 41.9078 34.1938 41.7953 34.1938H40.743C40.6492 34.1938 40.5695 34.1234 40.5578 34.032C40.4641 33.3477 39.9156 32.7898 39.0227 32.668V35.8156L39.618 35.9539C41.1367 36.3289 42.1703 37.0555 42.1703 38.682C42.1703 40.4469 40.8578 41.4313 39.0227 41.5906ZM36.4984 34.1164C36.4984 34.7117 36.8664 35.1734 37.6586 35.4594C37.7688 35.5039 37.8789 35.5391 38.0102 35.5766V32.6703C37.1453 32.7805 36.4984 33.2656 36.4984 34.1164ZM39.2289 37.2852C39.1633 37.2711 39.0977 37.2547 39.0227 37.2336V40.3672C40.0211 40.2781 40.7102 39.7297 40.7102 38.8109C40.7102 38.0914 40.3375 37.6227 39.2289 37.2852Z" fill="#003ABC"/>
</g>
<defs>
<filter id="filter0_d_47_108" x="0" y="0" width="80" height="80" filterUnits="userSpaceOnUse" color-interpolation-filters="sRGB">
<feFlood flood-opacity="0" result="BackgroundImageFix"/>
<feColorMatrix in="SourceAlpha" type="matrix" values="0 0 0 0 0 0 0 0 0 0 0 0 0 0 0 0 0 0 127 0" result="hardAlpha"/>
<feOffset dy="4"/>
<feGaussianBlur stdDeviation="5"/>
<feComposite in2="hardAlpha" operator="out"/>
<feColorMatrix type="matrix" values="0 0 0 0 0 0 0 0 0 0 0 0 0 0 0 0 0 0 0.13 0"/>
<feBlend mode="normal" in2="BackgroundImageFix" result="effect1_dropShadow_47_108"/>
<feBlend mode="normal" in="SourceGraphic" in2="effect1_dropShadow_47_108" result="shape"/>
</filter>
</defs>
</svg>
