<svg width="207" height="40" viewBox="0 0 207 40" fill="none" xmlns="http://www.w3.org/2000/svg">
<path d="M70.0469 20.0146H66.8037L66.7861 18.6523H69.7305C70.2168 18.6523 70.6416 18.5703 71.0049 18.4062C71.3682 18.2422 71.6494 18.0078 71.8486 17.7031C72.0537 17.3926 72.1562 17.0234 72.1562 16.5957C72.1562 16.127 72.0654 15.7461 71.8838 15.4531C71.708 15.1543 71.4355 14.9375 71.0664 14.8027C70.7031 14.6621 70.2402 14.5918 69.6777 14.5918H67.1816V26H65.4854V13.2031H69.6777C70.334 13.2031 70.9199 13.2705 71.4355 13.4053C71.9512 13.5342 72.3877 13.7393 72.7451 14.0205C73.1084 14.2959 73.3838 14.6475 73.5713 15.0752C73.7588 15.5029 73.8525 16.0156 73.8525 16.6133C73.8525 17.1406 73.7178 17.6182 73.4482 18.0459C73.1787 18.4678 72.8037 18.8135 72.3232 19.083C71.8486 19.3525 71.292 19.5254 70.6533 19.6016L70.0469 20.0146ZM69.9678 26H66.1357L67.0938 24.6201H69.9678C70.5068 24.6201 70.9639 24.5264 71.3389 24.3389C71.7197 24.1514 72.0098 23.8877 72.209 23.5479C72.4082 23.2021 72.5078 22.7949 72.5078 22.3262C72.5078 21.8516 72.4229 21.4414 72.2529 21.0957C72.083 20.75 71.8164 20.4834 71.4531 20.2959C71.0898 20.1084 70.6211 20.0146 70.0469 20.0146H67.6299L67.6475 18.6523H70.9521L71.3125 19.1445C71.9277 19.1973 72.4492 19.373 72.877 19.6719C73.3047 19.9648 73.6299 20.3398 73.8525 20.7969C74.0811 21.2539 74.1953 21.7578 74.1953 22.3086C74.1953 23.1055 74.0195 23.7793 73.668 24.3301C73.3223 24.875 72.833 25.291 72.2002 25.5781C71.5674 25.8594 70.8232 26 69.9678 26ZM82.2725 23.8027V16.4902H83.9072V26H82.3516L82.2725 23.8027ZM82.5801 21.7988L83.2568 21.7812C83.2568 22.4141 83.1895 23 83.0547 23.5391C82.9258 24.0723 82.7148 24.5352 82.4219 24.9277C82.1289 25.3203 81.7451 25.6279 81.2705 25.8506C80.7959 26.0674 80.2188 26.1758 79.5391 26.1758C79.0762 26.1758 78.6514 26.1084 78.2646 25.9736C77.8838 25.8389 77.5557 25.6309 77.2803 25.3496C77.0049 25.0684 76.791 24.7021 76.6387 24.251C76.4922 23.7998 76.4189 23.2578 76.4189 22.625V16.4902H78.0449V22.6426C78.0449 23.0703 78.0918 23.4248 78.1855 23.7061C78.2852 23.9814 78.417 24.2012 78.5811 24.3652C78.751 24.5234 78.9385 24.6348 79.1436 24.6992C79.3545 24.7637 79.5713 24.7959 79.7939 24.7959C80.4854 24.7959 81.0332 24.6641 81.4375 24.4004C81.8418 24.1309 82.1318 23.7705 82.3076 23.3193C82.4893 22.8623 82.5801 22.3555 82.5801 21.7988ZM92.3799 24.1543V12.5H94.0146V26H92.5205L92.3799 24.1543ZM85.9814 21.3506V21.166C85.9814 20.4395 86.0693 19.7803 86.2451 19.1885C86.4268 18.5908 86.6816 18.0781 87.0098 17.6504C87.3438 17.2227 87.7393 16.8945 88.1963 16.666C88.6592 16.4316 89.1748 16.3145 89.7432 16.3145C90.3408 16.3145 90.8623 16.4199 91.3076 16.6309C91.7588 16.8359 92.1396 17.1377 92.4502 17.5361C92.7666 17.9287 93.0156 18.4033 93.1973 18.96C93.3789 19.5166 93.5049 20.1465 93.5752 20.8496V21.6582C93.5107 22.3555 93.3848 22.9824 93.1973 23.5391C93.0156 24.0957 92.7666 24.5703 92.4502 24.9629C92.1396 25.3555 91.7588 25.6572 91.3076 25.8682C90.8564 26.0732 90.3291 26.1758 89.7256 26.1758C89.1689 26.1758 88.6592 26.0557 88.1963 25.8154C87.7393 25.5752 87.3438 25.2383 87.0098 24.8047C86.6816 24.3711 86.4268 23.8613 86.2451 23.2754C86.0693 22.6836 85.9814 22.042 85.9814 21.3506ZM87.6162 21.166V21.3506C87.6162 21.8252 87.6631 22.2705 87.7568 22.6865C87.8564 23.1025 88.0088 23.4688 88.2139 23.7852C88.4189 24.1016 88.6797 24.3506 88.9961 24.5322C89.3125 24.708 89.6904 24.7959 90.1299 24.7959C90.6689 24.7959 91.1113 24.6816 91.457 24.4531C91.8086 24.2246 92.0898 23.9229 92.3008 23.5479C92.5117 23.1729 92.6758 22.7656 92.793 22.3262V20.208C92.7227 19.8857 92.6201 19.5752 92.4854 19.2764C92.3564 18.9717 92.1865 18.7021 91.9756 18.4678C91.7705 18.2275 91.5156 18.0371 91.2109 17.8965C90.9121 17.7559 90.5576 17.6855 90.1475 17.6855C89.7021 17.6855 89.3184 17.7793 88.9961 17.9668C88.6797 18.1484 88.4189 18.4004 88.2139 18.7227C88.0088 19.0391 87.8564 19.4082 87.7568 19.8301C87.6631 20.2461 87.6162 20.6914 87.6162 21.166ZM102.707 16.4902H104.184V25.7979C104.184 26.6357 104.014 27.3506 103.674 27.9424C103.334 28.5342 102.859 28.9824 102.25 29.2871C101.646 29.5977 100.949 29.7529 100.158 29.7529C99.8301 29.7529 99.4434 29.7002 98.998 29.5947C98.5586 29.4951 98.125 29.3223 97.6973 29.0762C97.2754 28.8359 96.9209 28.5107 96.6338 28.1006L97.4863 27.1338C97.8848 27.6143 98.3008 27.9482 98.7344 28.1357C99.1738 28.3232 99.6074 28.417 100.035 28.417C100.551 28.417 100.996 28.3203 101.371 28.127C101.746 27.9336 102.036 27.6465 102.241 27.2656C102.452 26.8906 102.558 26.4277 102.558 25.877V18.582L102.707 16.4902ZM96.1592 21.3506V21.166C96.1592 20.4395 96.2441 19.7803 96.4141 19.1885C96.5898 18.5908 96.8389 18.0781 97.1611 17.6504C97.4893 17.2227 97.8848 16.8945 98.3477 16.666C98.8105 16.4316 99.332 16.3145 99.9121 16.3145C100.51 16.3145 101.031 16.4199 101.477 16.6309C101.928 16.8359 102.309 17.1377 102.619 17.5361C102.936 17.9287 103.185 18.4033 103.366 18.96C103.548 19.5166 103.674 20.1465 103.744 20.8496V21.6582C103.68 22.3555 103.554 22.9824 103.366 23.5391C103.185 24.0957 102.936 24.5703 102.619 24.9629C102.309 25.3555 101.928 25.6572 101.477 25.8682C101.025 26.0732 100.498 26.1758 99.8945 26.1758C99.3262 26.1758 98.8105 26.0557 98.3477 25.8154C97.8906 25.5752 97.498 25.2383 97.1699 24.8047C96.8418 24.3711 96.5898 23.8613 96.4141 23.2754C96.2441 22.6836 96.1592 22.042 96.1592 21.3506ZM97.7852 21.166V21.3506C97.7852 21.8252 97.832 22.2705 97.9258 22.6865C98.0254 23.1025 98.1748 23.4688 98.374 23.7852C98.5791 24.1016 98.8398 24.3506 99.1562 24.5322C99.4727 24.708 99.8506 24.7959 100.29 24.7959C100.829 24.7959 101.274 24.6816 101.626 24.4531C101.978 24.2246 102.256 23.9229 102.461 23.5479C102.672 23.1729 102.836 22.7656 102.953 22.3262V20.208C102.889 19.8857 102.789 19.5752 102.654 19.2764C102.525 18.9717 102.355 18.7021 102.145 18.4678C101.939 18.2275 101.685 18.0371 101.38 17.8965C101.075 17.7559 100.718 17.6855 100.308 17.6855C99.8623 17.6855 99.4785 17.7793 99.1562 17.9668C98.8398 18.1484 98.5791 18.4004 98.374 18.7227C98.1748 19.0391 98.0254 19.4082 97.9258 19.8301C97.832 20.2461 97.7852 20.6914 97.7852 21.166ZM110.6 26.1758C109.938 26.1758 109.337 26.0645 108.798 25.8418C108.265 25.6133 107.805 25.2939 107.418 24.8838C107.037 24.4736 106.744 23.9873 106.539 23.4248C106.334 22.8623 106.231 22.2471 106.231 21.5791V21.21C106.231 20.4365 106.346 19.748 106.574 19.1445C106.803 18.5352 107.113 18.0195 107.506 17.5977C107.898 17.1758 108.344 16.8564 108.842 16.6396C109.34 16.4229 109.855 16.3145 110.389 16.3145C111.068 16.3145 111.654 16.4316 112.146 16.666C112.645 16.9004 113.052 17.2285 113.368 17.6504C113.685 18.0664 113.919 18.5586 114.071 19.127C114.224 19.6895 114.3 20.3047 114.3 20.9727V21.7021H107.198V20.375H112.674V20.252C112.65 19.8301 112.562 19.4199 112.41 19.0215C112.264 18.623 112.029 18.2949 111.707 18.0371C111.385 17.7793 110.945 17.6504 110.389 17.6504C110.02 17.6504 109.68 17.7295 109.369 17.8877C109.059 18.04 108.792 18.2686 108.569 18.5732C108.347 18.8779 108.174 19.25 108.051 19.6895C107.928 20.1289 107.866 20.6357 107.866 21.21V21.5791C107.866 22.0303 107.928 22.4551 108.051 22.8535C108.18 23.2461 108.364 23.5918 108.604 23.8906C108.851 24.1895 109.146 24.4238 109.492 24.5938C109.844 24.7637 110.242 24.8486 110.688 24.8486C111.262 24.8486 111.748 24.7314 112.146 24.4971C112.545 24.2627 112.894 23.9492 113.192 23.5566L114.177 24.3389C113.972 24.6494 113.711 24.9453 113.395 25.2266C113.078 25.5078 112.688 25.7363 112.226 25.9121C111.769 26.0879 111.227 26.1758 110.6 26.1758ZM120.18 16.4902V17.7383H115.038V16.4902H120.18ZM116.778 14.1787H118.404V23.6445C118.404 23.9668 118.454 24.21 118.554 24.374C118.653 24.5381 118.782 24.6465 118.94 24.6992C119.099 24.752 119.269 24.7783 119.45 24.7783C119.585 24.7783 119.726 24.7666 119.872 24.7432C120.024 24.7139 120.139 24.6904 120.215 24.6729L120.224 26C120.095 26.041 119.925 26.0791 119.714 26.1143C119.509 26.1553 119.26 26.1758 118.967 26.1758C118.568 26.1758 118.202 26.0967 117.868 25.9385C117.534 25.7803 117.268 25.5166 117.068 25.1475C116.875 24.7725 116.778 24.2686 116.778 23.6357V14.1787ZM134.523 21.9307H136.211C136.123 22.7393 135.892 23.4629 135.517 24.1016C135.142 24.7402 134.611 25.2471 133.926 25.6221C133.24 25.9912 132.385 26.1758 131.359 26.1758C130.609 26.1758 129.927 26.0352 129.312 25.7539C128.702 25.4727 128.178 25.0742 127.738 24.5586C127.299 24.0371 126.959 23.4131 126.719 22.6865C126.484 21.9541 126.367 21.1396 126.367 20.2432V18.9688C126.367 18.0723 126.484 17.2607 126.719 16.5342C126.959 15.8018 127.302 15.1748 127.747 14.6533C128.198 14.1318 128.74 13.7305 129.373 13.4492C130.006 13.168 130.718 13.0273 131.509 13.0273C132.476 13.0273 133.293 13.209 133.961 13.5723C134.629 13.9355 135.147 14.4395 135.517 15.084C135.892 15.7227 136.123 16.4639 136.211 17.3076H134.523C134.441 16.71 134.289 16.1973 134.066 15.7695C133.844 15.3359 133.527 15.002 133.117 14.7676C132.707 14.5332 132.171 14.416 131.509 14.416C130.94 14.416 130.439 14.5244 130.006 14.7412C129.578 14.958 129.218 15.2656 128.925 15.6641C128.638 16.0625 128.421 16.54 128.274 17.0967C128.128 17.6533 128.055 18.2715 128.055 18.9512V20.2432C128.055 20.8701 128.119 21.459 128.248 22.0098C128.383 22.5605 128.585 23.0439 128.854 23.46C129.124 23.876 129.467 24.2041 129.883 24.4443C130.299 24.6787 130.791 24.7959 131.359 24.7959C132.08 24.7959 132.654 24.6816 133.082 24.4531C133.51 24.2246 133.832 23.8965 134.049 23.4688C134.271 23.041 134.43 22.5283 134.523 21.9307ZM143.884 24.374V19.4785C143.884 19.1035 143.808 18.7783 143.655 18.5029C143.509 18.2217 143.286 18.0049 142.987 17.8525C142.688 17.7002 142.319 17.624 141.88 17.624C141.47 17.624 141.109 17.6943 140.799 17.835C140.494 17.9756 140.254 18.1602 140.078 18.3887C139.908 18.6172 139.823 18.8633 139.823 19.127H138.197C138.197 18.7871 138.285 18.4502 138.461 18.1162C138.637 17.7822 138.889 17.4805 139.217 17.2109C139.551 16.9355 139.949 16.7188 140.412 16.5605C140.881 16.3965 141.402 16.3145 141.977 16.3145C142.668 16.3145 143.277 16.4316 143.805 16.666C144.338 16.9004 144.754 17.2549 145.053 17.7295C145.357 18.1982 145.51 18.7871 145.51 19.4961V23.9258C145.51 24.2422 145.536 24.5791 145.589 24.9365C145.647 25.2939 145.732 25.6016 145.844 25.8594V26H144.147C144.065 25.8125 144.001 25.5635 143.954 25.2529C143.907 24.9365 143.884 24.6436 143.884 24.374ZM144.165 20.2344L144.183 21.377H142.539C142.076 21.377 141.663 21.415 141.3 21.4912C140.937 21.5615 140.632 21.6699 140.386 21.8164C140.14 21.9629 139.952 22.1475 139.823 22.3701C139.694 22.5869 139.63 22.8418 139.63 23.1348C139.63 23.4336 139.697 23.7061 139.832 23.9521C139.967 24.1982 140.169 24.3945 140.438 24.541C140.714 24.6816 141.051 24.752 141.449 24.752C141.947 24.752 142.387 24.6465 142.768 24.4355C143.148 24.2246 143.45 23.9668 143.673 23.6621C143.901 23.3574 144.024 23.0615 144.042 22.7744L144.736 23.5566C144.695 23.8027 144.584 24.0752 144.402 24.374C144.221 24.6729 143.978 24.96 143.673 25.2354C143.374 25.5049 143.017 25.7305 142.601 25.9121C142.19 26.0879 141.728 26.1758 141.212 26.1758C140.567 26.1758 140.002 26.0498 139.516 25.7979C139.035 25.5459 138.66 25.209 138.391 24.7871C138.127 24.3594 137.995 23.8818 137.995 23.3545C137.995 22.8447 138.095 22.3965 138.294 22.0098C138.493 21.6172 138.78 21.292 139.155 21.0342C139.53 20.7705 139.981 20.5713 140.509 20.4365C141.036 20.3018 141.625 20.2344 142.275 20.2344H144.165ZM149.834 12.5V26H148.199V12.5H149.834ZM156.25 24.8398C156.637 24.8398 156.994 24.7607 157.322 24.6025C157.65 24.4443 157.92 24.2275 158.131 23.9521C158.342 23.6709 158.462 23.3516 158.491 22.9941H160.038C160.009 23.5566 159.818 24.0811 159.467 24.5674C159.121 25.0479 158.667 25.4375 158.104 25.7363C157.542 26.0293 156.924 26.1758 156.25 26.1758C155.535 26.1758 154.911 26.0498 154.378 25.7979C153.851 25.5459 153.411 25.2002 153.06 24.7607C152.714 24.3213 152.453 23.8174 152.277 23.249C152.107 22.6748 152.022 22.0684 152.022 21.4297V21.0605C152.022 20.4219 152.107 19.8184 152.277 19.25C152.453 18.6758 152.714 18.1689 153.06 17.7295C153.411 17.29 153.851 16.9443 154.378 16.6924C154.911 16.4404 155.535 16.3145 156.25 16.3145C156.994 16.3145 157.645 16.4668 158.201 16.7715C158.758 17.0703 159.194 17.4805 159.511 18.002C159.833 18.5176 160.009 19.1035 160.038 19.7598H158.491C158.462 19.3672 158.351 19.0127 158.157 18.6963C157.97 18.3799 157.712 18.1279 157.384 17.9404C157.062 17.7471 156.684 17.6504 156.25 17.6504C155.752 17.6504 155.333 17.75 154.993 17.9492C154.659 18.1426 154.393 18.4062 154.193 18.7402C154 19.0684 153.859 19.4346 153.771 19.8389C153.689 20.2373 153.648 20.6445 153.648 21.0605V21.4297C153.648 21.8457 153.689 22.2559 153.771 22.6602C153.854 23.0645 153.991 23.4307 154.185 23.7588C154.384 24.0869 154.65 24.3506 154.984 24.5498C155.324 24.7432 155.746 24.8398 156.25 24.8398ZM167.685 23.8027V16.4902H169.319V26H167.764L167.685 23.8027ZM167.992 21.7988L168.669 21.7812C168.669 22.4141 168.602 23 168.467 23.5391C168.338 24.0723 168.127 24.5352 167.834 24.9277C167.541 25.3203 167.157 25.6279 166.683 25.8506C166.208 26.0674 165.631 26.1758 164.951 26.1758C164.488 26.1758 164.063 26.1084 163.677 25.9736C163.296 25.8389 162.968 25.6309 162.692 25.3496C162.417 25.0684 162.203 24.7021 162.051 24.251C161.904 23.7998 161.831 23.2578 161.831 22.625V16.4902H163.457V22.6426C163.457 23.0703 163.504 23.4248 163.598 23.7061C163.697 23.9814 163.829 24.2012 163.993 24.3652C164.163 24.5234 164.351 24.6348 164.556 24.6992C164.767 24.7637 164.983 24.7959 165.206 24.7959C165.897 24.7959 166.445 24.6641 166.85 24.4004C167.254 24.1309 167.544 23.7705 167.72 23.3193C167.901 22.8623 167.992 22.3555 167.992 21.7988ZM173.564 12.5V26H171.93V12.5H173.564ZM181.782 24.374V19.4785C181.782 19.1035 181.706 18.7783 181.554 18.5029C181.407 18.2217 181.185 18.0049 180.886 17.8525C180.587 17.7002 180.218 17.624 179.778 17.624C179.368 17.624 179.008 17.6943 178.697 17.835C178.393 17.9756 178.152 18.1602 177.977 18.3887C177.807 18.6172 177.722 18.8633 177.722 19.127H176.096C176.096 18.7871 176.184 18.4502 176.359 18.1162C176.535 17.7822 176.787 17.4805 177.115 17.2109C177.449 16.9355 177.848 16.7188 178.311 16.5605C178.779 16.3965 179.301 16.3145 179.875 16.3145C180.566 16.3145 181.176 16.4316 181.703 16.666C182.236 16.9004 182.652 17.2549 182.951 17.7295C183.256 18.1982 183.408 18.7871 183.408 19.4961V23.9258C183.408 24.2422 183.435 24.5791 183.487 24.9365C183.546 25.2939 183.631 25.6016 183.742 25.8594V26H182.046C181.964 25.8125 181.899 25.5635 181.853 25.2529C181.806 24.9365 181.782 24.6436 181.782 24.374ZM182.063 20.2344L182.081 21.377H180.438C179.975 21.377 179.562 21.415 179.198 21.4912C178.835 21.5615 178.53 21.6699 178.284 21.8164C178.038 21.9629 177.851 22.1475 177.722 22.3701C177.593 22.5869 177.528 22.8418 177.528 23.1348C177.528 23.4336 177.596 23.7061 177.73 23.9521C177.865 24.1982 178.067 24.3945 178.337 24.541C178.612 24.6816 178.949 24.752 179.348 24.752C179.846 24.752 180.285 24.6465 180.666 24.4355C181.047 24.2246 181.349 23.9668 181.571 23.6621C181.8 23.3574 181.923 23.0615 181.94 22.7744L182.635 23.5566C182.594 23.8027 182.482 24.0752 182.301 24.374C182.119 24.6729 181.876 24.96 181.571 25.2354C181.272 25.5049 180.915 25.7305 180.499 25.9121C180.089 26.0879 179.626 26.1758 179.11 26.1758C178.466 26.1758 177.9 26.0498 177.414 25.7979C176.934 25.5459 176.559 25.209 176.289 24.7871C176.025 24.3594 175.894 23.8818 175.894 23.3545C175.894 22.8447 175.993 22.3965 176.192 22.0098C176.392 21.6172 176.679 21.292 177.054 21.0342C177.429 20.7705 177.88 20.5713 178.407 20.4365C178.935 20.3018 179.523 20.2344 180.174 20.2344H182.063ZM189.947 16.4902V17.7383H184.806V16.4902H189.947ZM186.546 14.1787H188.172V23.6445C188.172 23.9668 188.222 24.21 188.321 24.374C188.421 24.5381 188.55 24.6465 188.708 24.6992C188.866 24.752 189.036 24.7783 189.218 24.7783C189.353 24.7783 189.493 24.7666 189.64 24.7432C189.792 24.7139 189.906 24.6904 189.982 24.6729L189.991 26C189.862 26.041 189.692 26.0791 189.481 26.1143C189.276 26.1553 189.027 26.1758 188.734 26.1758C188.336 26.1758 187.97 26.0967 187.636 25.9385C187.302 25.7803 187.035 25.5166 186.836 25.1475C186.643 24.7725 186.546 24.2686 186.546 23.6357V14.1787ZM191.248 21.3506V21.1484C191.248 20.4629 191.348 19.8271 191.547 19.2412C191.746 18.6494 192.033 18.1367 192.408 17.7031C192.783 17.2637 193.237 16.9238 193.771 16.6836C194.304 16.4375 194.901 16.3145 195.563 16.3145C196.231 16.3145 196.832 16.4375 197.365 16.6836C197.904 16.9238 198.361 17.2637 198.736 17.7031C199.117 18.1367 199.407 18.6494 199.606 19.2412C199.806 19.8271 199.905 20.4629 199.905 21.1484V21.3506C199.905 22.0361 199.806 22.6719 199.606 23.2578C199.407 23.8438 199.117 24.3564 198.736 24.7959C198.361 25.2295 197.907 25.5693 197.374 25.8154C196.847 26.0557 196.249 26.1758 195.581 26.1758C194.913 26.1758 194.312 26.0557 193.779 25.8154C193.246 25.5693 192.789 25.2295 192.408 24.7959C192.033 24.3564 191.746 23.8438 191.547 23.2578C191.348 22.6719 191.248 22.0361 191.248 21.3506ZM192.874 21.1484V21.3506C192.874 21.8252 192.93 22.2734 193.041 22.6953C193.152 23.1113 193.319 23.4805 193.542 23.8027C193.771 24.125 194.055 24.3799 194.395 24.5674C194.734 24.749 195.13 24.8398 195.581 24.8398C196.026 24.8398 196.416 24.749 196.75 24.5674C197.09 24.3799 197.371 24.125 197.594 23.8027C197.816 23.4805 197.983 23.1113 198.095 22.6953C198.212 22.2734 198.271 21.8252 198.271 21.3506V21.1484C198.271 20.6797 198.212 20.2373 198.095 19.8213C197.983 19.3994 197.813 19.0273 197.585 18.7051C197.362 18.377 197.081 18.1191 196.741 17.9316C196.407 17.7441 196.015 17.6504 195.563 17.6504C195.118 17.6504 194.726 17.7441 194.386 17.9316C194.052 18.1191 193.771 18.377 193.542 18.7051C193.319 19.0273 193.152 19.3994 193.041 19.8213C192.93 20.2373 192.874 20.6797 192.874 21.1484ZM203.57 17.9844V26H201.944V16.4902H203.526L203.57 17.9844ZM206.541 16.4375L206.532 17.9492C206.397 17.9199 206.269 17.9023 206.146 17.8965C206.028 17.8848 205.894 17.8789 205.741 17.8789C205.366 17.8789 205.035 17.9375 204.748 18.0547C204.461 18.1719 204.218 18.3359 204.019 18.5469C203.819 18.7578 203.661 19.0098 203.544 19.3027C203.433 19.5898 203.359 19.9062 203.324 20.252L202.867 20.5156C202.867 19.9414 202.923 19.4023 203.034 18.8984C203.151 18.3945 203.33 17.9492 203.57 17.5625C203.811 17.1699 204.115 16.8652 204.484 16.6484C204.859 16.4258 205.305 16.3145 205.82 16.3145C205.938 16.3145 206.072 16.3291 206.225 16.3584C206.377 16.3818 206.482 16.4082 206.541 16.4375Z" fill="black" fill-opacity="0.5"/>
<rect width="40" height="40" rx="5" fill="black" fill-opacity="0.06"/>
<path d="M25.75 18.75C25.75 18.5179 25.6578 18.2954 25.4937 18.1313C25.3296 17.9672 25.1071 17.875 24.875 17.875H14.7337L16.7463 15.8712C16.911 15.7065 17.0036 15.483 17.0036 15.25C17.0036 15.017 16.911 14.7935 16.7463 14.6287C16.5815 14.464 16.358 14.3714 16.125 14.3714C15.892 14.3714 15.6685 14.464 15.5038 14.6287L12.0037 18.1287C11.8823 18.2518 11.8001 18.408 11.7674 18.5778C11.7347 18.7475 11.753 18.9231 11.82 19.0825C11.8856 19.2423 11.9971 19.3791 12.1404 19.4756C12.2836 19.5721 12.4523 19.6241 12.625 19.625H24.875C25.1071 19.625 25.3296 19.5328 25.4937 19.3687C25.6578 19.2046 25.75 18.982 25.75 18.75ZM29.18 21.9175C29.1144 21.7577 29.0029 21.6209 28.8596 21.5244C28.7164 21.4278 28.5477 21.3758 28.375 21.375H16.125C15.8929 21.375 15.6704 21.4672 15.5063 21.6313C15.3422 21.7954 15.25 22.0179 15.25 22.25C15.25 22.482 15.3422 22.7046 15.5063 22.8687C15.6704 23.0328 15.8929 23.125 16.125 23.125H26.2662L24.2538 25.1287C24.1717 25.2101 24.1066 25.3068 24.0622 25.4135C24.0178 25.5201 23.9949 25.6345 23.9949 25.75C23.9949 25.8655 24.0178 25.9799 24.0622 26.0865C24.1066 26.1931 24.1717 26.2899 24.2538 26.3712C24.3351 26.4532 24.4319 26.5183 24.5385 26.5628C24.6451 26.6072 24.7595 26.6301 24.875 26.6301C24.9905 26.6301 25.1049 26.6072 25.2115 26.5628C25.3181 26.5183 25.4149 26.4532 25.4962 26.3712L28.9962 22.8712C29.1177 22.7482 29.1999 22.5919 29.2326 22.4222C29.2653 22.2524 29.247 22.0768 29.18 21.9175Z" fill="black" fill-opacity="0.5"/>
</svg>
