<svg width="130" height="40" viewBox="0 0 130 40" fill="none" xmlns="http://www.w3.org/2000/svg">
<path d="M72.3057 22.7656C72.3057 22.4668 72.2588 22.2031 72.165 21.9746C72.0771 21.7402 71.9189 21.5293 71.6904 21.3418C71.4678 21.1543 71.1572 20.9756 70.7588 20.8057C70.3662 20.6357 69.8682 20.4629 69.2646 20.2871C68.6318 20.0996 68.0605 19.8916 67.5508 19.6631C67.041 19.4287 66.6045 19.1621 66.2412 18.8633C65.8779 18.5645 65.5996 18.2217 65.4062 17.835C65.2129 17.4482 65.1162 17.0059 65.1162 16.5078C65.1162 16.0098 65.2188 15.5498 65.4238 15.1279C65.6289 14.7061 65.9219 14.3398 66.3027 14.0293C66.6895 13.7129 67.1494 13.4668 67.6826 13.291C68.2158 13.1152 68.8105 13.0273 69.4668 13.0273C70.4277 13.0273 71.2422 13.2119 71.9102 13.5811C72.584 13.9443 73.0967 14.4219 73.4482 15.0137C73.7998 15.5996 73.9756 16.2266 73.9756 16.8945H72.2881C72.2881 16.4141 72.1855 15.9893 71.9805 15.6201C71.7754 15.2451 71.4648 14.9521 71.0488 14.7412C70.6328 14.5244 70.1055 14.416 69.4668 14.416C68.8633 14.416 68.3652 14.5068 67.9727 14.6885C67.5801 14.8701 67.2871 15.1162 67.0938 15.4268C66.9062 15.7373 66.8125 16.0918 66.8125 16.4902C66.8125 16.7598 66.8682 17.0059 66.9795 17.2285C67.0967 17.4453 67.2754 17.6475 67.5156 17.835C67.7617 18.0225 68.0723 18.1953 68.4473 18.3535C68.8281 18.5117 69.2822 18.6641 69.8096 18.8105C70.5361 19.0156 71.1631 19.2441 71.6904 19.4961C72.2178 19.748 72.6514 20.0322 72.9912 20.3486C73.3369 20.6592 73.5918 21.0137 73.7559 21.4121C73.9258 21.8047 74.0107 22.25 74.0107 22.748C74.0107 23.2695 73.9053 23.7412 73.6943 24.1631C73.4834 24.585 73.1816 24.9453 72.7891 25.2441C72.3965 25.543 71.9248 25.7744 71.374 25.9385C70.8291 26.0967 70.2197 26.1758 69.5459 26.1758C68.9541 26.1758 68.3711 26.0938 67.7969 25.9297C67.2285 25.7656 66.71 25.5195 66.2412 25.1914C65.7783 24.8633 65.4062 24.459 65.125 23.9785C64.8496 23.4922 64.7119 22.9297 64.7119 22.291H66.3994C66.3994 22.7305 66.4844 23.1084 66.6543 23.4248C66.8242 23.7354 67.0557 23.9932 67.3486 24.1982C67.6475 24.4033 67.9844 24.5557 68.3594 24.6553C68.7402 24.749 69.1357 24.7959 69.5459 24.7959C70.1377 24.7959 70.6387 24.7139 71.0488 24.5498C71.459 24.3857 71.7695 24.1514 71.9805 23.8467C72.1973 23.542 72.3057 23.1816 72.3057 22.7656ZM79.873 26.1758C79.2109 26.1758 78.6104 26.0645 78.0713 25.8418C77.5381 25.6133 77.0781 25.2939 76.6914 24.8838C76.3105 24.4736 76.0176 23.9873 75.8125 23.4248C75.6074 22.8623 75.5049 22.2471 75.5049 21.5791V21.21C75.5049 20.4365 75.6191 19.748 75.8477 19.1445C76.0762 18.5352 76.3867 18.0195 76.7793 17.5977C77.1719 17.1758 77.6172 16.8564 78.1152 16.6396C78.6133 16.4229 79.1289 16.3145 79.6621 16.3145C80.3418 16.3145 80.9277 16.4316 81.4199 16.666C81.918 16.9004 82.3252 17.2285 82.6416 17.6504C82.958 18.0664 83.1924 18.5586 83.3447 19.127C83.4971 19.6895 83.5732 20.3047 83.5732 20.9727V21.7021H76.4717V20.375H81.9473V20.252C81.9238 19.8301 81.8359 19.4199 81.6836 19.0215C81.5371 18.623 81.3027 18.2949 80.9805 18.0371C80.6582 17.7793 80.2188 17.6504 79.6621 17.6504C79.293 17.6504 78.9531 17.7295 78.6426 17.8877C78.332 18.04 78.0654 18.2686 77.8428 18.5732C77.6201 18.8779 77.4473 19.25 77.3242 19.6895C77.2012 20.1289 77.1396 20.6357 77.1396 21.21V21.5791C77.1396 22.0303 77.2012 22.4551 77.3242 22.8535C77.4531 23.2461 77.6377 23.5918 77.8779 23.8906C78.124 24.1895 78.4199 24.4238 78.7656 24.5938C79.1172 24.7637 79.5156 24.8486 79.9609 24.8486C80.5352 24.8486 81.0215 24.7314 81.4199 24.4971C81.8184 24.2627 82.167 23.9492 82.4658 23.5566L83.4502 24.3389C83.2451 24.6494 82.9844 24.9453 82.668 25.2266C82.3516 25.5078 81.9619 25.7363 81.499 25.9121C81.042 26.0879 80.5 26.1758 79.873 26.1758ZM89.4531 16.4902V17.7383H84.3115V16.4902H89.4531ZM86.0518 14.1787H87.6777V23.6445C87.6777 23.9668 87.7275 24.21 87.8271 24.374C87.9268 24.5381 88.0557 24.6465 88.2139 24.6992C88.3721 24.752 88.542 24.7783 88.7236 24.7783C88.8584 24.7783 88.999 24.7666 89.1455 24.7432C89.2979 24.7139 89.4121 24.6904 89.4883 24.6729L89.4971 26C89.3682 26.041 89.1982 26.0791 88.9873 26.1143C88.7822 26.1553 88.5332 26.1758 88.2402 26.1758C87.8418 26.1758 87.4756 26.0967 87.1416 25.9385C86.8076 25.7803 86.541 25.5166 86.3418 25.1475C86.1484 24.7725 86.0518 24.2686 86.0518 23.6357V14.1787ZM95.3418 16.4902V17.7383H90.2002V16.4902H95.3418ZM91.9404 14.1787H93.5664V23.6445C93.5664 23.9668 93.6162 24.21 93.7158 24.374C93.8154 24.5381 93.9443 24.6465 94.1025 24.6992C94.2607 24.752 94.4307 24.7783 94.6123 24.7783C94.7471 24.7783 94.8877 24.7666 95.0342 24.7432C95.1865 24.7139 95.3008 24.6904 95.377 24.6729L95.3857 26C95.2568 26.041 95.0869 26.0791 94.876 26.1143C94.6709 26.1553 94.4219 26.1758 94.1289 26.1758C93.7305 26.1758 93.3643 26.0967 93.0303 25.9385C92.6963 25.7803 92.4297 25.5166 92.2305 25.1475C92.0371 24.7725 91.9404 24.2686 91.9404 23.6357V14.1787ZM99.0156 16.4902V26H97.3809V16.4902H99.0156ZM97.2578 13.9678C97.2578 13.7041 97.3369 13.4814 97.4951 13.2998C97.6592 13.1182 97.8994 13.0273 98.2158 13.0273C98.5264 13.0273 98.7637 13.1182 98.9277 13.2998C99.0977 13.4814 99.1826 13.7041 99.1826 13.9678C99.1826 14.2197 99.0977 14.4365 98.9277 14.6182C98.7637 14.7939 98.5264 14.8818 98.2158 14.8818C97.8994 14.8818 97.6592 14.7939 97.4951 14.6182C97.3369 14.4365 97.2578 14.2197 97.2578 13.9678ZM103.252 18.5205V26H101.626V16.4902H103.164L103.252 18.5205ZM102.865 20.8848L102.188 20.8584C102.194 20.208 102.291 19.6074 102.479 19.0566C102.666 18.5 102.93 18.0166 103.27 17.6064C103.609 17.1963 104.014 16.8799 104.482 16.6572C104.957 16.4287 105.481 16.3145 106.056 16.3145C106.524 16.3145 106.946 16.3789 107.321 16.5078C107.696 16.6309 108.016 16.8301 108.279 17.1055C108.549 17.3809 108.754 17.7383 108.895 18.1777C109.035 18.6113 109.105 19.1416 109.105 19.7686V26H107.471V19.751C107.471 19.2529 107.397 18.8545 107.251 18.5557C107.104 18.251 106.891 18.0312 106.609 17.8965C106.328 17.7559 105.982 17.6855 105.572 17.6855C105.168 17.6855 104.799 17.7705 104.465 17.9404C104.137 18.1104 103.853 18.3447 103.612 18.6436C103.378 18.9424 103.193 19.2852 103.059 19.6719C102.93 20.0527 102.865 20.457 102.865 20.8848ZM117.736 16.4902H119.213V25.7979C119.213 26.6357 119.043 27.3506 118.703 27.9424C118.363 28.5342 117.889 28.9824 117.279 29.2871C116.676 29.5977 115.979 29.7529 115.188 29.7529C114.859 29.7529 114.473 29.7002 114.027 29.5947C113.588 29.4951 113.154 29.3223 112.727 29.0762C112.305 28.8359 111.95 28.5107 111.663 28.1006L112.516 27.1338C112.914 27.6143 113.33 27.9482 113.764 28.1357C114.203 28.3232 114.637 28.417 115.064 28.417C115.58 28.417 116.025 28.3203 116.4 28.127C116.775 27.9336 117.065 27.6465 117.271 27.2656C117.481 26.8906 117.587 26.4277 117.587 25.877V18.582L117.736 16.4902ZM111.188 21.3506V21.166C111.188 20.4395 111.273 19.7803 111.443 19.1885C111.619 18.5908 111.868 18.0781 112.19 17.6504C112.519 17.2227 112.914 16.8945 113.377 16.666C113.84 16.4316 114.361 16.3145 114.941 16.3145C115.539 16.3145 116.061 16.4199 116.506 16.6309C116.957 16.8359 117.338 17.1377 117.648 17.5361C117.965 17.9287 118.214 18.4033 118.396 18.96C118.577 19.5166 118.703 20.1465 118.773 20.8496V21.6582C118.709 22.3555 118.583 22.9824 118.396 23.5391C118.214 24.0957 117.965 24.5703 117.648 24.9629C117.338 25.3555 116.957 25.6572 116.506 25.8682C116.055 26.0732 115.527 26.1758 114.924 26.1758C114.355 26.1758 113.84 26.0557 113.377 25.8154C112.92 25.5752 112.527 25.2383 112.199 24.8047C111.871 24.3711 111.619 23.8613 111.443 23.2754C111.273 22.6836 111.188 22.042 111.188 21.3506ZM112.814 21.166V21.3506C112.814 21.8252 112.861 22.2705 112.955 22.6865C113.055 23.1025 113.204 23.4688 113.403 23.7852C113.608 24.1016 113.869 24.3506 114.186 24.5322C114.502 24.708 114.88 24.7959 115.319 24.7959C115.858 24.7959 116.304 24.6816 116.655 24.4531C117.007 24.2246 117.285 23.9229 117.49 23.5479C117.701 23.1729 117.865 22.7656 117.982 22.3262V20.208C117.918 19.8857 117.818 19.5752 117.684 19.2764C117.555 18.9717 117.385 18.7021 117.174 18.4678C116.969 18.2275 116.714 18.0371 116.409 17.8965C116.104 17.7559 115.747 17.6855 115.337 17.6855C114.892 17.6855 114.508 17.7793 114.186 17.9668C113.869 18.1484 113.608 18.4004 113.403 18.7227C113.204 19.0391 113.055 19.4082 112.955 19.8301C112.861 20.2461 112.814 20.6914 112.814 21.166ZM127.22 23.4775C127.22 23.2432 127.167 23.0264 127.062 22.8271C126.962 22.6221 126.754 22.4375 126.438 22.2734C126.127 22.1035 125.658 21.957 125.031 21.834C124.504 21.7227 124.026 21.5908 123.599 21.4385C123.177 21.2861 122.816 21.1016 122.518 20.8848C122.225 20.668 121.999 20.4131 121.841 20.1201C121.683 19.8271 121.604 19.4844 121.604 19.0918C121.604 18.7168 121.686 18.3623 121.85 18.0283C122.02 17.6943 122.257 17.3984 122.562 17.1406C122.872 16.8828 123.244 16.6807 123.678 16.5342C124.111 16.3877 124.595 16.3145 125.128 16.3145C125.89 16.3145 126.54 16.4492 127.079 16.7188C127.618 16.9883 128.031 17.3486 128.318 17.7998C128.605 18.2451 128.749 18.7402 128.749 19.2852H127.123C127.123 19.0215 127.044 18.7666 126.886 18.5205C126.733 18.2686 126.508 18.0605 126.209 17.8965C125.916 17.7324 125.556 17.6504 125.128 17.6504C124.677 17.6504 124.311 17.7207 124.029 17.8613C123.754 17.9961 123.552 18.1689 123.423 18.3799C123.3 18.5908 123.238 18.8135 123.238 19.0479C123.238 19.2236 123.268 19.3818 123.326 19.5225C123.391 19.6572 123.502 19.7832 123.66 19.9004C123.818 20.0117 124.041 20.1172 124.328 20.2168C124.615 20.3164 124.981 20.416 125.427 20.5156C126.206 20.6914 126.848 20.9023 127.352 21.1484C127.855 21.3945 128.23 21.6963 128.477 22.0537C128.723 22.4111 128.846 22.8447 128.846 23.3545C128.846 23.7705 128.758 24.1514 128.582 24.4971C128.412 24.8428 128.163 25.1416 127.835 25.3936C127.513 25.6396 127.126 25.833 126.675 25.9736C126.229 26.1084 125.729 26.1758 125.172 26.1758C124.334 26.1758 123.625 26.0264 123.045 25.7275C122.465 25.4287 122.025 25.042 121.727 24.5674C121.428 24.0928 121.278 23.5918 121.278 23.0645H122.913C122.937 23.5098 123.065 23.8643 123.3 24.1279C123.534 24.3857 123.821 24.5703 124.161 24.6816C124.501 24.7871 124.838 24.8398 125.172 24.8398C125.617 24.8398 125.989 24.7812 126.288 24.6641C126.593 24.5469 126.824 24.3857 126.982 24.1807C127.141 23.9756 127.22 23.7412 127.22 23.4775Z" fill="black" fill-opacity="0.5"/>
<rect width="40" height="40" rx="5" fill="black" fill-opacity="0.06"/>
<path d="M28.9656 22.8318L27.6223 21.6833C27.6859 21.2937 27.7187 20.8958 27.7187 20.498C27.7187 20.1001 27.6859 19.7023 27.6223 19.3126L28.9656 18.1642C29.0669 18.0774 29.1394 17.9619 29.1735 17.833C29.2075 17.704 29.2016 17.5678 29.1563 17.4423L29.1378 17.389C28.768 16.3554 28.2143 15.3973 27.5034 14.561L27.4665 14.5179C27.3802 14.4165 27.2653 14.3436 27.1368 14.3088C27.0083 14.274 26.8722 14.279 26.7466 14.3231L25.0793 14.9157C24.4641 14.4113 23.7771 14.0134 23.0347 13.7345L22.7127 11.9913C22.6885 11.8602 22.6248 11.7395 22.5303 11.6454C22.4358 11.5512 22.3149 11.4881 22.1836 11.4643L22.1283 11.454C21.0598 11.2613 19.936 11.2613 18.8675 11.454L18.8122 11.4643C18.6809 11.4881 18.56 11.5512 18.4655 11.6454C18.371 11.7395 18.3074 11.8602 18.2831 11.9913L17.959 13.7427C17.2226 14.0217 16.5368 14.4193 15.9288 14.9198L14.2492 14.3231C14.1236 14.2787 13.9875 14.2735 13.8589 14.3083C13.7303 14.3431 13.6154 14.4162 13.5293 14.5179L13.4924 14.561C12.7823 15.3979 12.2287 16.3559 11.858 17.389L11.8395 17.4423C11.7472 17.6987 11.8231 17.9858 12.0302 18.1642L13.3899 19.3249C13.3263 19.7105 13.2956 20.1042 13.2956 20.4959C13.2956 20.8897 13.3263 21.2834 13.3899 21.6669L12.0302 22.8277C11.9289 22.9144 11.8564 23.0299 11.8223 23.1589C11.7883 23.2878 11.7943 23.4241 11.8395 23.5495L11.858 23.6029C12.2292 24.6365 12.7788 25.5901 13.4924 26.4309L13.5293 26.474C13.6156 26.5754 13.7305 26.6483 13.859 26.683C13.9875 26.7178 14.1236 26.7128 14.2492 26.6688L15.9288 26.072C16.5399 26.5744 17.2228 26.9723 17.959 27.2491L18.2831 29.0005C18.3074 29.1317 18.371 29.2523 18.4655 29.3465C18.56 29.4406 18.6809 29.5038 18.8122 29.5276L18.8675 29.5378C19.9458 29.7316 21.05 29.7316 22.1283 29.5378L22.1836 29.5276C22.3149 29.5038 22.4358 29.4406 22.5303 29.3465C22.6248 29.2523 22.6885 29.1317 22.7127 29.0005L23.0347 27.2573C23.7768 26.9792 24.4677 26.58 25.0793 26.0761L26.7466 26.6688C26.8722 26.7132 27.0083 26.7183 27.1369 26.6835C27.2655 26.6487 27.3804 26.5756 27.4665 26.474L27.5034 26.4309C28.217 25.588 28.7667 24.6365 29.1378 23.6029L29.1563 23.5495C29.2486 23.2973 29.1727 23.0102 28.9656 22.8318ZM26.1663 19.5546C26.2175 19.8643 26.2442 20.1822 26.2442 20.5C26.2442 20.8179 26.2175 21.1358 26.1663 21.4454L26.0309 22.2678L27.5628 23.5782C27.3306 24.1133 27.0375 24.6197 26.6892 25.0876L24.7861 24.4129L24.1421 24.942C23.652 25.344 23.1065 25.6598 22.5159 25.8813L21.7345 26.1745L21.3674 28.1638C20.7882 28.2294 20.2035 28.2294 19.6243 28.1638L19.2572 26.1704L18.482 25.8731C17.8975 25.6516 17.3541 25.3358 16.868 24.9359L16.2241 24.4047L14.3086 25.0856C13.96 24.6159 13.6688 24.1094 13.435 23.5762L14.9834 22.2534L14.8501 21.4331C14.8008 21.1276 14.7742 20.8117 14.7742 20.5C14.7742 20.1863 14.7988 19.8725 14.8501 19.5669L14.9834 18.7466L13.435 17.4239C13.6668 16.8886 13.96 16.3841 14.3086 15.9145L16.2241 16.5953L16.868 16.0642C17.3541 15.6643 17.8975 15.3485 18.482 15.127L19.2592 14.8337L19.6263 12.8404C20.2026 12.7747 20.7912 12.7747 21.3695 12.8404L21.7366 14.8296L22.5179 15.1229C23.1065 15.3444 23.6541 15.6602 24.1442 16.0621L24.7881 16.5912L26.6913 15.9165C27.0399 16.3862 27.3311 16.8927 27.5649 17.4259L26.033 18.7364L26.1663 19.5546ZM20.5 16.6856C18.5066 16.6856 16.8906 18.3016 16.8906 20.2949C16.8906 22.2883 18.5066 23.9043 20.5 23.9043C22.4933 23.9043 24.1093 22.2883 24.1093 20.2949C24.1093 18.3016 22.4933 16.6856 20.5 16.6856ZM22.1242 21.9192C21.9111 22.1328 21.658 22.3022 21.3792 22.4177C21.1005 22.5331 20.8017 22.5923 20.5 22.5918C19.8868 22.5918 19.3105 22.3519 18.8757 21.9192C18.6621 21.7061 18.4927 21.453 18.3772 21.1742C18.2618 20.8955 18.2026 20.5967 18.2031 20.2949C18.2031 19.6818 18.443 19.1055 18.8757 18.6707C19.3105 18.236 19.8868 17.9981 20.5 17.9981C21.1131 17.9981 21.6894 18.236 22.1242 18.6707C22.3378 18.8838 22.5072 19.1369 22.6227 19.4157C22.7381 19.6944 22.7973 19.9932 22.7968 20.2949C22.7968 20.9081 22.5569 21.4844 22.1242 21.9192Z" fill="black" fill-opacity="0.5"/>
</svg>
